G75*
G70*
%OFA0B0*%
%FSLAX24Y24*%
%IPPOS*%
%LPD*%
%AMOC8*
5,1,8,0,0,1.08239X$1,22.5*
%
%ADD10C,0.0000*%
D10*
X000629Y001245D02*
X000629Y018961D01*
X000983Y018961D02*
X000985Y019011D01*
X000991Y019061D01*
X001001Y019110D01*
X001015Y019158D01*
X001032Y019205D01*
X001053Y019250D01*
X001078Y019294D01*
X001106Y019335D01*
X001138Y019374D01*
X001172Y019411D01*
X001209Y019445D01*
X001249Y019475D01*
X001291Y019502D01*
X001335Y019526D01*
X001381Y019547D01*
X001428Y019563D01*
X001476Y019576D01*
X001526Y019585D01*
X001575Y019590D01*
X001626Y019591D01*
X001676Y019588D01*
X001725Y019581D01*
X001774Y019570D01*
X001822Y019555D01*
X001868Y019537D01*
X001913Y019515D01*
X001956Y019489D01*
X001997Y019460D01*
X002036Y019428D01*
X002072Y019393D01*
X002104Y019355D01*
X002134Y019315D01*
X002161Y019272D01*
X002184Y019228D01*
X002203Y019182D01*
X002219Y019134D01*
X002231Y019085D01*
X002239Y019036D01*
X002243Y018986D01*
X002243Y018936D01*
X002239Y018886D01*
X002231Y018837D01*
X002219Y018788D01*
X002203Y018740D01*
X002184Y018694D01*
X002161Y018650D01*
X002134Y018607D01*
X002104Y018567D01*
X002072Y018529D01*
X002036Y018494D01*
X001997Y018462D01*
X001956Y018433D01*
X001913Y018407D01*
X001868Y018385D01*
X001822Y018367D01*
X001774Y018352D01*
X001725Y018341D01*
X001676Y018334D01*
X001626Y018331D01*
X001575Y018332D01*
X001526Y018337D01*
X001476Y018346D01*
X001428Y018359D01*
X001381Y018375D01*
X001335Y018396D01*
X001291Y018420D01*
X001249Y018447D01*
X001209Y018477D01*
X001172Y018511D01*
X001138Y018548D01*
X001106Y018587D01*
X001078Y018628D01*
X001053Y018672D01*
X001032Y018717D01*
X001015Y018764D01*
X001001Y018812D01*
X000991Y018861D01*
X000985Y018911D01*
X000983Y018961D01*
X000629Y018961D02*
X000631Y019023D01*
X000637Y019084D01*
X000646Y019145D01*
X000660Y019206D01*
X000677Y019265D01*
X000698Y019323D01*
X000723Y019380D01*
X000751Y019435D01*
X000782Y019488D01*
X000817Y019539D01*
X000855Y019588D01*
X000896Y019635D01*
X000939Y019678D01*
X000986Y019719D01*
X001035Y019757D01*
X001086Y019792D01*
X001139Y019823D01*
X001194Y019851D01*
X001251Y019876D01*
X001309Y019897D01*
X001368Y019914D01*
X001429Y019928D01*
X001490Y019937D01*
X001551Y019943D01*
X001613Y019945D01*
X001613Y019946D02*
X002893Y019946D01*
X002893Y016796D01*
X014704Y016796D01*
X014704Y019946D01*
X019330Y019946D01*
X018700Y018961D02*
X018702Y019011D01*
X018708Y019061D01*
X018718Y019110D01*
X018732Y019158D01*
X018749Y019205D01*
X018770Y019250D01*
X018795Y019294D01*
X018823Y019335D01*
X018855Y019374D01*
X018889Y019411D01*
X018926Y019445D01*
X018966Y019475D01*
X019008Y019502D01*
X019052Y019526D01*
X019098Y019547D01*
X019145Y019563D01*
X019193Y019576D01*
X019243Y019585D01*
X019292Y019590D01*
X019343Y019591D01*
X019393Y019588D01*
X019442Y019581D01*
X019491Y019570D01*
X019539Y019555D01*
X019585Y019537D01*
X019630Y019515D01*
X019673Y019489D01*
X019714Y019460D01*
X019753Y019428D01*
X019789Y019393D01*
X019821Y019355D01*
X019851Y019315D01*
X019878Y019272D01*
X019901Y019228D01*
X019920Y019182D01*
X019936Y019134D01*
X019948Y019085D01*
X019956Y019036D01*
X019960Y018986D01*
X019960Y018936D01*
X019956Y018886D01*
X019948Y018837D01*
X019936Y018788D01*
X019920Y018740D01*
X019901Y018694D01*
X019878Y018650D01*
X019851Y018607D01*
X019821Y018567D01*
X019789Y018529D01*
X019753Y018494D01*
X019714Y018462D01*
X019673Y018433D01*
X019630Y018407D01*
X019585Y018385D01*
X019539Y018367D01*
X019491Y018352D01*
X019442Y018341D01*
X019393Y018334D01*
X019343Y018331D01*
X019292Y018332D01*
X019243Y018337D01*
X019193Y018346D01*
X019145Y018359D01*
X019098Y018375D01*
X019052Y018396D01*
X019008Y018420D01*
X018966Y018447D01*
X018926Y018477D01*
X018889Y018511D01*
X018855Y018548D01*
X018823Y018587D01*
X018795Y018628D01*
X018770Y018672D01*
X018749Y018717D01*
X018732Y018764D01*
X018718Y018812D01*
X018708Y018861D01*
X018702Y018911D01*
X018700Y018961D01*
X019330Y019945D02*
X019392Y019943D01*
X019453Y019937D01*
X019514Y019928D01*
X019575Y019914D01*
X019634Y019897D01*
X019692Y019876D01*
X019749Y019851D01*
X019804Y019823D01*
X019857Y019792D01*
X019908Y019757D01*
X019957Y019719D01*
X020004Y019678D01*
X020047Y019635D01*
X020088Y019588D01*
X020126Y019539D01*
X020161Y019488D01*
X020192Y019435D01*
X020220Y019380D01*
X020245Y019323D01*
X020266Y019265D01*
X020283Y019206D01*
X020297Y019145D01*
X020306Y019084D01*
X020312Y019023D01*
X020314Y018961D01*
X020314Y012761D01*
X016869Y012761D01*
X016869Y007938D01*
X020314Y007938D01*
X020314Y001245D01*
X018700Y001245D02*
X018702Y001295D01*
X018708Y001345D01*
X018718Y001394D01*
X018732Y001442D01*
X018749Y001489D01*
X018770Y001534D01*
X018795Y001578D01*
X018823Y001619D01*
X018855Y001658D01*
X018889Y001695D01*
X018926Y001729D01*
X018966Y001759D01*
X019008Y001786D01*
X019052Y001810D01*
X019098Y001831D01*
X019145Y001847D01*
X019193Y001860D01*
X019243Y001869D01*
X019292Y001874D01*
X019343Y001875D01*
X019393Y001872D01*
X019442Y001865D01*
X019491Y001854D01*
X019539Y001839D01*
X019585Y001821D01*
X019630Y001799D01*
X019673Y001773D01*
X019714Y001744D01*
X019753Y001712D01*
X019789Y001677D01*
X019821Y001639D01*
X019851Y001599D01*
X019878Y001556D01*
X019901Y001512D01*
X019920Y001466D01*
X019936Y001418D01*
X019948Y001369D01*
X019956Y001320D01*
X019960Y001270D01*
X019960Y001220D01*
X019956Y001170D01*
X019948Y001121D01*
X019936Y001072D01*
X019920Y001024D01*
X019901Y000978D01*
X019878Y000934D01*
X019851Y000891D01*
X019821Y000851D01*
X019789Y000813D01*
X019753Y000778D01*
X019714Y000746D01*
X019673Y000717D01*
X019630Y000691D01*
X019585Y000669D01*
X019539Y000651D01*
X019491Y000636D01*
X019442Y000625D01*
X019393Y000618D01*
X019343Y000615D01*
X019292Y000616D01*
X019243Y000621D01*
X019193Y000630D01*
X019145Y000643D01*
X019098Y000659D01*
X019052Y000680D01*
X019008Y000704D01*
X018966Y000731D01*
X018926Y000761D01*
X018889Y000795D01*
X018855Y000832D01*
X018823Y000871D01*
X018795Y000912D01*
X018770Y000956D01*
X018749Y001001D01*
X018732Y001048D01*
X018718Y001096D01*
X018708Y001145D01*
X018702Y001195D01*
X018700Y001245D01*
X019330Y000261D02*
X019392Y000263D01*
X019453Y000269D01*
X019514Y000278D01*
X019575Y000292D01*
X019634Y000309D01*
X019692Y000330D01*
X019749Y000355D01*
X019804Y000383D01*
X019857Y000414D01*
X019908Y000449D01*
X019957Y000487D01*
X020004Y000528D01*
X020047Y000571D01*
X020088Y000618D01*
X020126Y000667D01*
X020161Y000718D01*
X020192Y000771D01*
X020220Y000826D01*
X020245Y000883D01*
X020266Y000941D01*
X020283Y001000D01*
X020297Y001061D01*
X020306Y001122D01*
X020312Y001183D01*
X020314Y001245D01*
X019330Y000261D02*
X001613Y000261D01*
X000983Y001245D02*
X000985Y001295D01*
X000991Y001345D01*
X001001Y001394D01*
X001015Y001442D01*
X001032Y001489D01*
X001053Y001534D01*
X001078Y001578D01*
X001106Y001619D01*
X001138Y001658D01*
X001172Y001695D01*
X001209Y001729D01*
X001249Y001759D01*
X001291Y001786D01*
X001335Y001810D01*
X001381Y001831D01*
X001428Y001847D01*
X001476Y001860D01*
X001526Y001869D01*
X001575Y001874D01*
X001626Y001875D01*
X001676Y001872D01*
X001725Y001865D01*
X001774Y001854D01*
X001822Y001839D01*
X001868Y001821D01*
X001913Y001799D01*
X001956Y001773D01*
X001997Y001744D01*
X002036Y001712D01*
X002072Y001677D01*
X002104Y001639D01*
X002134Y001599D01*
X002161Y001556D01*
X002184Y001512D01*
X002203Y001466D01*
X002219Y001418D01*
X002231Y001369D01*
X002239Y001320D01*
X002243Y001270D01*
X002243Y001220D01*
X002239Y001170D01*
X002231Y001121D01*
X002219Y001072D01*
X002203Y001024D01*
X002184Y000978D01*
X002161Y000934D01*
X002134Y000891D01*
X002104Y000851D01*
X002072Y000813D01*
X002036Y000778D01*
X001997Y000746D01*
X001956Y000717D01*
X001913Y000691D01*
X001868Y000669D01*
X001822Y000651D01*
X001774Y000636D01*
X001725Y000625D01*
X001676Y000618D01*
X001626Y000615D01*
X001575Y000616D01*
X001526Y000621D01*
X001476Y000630D01*
X001428Y000643D01*
X001381Y000659D01*
X001335Y000680D01*
X001291Y000704D01*
X001249Y000731D01*
X001209Y000761D01*
X001172Y000795D01*
X001138Y000832D01*
X001106Y000871D01*
X001078Y000912D01*
X001053Y000956D01*
X001032Y001001D01*
X001015Y001048D01*
X001001Y001096D01*
X000991Y001145D01*
X000985Y001195D01*
X000983Y001245D01*
X000629Y001245D02*
X000631Y001183D01*
X000637Y001122D01*
X000646Y001061D01*
X000660Y001000D01*
X000677Y000941D01*
X000698Y000883D01*
X000723Y000826D01*
X000751Y000771D01*
X000782Y000718D01*
X000817Y000667D01*
X000855Y000618D01*
X000896Y000571D01*
X000939Y000528D01*
X000986Y000487D01*
X001035Y000449D01*
X001086Y000414D01*
X001139Y000383D01*
X001194Y000355D01*
X001251Y000330D01*
X001309Y000309D01*
X001368Y000292D01*
X001429Y000278D01*
X001490Y000269D01*
X001551Y000263D01*
X001613Y000261D01*
M02*
