G75*
G70*
%OFA0B0*%
%FSLAX24Y24*%
%IPPOS*%
%LPD*%
%AMOC8*
5,1,8,0,0,1.08239X$1,22.5*
%
%ADD10C,0.0030*%
%ADD11C,0.0060*%
%ADD12C,0.0040*%
D10*
X004073Y003978D02*
X004197Y004101D01*
X004135Y004101D02*
X004320Y004101D01*
X004320Y003978D02*
X004320Y004348D01*
X004135Y004348D01*
X004073Y004286D01*
X004073Y004163D01*
X004135Y004101D01*
X004442Y004163D02*
X004689Y004163D01*
X004689Y004224D02*
X004565Y004348D01*
X004442Y004224D01*
X004442Y003978D01*
X004689Y003978D02*
X004689Y004224D01*
X004810Y004348D02*
X004810Y003978D01*
X005057Y004348D01*
X005057Y003978D01*
X005178Y004039D02*
X005178Y004286D01*
X005240Y004348D01*
X005363Y004348D01*
X005425Y004286D01*
X005425Y004039D01*
X005363Y003978D01*
X005240Y003978D01*
X005178Y004039D01*
X005547Y004039D02*
X005608Y003978D01*
X005732Y003978D01*
X005793Y004039D01*
X005732Y004163D02*
X005608Y004163D01*
X005547Y004101D01*
X005547Y004039D01*
X005732Y004163D02*
X005793Y004224D01*
X005793Y004286D01*
X005732Y004348D01*
X005608Y004348D01*
X005547Y004286D01*
X008456Y003983D02*
X008649Y003983D01*
X008553Y003983D02*
X008553Y004274D01*
X008649Y004177D01*
X008750Y004274D02*
X008750Y003983D01*
X008944Y004274D01*
X008944Y003983D01*
X009045Y003983D02*
X009142Y004080D01*
X009093Y004080D02*
X009239Y004080D01*
X009239Y003983D02*
X009239Y004274D01*
X009093Y004274D01*
X009045Y004225D01*
X009045Y004128D01*
X009093Y004080D01*
X010226Y004176D02*
X010226Y004225D01*
X010275Y004273D01*
X010371Y004273D01*
X010420Y004225D01*
X010521Y004273D02*
X010521Y003983D01*
X010714Y004273D01*
X010714Y003983D01*
X010816Y003983D02*
X010912Y004080D01*
X010864Y004080D02*
X011009Y004080D01*
X011009Y003983D02*
X011009Y004273D01*
X010864Y004273D01*
X010816Y004225D01*
X010816Y004128D01*
X010864Y004080D01*
X010420Y003983D02*
X010226Y004176D01*
X010226Y003983D02*
X010420Y003983D01*
X011457Y004187D02*
X011457Y004249D01*
X011457Y004187D02*
X011581Y004064D01*
X011581Y003879D01*
X011581Y004064D02*
X011704Y004187D01*
X011704Y004249D01*
X011826Y004187D02*
X011826Y004064D01*
X011887Y004002D01*
X012073Y004002D01*
X012073Y003879D02*
X012073Y004249D01*
X011887Y004249D01*
X011826Y004187D01*
X011949Y004002D02*
X011826Y003879D01*
X012317Y003879D02*
X012317Y004249D01*
X012194Y004249D02*
X012441Y004249D01*
X012562Y004249D02*
X012809Y004249D01*
X012809Y003879D01*
X012562Y003879D01*
X012686Y004064D02*
X012809Y004064D01*
X012931Y004249D02*
X012931Y003879D01*
X013054Y004126D02*
X012931Y004249D01*
X013054Y004126D02*
X013177Y004249D01*
X013177Y003879D01*
X013299Y003879D02*
X013546Y003879D01*
X013546Y004249D01*
X013299Y004249D01*
X013422Y004064D02*
X013546Y004064D01*
X013667Y003879D02*
X013914Y003879D01*
X013914Y004249D01*
X014036Y004249D02*
X014282Y004249D01*
X014282Y003879D01*
X014036Y003879D01*
X014159Y004064D02*
X014282Y004064D01*
X014404Y004249D02*
X014651Y004249D01*
X014527Y004249D02*
X014527Y003879D01*
X015858Y003943D02*
X015858Y004066D01*
X015982Y004066D01*
X016105Y003943D02*
X016043Y003881D01*
X015920Y003881D01*
X015858Y003943D01*
X015858Y004190D02*
X015920Y004252D01*
X016043Y004252D01*
X016105Y004190D01*
X016105Y003943D01*
X016227Y003943D02*
X016227Y004190D01*
X016288Y004252D01*
X016412Y004252D01*
X016474Y004190D01*
X016474Y003943D01*
X016412Y003881D01*
X016288Y003881D01*
X016227Y003943D01*
X016595Y003881D02*
X016718Y004005D01*
X016657Y004005D02*
X016842Y004005D01*
X016842Y003881D02*
X016842Y004252D01*
X016657Y004252D01*
X016595Y004190D01*
X016595Y004066D01*
X016657Y004005D01*
X016963Y004066D02*
X016963Y004190D01*
X017025Y004252D01*
X017210Y004252D01*
X017210Y003881D01*
X017210Y004005D02*
X017025Y004005D01*
X016963Y004066D01*
X013746Y005347D02*
X013698Y005299D01*
X013504Y005299D01*
X013456Y005347D01*
X013456Y005444D01*
X013504Y005492D01*
X013456Y005593D02*
X013649Y005787D01*
X013698Y005787D01*
X013746Y005739D01*
X013746Y005642D01*
X013698Y005593D01*
X013698Y005492D02*
X013746Y005444D01*
X013746Y005347D01*
X013456Y005593D02*
X013456Y005787D01*
X013504Y005888D02*
X013456Y005936D01*
X013456Y006033D01*
X013504Y006082D01*
X013553Y006082D01*
X013601Y006033D01*
X013601Y005888D01*
X013504Y005888D01*
X013601Y005888D02*
X013698Y005985D01*
X013746Y006082D01*
X011688Y008231D02*
X011591Y008231D01*
X011543Y008280D01*
X011543Y008328D01*
X011591Y008376D01*
X011688Y008376D01*
X011736Y008425D01*
X011736Y008473D01*
X011688Y008521D01*
X011591Y008521D01*
X011543Y008473D01*
X011442Y008521D02*
X011248Y008521D01*
X011345Y008521D02*
X011345Y008231D01*
X011147Y008231D02*
X011147Y008521D01*
X011050Y008425D01*
X010954Y008521D01*
X010954Y008231D01*
X010852Y008280D02*
X010804Y008231D01*
X010707Y008231D01*
X010659Y008280D01*
X010659Y008328D01*
X010707Y008376D01*
X010756Y008376D01*
X010707Y008376D02*
X010659Y008425D01*
X010659Y008473D01*
X010707Y008521D01*
X010804Y008521D01*
X010852Y008473D01*
X010558Y008473D02*
X010509Y008521D01*
X010413Y008521D01*
X010364Y008473D01*
X010364Y008425D01*
X010558Y008231D01*
X010364Y008231D01*
X010263Y008231D02*
X010263Y008521D01*
X010070Y008521D01*
X010166Y008376D02*
X010263Y008376D01*
X009968Y008376D02*
X009775Y008376D01*
X009674Y008280D02*
X009674Y008473D01*
X009625Y008521D01*
X009529Y008521D01*
X009480Y008473D01*
X009674Y008280D01*
X009625Y008231D01*
X009529Y008231D01*
X009480Y008280D01*
X009480Y008473D01*
X009379Y008521D02*
X009186Y008521D01*
X009186Y008473D01*
X009379Y008280D01*
X009379Y008231D01*
X009084Y008328D02*
X008988Y008231D01*
X008891Y008328D01*
X008891Y008521D01*
X008790Y008473D02*
X008790Y008280D01*
X008741Y008231D01*
X008645Y008231D01*
X008596Y008280D01*
X008596Y008376D01*
X008693Y008376D01*
X008596Y008473D02*
X008645Y008521D01*
X008741Y008521D01*
X008790Y008473D01*
X009084Y008521D02*
X009084Y008328D01*
X008495Y008521D02*
X008302Y008521D01*
X008398Y008521D02*
X008398Y008231D01*
X008200Y008280D02*
X008152Y008231D01*
X008055Y008231D01*
X008007Y008280D01*
X008007Y008328D01*
X008055Y008376D01*
X008200Y008376D01*
X008200Y008280D01*
X008200Y008376D02*
X008104Y008473D01*
X008007Y008521D01*
X009823Y008521D02*
X009968Y008376D01*
X009823Y008231D02*
X009823Y008521D01*
X011688Y008231D02*
X011736Y008280D01*
X014301Y010348D02*
X014350Y010300D01*
X014446Y010300D01*
X014495Y010348D01*
X014596Y010300D02*
X014789Y010300D01*
X014596Y010494D01*
X014596Y010542D01*
X014644Y010590D01*
X014741Y010590D01*
X014789Y010542D01*
X014890Y010542D02*
X014890Y010445D01*
X014939Y010397D01*
X015084Y010397D01*
X014987Y010397D02*
X014890Y010300D01*
X015084Y010300D02*
X015084Y010590D01*
X014939Y010590D01*
X014890Y010542D01*
X014495Y010542D02*
X014446Y010590D01*
X014350Y010590D01*
X014301Y010542D01*
X014301Y010494D01*
X014350Y010445D01*
X014301Y010397D01*
X014301Y010348D01*
X014350Y010445D02*
X014398Y010445D01*
X013639Y011840D02*
X013543Y011840D01*
X013494Y011889D01*
X013393Y011985D02*
X013200Y011985D01*
X013248Y011840D02*
X013248Y012131D01*
X013393Y011985D01*
X013494Y012082D02*
X013543Y012131D01*
X013639Y012131D01*
X013688Y012082D01*
X013688Y011889D01*
X013639Y011840D01*
X013701Y012187D02*
X013701Y012477D01*
X013846Y012332D01*
X013652Y012332D01*
X013947Y012187D02*
X014141Y012187D01*
X014044Y012187D02*
X014044Y012477D01*
X014141Y012381D01*
X014242Y012429D02*
X014290Y012477D01*
X014435Y012477D01*
X014435Y012187D01*
X014435Y012284D02*
X014290Y012284D01*
X014242Y012332D01*
X014242Y012429D01*
X014338Y012284D02*
X014242Y012187D01*
X014240Y013960D02*
X014240Y014008D01*
X014047Y014202D01*
X014047Y014250D01*
X014240Y014250D01*
X014342Y014202D02*
X014342Y014105D01*
X014390Y014057D01*
X014535Y014057D01*
X014438Y014057D02*
X014342Y013960D01*
X014535Y013960D02*
X014535Y014250D01*
X014390Y014250D01*
X014342Y014202D01*
X011532Y014174D02*
X011532Y014319D01*
X011483Y014368D01*
X011290Y014368D01*
X011241Y014319D01*
X011241Y014174D01*
X011532Y014174D01*
X011532Y014469D02*
X011241Y014469D01*
X011241Y014614D01*
X011290Y014662D01*
X011483Y014662D01*
X011532Y014614D01*
X011532Y014469D01*
X011483Y014763D02*
X011532Y014812D01*
X011532Y014908D01*
X011483Y014957D01*
X011435Y014957D01*
X011386Y014908D01*
X011338Y014957D01*
X011290Y014957D01*
X011241Y014908D01*
X011241Y014812D01*
X011290Y014763D01*
X011386Y014860D02*
X011386Y014908D01*
X011074Y012290D02*
X010929Y012290D01*
X010881Y012241D01*
X010881Y012048D01*
X010929Y012000D01*
X011074Y012000D01*
X011074Y012290D01*
X010780Y012290D02*
X010780Y012000D01*
X010635Y012000D01*
X010586Y012048D01*
X010586Y012241D01*
X010635Y012290D01*
X010780Y012290D01*
X010485Y012193D02*
X010388Y012290D01*
X010388Y012000D01*
X010292Y012000D02*
X010485Y012000D01*
X005514Y010553D02*
X005514Y010360D01*
X005466Y010311D01*
X005369Y010311D01*
X005321Y010360D01*
X005219Y010311D02*
X005026Y010311D01*
X005123Y010311D02*
X005123Y010602D01*
X005219Y010505D01*
X005321Y010553D02*
X005369Y010602D01*
X005466Y010602D01*
X005514Y010553D01*
X004925Y010553D02*
X004925Y010505D01*
X004876Y010456D01*
X004780Y010456D01*
X004731Y010408D01*
X004731Y010360D01*
X004780Y010311D01*
X004876Y010311D01*
X004925Y010360D01*
X004925Y010408D01*
X004876Y010456D01*
X004780Y010456D02*
X004731Y010505D01*
X004731Y010553D01*
X004780Y010602D01*
X004876Y010602D01*
X004925Y010553D01*
X003859Y009580D02*
X003666Y009580D01*
X003666Y009531D01*
X003859Y009338D01*
X003859Y009290D01*
X003666Y009290D01*
X003565Y009338D02*
X003565Y009531D01*
X003516Y009580D01*
X003420Y009580D01*
X003371Y009531D01*
X003371Y009338D01*
X003420Y009290D01*
X003516Y009290D01*
X003565Y009338D01*
X003468Y009386D02*
X003371Y009290D01*
X003270Y009290D02*
X003077Y009290D01*
X003173Y009290D02*
X003173Y009580D01*
X003270Y009483D01*
X004598Y008737D02*
X004791Y008737D01*
X004791Y008592D01*
X004694Y008641D01*
X004646Y008641D01*
X004598Y008592D01*
X004598Y008495D01*
X004646Y008447D01*
X004743Y008447D01*
X004791Y008495D01*
X004892Y008447D02*
X005086Y008447D01*
X004989Y008447D02*
X004989Y008737D01*
X005086Y008641D01*
X005187Y008689D02*
X005187Y008592D01*
X005235Y008544D01*
X005380Y008544D01*
X005284Y008544D02*
X005187Y008447D01*
X005380Y008447D02*
X005380Y008737D01*
X005235Y008737D01*
X005187Y008689D01*
D11*
X006177Y015037D02*
X006410Y015037D01*
X006527Y015154D01*
X006760Y015154D02*
X006760Y015037D01*
X006877Y015037D01*
X006877Y015154D01*
X006760Y015154D01*
X007110Y015037D02*
X007577Y015037D01*
X007343Y015037D02*
X007343Y015738D01*
X007577Y015505D01*
X007809Y015738D02*
X007809Y015271D01*
X008043Y015037D01*
X008276Y015271D01*
X008276Y015738D01*
X008366Y016317D02*
X008579Y016531D01*
X008472Y016531D02*
X008366Y016637D01*
X008366Y016851D01*
X008472Y016958D01*
X008793Y016958D01*
X008793Y016317D01*
X008793Y016531D02*
X008472Y016531D01*
X008148Y016424D02*
X008041Y016317D01*
X007828Y016317D01*
X007721Y016424D01*
X007504Y016424D02*
X007397Y016317D01*
X007183Y016317D01*
X007077Y016424D01*
X007077Y016851D01*
X007183Y016958D01*
X007397Y016958D01*
X007504Y016851D01*
X007504Y016424D01*
X007721Y016851D02*
X007828Y016958D01*
X008041Y016958D01*
X008148Y016851D01*
X008148Y016424D01*
X009010Y016424D02*
X009117Y016317D01*
X009330Y016317D01*
X009437Y016424D01*
X009437Y016851D01*
X009330Y016958D01*
X009117Y016958D01*
X009010Y016851D01*
X009010Y016424D01*
X009655Y016958D02*
X010082Y016958D01*
X009868Y016958D02*
X009868Y016317D01*
X010299Y016424D02*
X010406Y016317D01*
X010620Y016317D01*
X010726Y016424D01*
X010726Y016851D01*
X010620Y016958D01*
X010406Y016958D01*
X010299Y016851D01*
X010299Y016424D01*
X010944Y016317D02*
X011157Y016531D01*
X011051Y016531D02*
X011371Y016531D01*
X011371Y016317D02*
X011371Y016958D01*
X011051Y016958D01*
X010944Y016851D01*
X010944Y016637D01*
X011051Y016531D01*
X011587Y016317D02*
X011801Y016317D01*
X011694Y016317D02*
X011694Y016958D01*
X011801Y016958D02*
X011587Y016958D01*
X012018Y016958D02*
X012445Y016958D01*
X012232Y016958D02*
X012232Y016317D01*
X012663Y016317D02*
X013090Y016317D01*
X013090Y016958D01*
X013307Y016958D02*
X013307Y016424D01*
X013414Y016317D01*
X013627Y016317D01*
X013734Y016424D01*
X013734Y016958D01*
X013952Y016958D02*
X013952Y016317D01*
X014379Y016317D02*
X014379Y016958D01*
X014165Y016744D01*
X013952Y016958D01*
X006859Y016958D02*
X006859Y016317D01*
X006432Y016317D02*
X006432Y016958D01*
X006214Y016958D02*
X005787Y016958D01*
X006001Y016958D02*
X006001Y016317D01*
X006432Y016317D02*
X006859Y016958D01*
X006410Y015738D02*
X006177Y015738D01*
X006060Y015621D01*
X006060Y015505D01*
X006177Y015388D01*
X006060Y015271D01*
X006060Y015154D01*
X006177Y015037D01*
X006177Y015388D02*
X006293Y015388D01*
X006527Y015621D02*
X006410Y015738D01*
X005570Y016317D02*
X005570Y016958D01*
X005250Y016958D01*
X005143Y016851D01*
X005143Y016637D01*
X005250Y016531D01*
X005570Y016531D01*
X005356Y016531D02*
X005143Y016317D01*
X004925Y016424D02*
X004819Y016317D01*
X004605Y016317D01*
X004498Y016424D01*
X004498Y016851D01*
X004605Y016958D01*
X004819Y016958D01*
X004925Y016851D01*
X004925Y016424D01*
X004281Y016317D02*
X003854Y016317D01*
X004281Y016317D02*
X004281Y016958D01*
D12*
X014500Y006907D02*
X014500Y006600D01*
X014577Y006524D01*
X014730Y006524D01*
X014807Y006600D01*
X014807Y006907D01*
X014730Y006984D01*
X014577Y006984D01*
X014500Y006907D01*
X014960Y006984D02*
X015114Y006984D01*
X015037Y006984D02*
X015037Y006524D01*
X015114Y006524D02*
X014960Y006524D01*
X015267Y006600D02*
X015267Y006907D01*
X015344Y006984D01*
X015574Y006984D01*
X015574Y006524D01*
X015344Y006524D01*
X015267Y006600D01*
X015728Y006524D02*
X015728Y006984D01*
X016035Y006984D02*
X016035Y006524D01*
X015881Y006677D01*
X015728Y006524D01*
X016188Y006600D02*
X016265Y006524D01*
X016418Y006524D01*
X016495Y006600D01*
X016418Y006754D02*
X016265Y006754D01*
X016188Y006677D01*
X016188Y006600D01*
X016418Y006754D02*
X016495Y006830D01*
X016495Y006907D01*
X016418Y006984D01*
X016265Y006984D01*
X016188Y006907D01*
X016265Y005015D02*
X016418Y005015D01*
X016495Y004939D01*
X016495Y004862D01*
X016418Y004785D01*
X016265Y004785D01*
X016188Y004709D01*
X016188Y004632D01*
X016265Y004555D01*
X016418Y004555D01*
X016495Y004632D01*
X016188Y004939D02*
X016265Y005015D01*
X016035Y005015D02*
X016035Y004555D01*
X015881Y004709D01*
X015728Y004555D01*
X015728Y005015D01*
X015574Y004939D02*
X015574Y004632D01*
X015498Y004555D01*
X015344Y004555D01*
X015267Y004632D01*
X015114Y004555D02*
X014807Y004555D01*
X014653Y004555D02*
X014653Y005015D01*
X014577Y004785D02*
X014347Y004555D01*
X014653Y004709D02*
X014347Y005015D01*
X015114Y005015D02*
X015114Y004555D01*
X015267Y004939D02*
X015344Y005015D01*
X015498Y005015D01*
X015574Y004939D01*
M02*
