%
M48
M72
T01C0.0157
T02C0.0354
T03C0.0360
T04C0.0400
T05C0.1260
%
T01
X2893Y1425
X3090Y3295
X1515Y3393
X3877Y5362
X4173Y6444
X5255Y5460
X5255Y4968
X5255Y4476
X5649Y3984
X5354Y3492
X7027Y4968
X7421Y4476
X7716Y3492
X8700Y4181
X8306Y6346
X9881Y7232
X11161Y5952
X12637Y4771
X12834Y4181
X12047Y4181
X11456Y3196
X12243Y3000
X13917Y3689
X14507Y3196
X14999Y3295
X14802Y4181
X14606Y5165
X13523Y5460
X12932Y5559
X14901Y6937
X15491Y7429
X16377Y7429
X16377Y4279
X17558Y3098
X11948Y7822
X12243Y9791
X14212Y11759
X13031Y12350
X12539Y11956
X11358Y12645
X11259Y13137
X9684Y12744
X9192Y13039
X8602Y12941
X8897Y12350
X9094Y11858
X9684Y12055
X8700Y10775
X8995Y9889
X9881Y9988
X9389Y8610
X7617Y9889
X7519Y10381
X6928Y11464
X7519Y12350
X8110Y12350
X7913Y13433
X9586Y13925
X11259Y14909
X11358Y15893
X11259Y16779
X9684Y16090
X7125Y15893
X5255Y16484
X4665Y14319
X4763Y13531
X5846Y12350
X4369Y11759
X4271Y9988
X5747Y8413
X5354Y7527
X4271Y7822
X6043Y5559
X2302Y13433
X2204Y17567
X1417Y17862
X13621Y16878
X14114Y15500
X13917Y14712
X14507Y14515
X16377Y16385
X17263Y17271
X16968Y18059
X16279Y18256
X15393Y18256
X14999Y18354
X14704Y20027
X18247Y20027
X18543Y18354
X19822Y18452
X16574Y15204
X16574Y14712
X16279Y11759
T02
X18476Y7067
X18476Y5334
T03
X1412Y5564
X1412Y4564
X1415Y15395
X1415Y16395
T04
X1417Y13881
X1417Y12881
X1417Y11881
X1417Y10881
X1417Y9881
X1417Y8881
X1417Y7881
X1417Y6881
X7390Y2417
X8390Y2417
X9390Y2417
X10390Y2417
X11390Y2417
X11390Y1417
X10390Y1417
X9390Y1417
X8390Y1417
X7390Y1417
X17838Y9488
X17838Y10488
X18838Y10488
X18838Y9488
X19838Y9488
X19838Y10488
X19838Y11555
X19838Y12555
X18838Y12555
X17838Y12555
X17838Y11555
X18838Y11555
X18830Y14689
X18830Y15689
X18830Y16689
X18830Y17689
X19830Y17689
X19830Y16689
X19830Y15689
X19830Y14689
X17574Y19035
X16574Y19035
X15574Y19035
X15574Y20035
X16574Y20035
X17574Y20035
X13622Y20043
X13622Y19043
X13622Y18043
X12243Y18043
X12243Y19043
X12243Y20043
X10866Y20043
X10866Y19043
X10866Y18043
X9388Y18043
X9388Y19043
X9388Y20043
X8011Y20043
X8011Y19043
X8011Y18043
X6633Y18044
X6633Y19044
X6633Y20044
X5255Y20043
X5255Y19043
X5255Y18043
X3877Y18042
X3877Y19042
X3877Y20042
T05
X1614Y1819
X1614Y19535
X19330Y19535
X19330Y1819
M30
