G75*
G70*
%OFA0B0*%
%FSLAX24Y24*%
%IPPOS*%
%LPD*%
%AMOC8*
5,1,8,0,0,1.08239X$1,22.5*
%
%ADD10C,0.0060*%
%ADD11C,0.0030*%
%ADD12C,0.0040*%
%ADD13C,0.0050*%
D10*
X001607Y005015D02*
X001501Y005122D01*
X001607Y005015D02*
X001821Y005015D01*
X001928Y005122D01*
X001928Y005335D01*
X001821Y005442D01*
X001714Y005442D01*
X001501Y005335D01*
X001501Y005656D01*
X001928Y005656D01*
X002145Y005656D02*
X002145Y005229D01*
X002359Y005015D01*
X002572Y005229D01*
X002572Y005656D01*
X001283Y005335D02*
X000856Y005335D01*
X001069Y005549D02*
X001069Y005122D01*
X008522Y009247D02*
X008522Y009568D01*
X008628Y009674D01*
X008735Y009674D01*
X008842Y009568D01*
X008842Y009247D01*
X009162Y009247D02*
X008522Y009247D01*
X008842Y009568D02*
X008949Y009674D01*
X009055Y009674D01*
X009162Y009568D01*
X009162Y009247D01*
X009162Y009892D02*
X008735Y009892D01*
X008522Y010105D01*
X008735Y010319D01*
X009162Y010319D01*
X008842Y010319D02*
X008842Y009892D01*
X008522Y010536D02*
X008522Y010963D01*
X008522Y010750D02*
X009162Y010750D01*
X009162Y011181D02*
X009162Y011608D01*
X009162Y011826D02*
X008522Y011826D01*
X008522Y012146D01*
X008628Y012253D01*
X008842Y012253D01*
X008949Y012146D01*
X008949Y011826D01*
X008949Y012039D02*
X009162Y012253D01*
X009162Y012684D02*
X008842Y012684D01*
X008628Y012897D01*
X008522Y012897D01*
X008842Y012684D02*
X008628Y012470D01*
X008522Y012470D01*
X008522Y011608D02*
X008522Y011181D01*
X009162Y011181D01*
X008842Y011181D02*
X008842Y011394D01*
X008784Y014267D02*
X008784Y014908D01*
X009104Y014908D01*
X009211Y014801D01*
X009211Y014587D01*
X009104Y014481D01*
X008784Y014481D01*
X008566Y014374D02*
X008566Y014587D01*
X008353Y014587D01*
X008566Y014374D02*
X008460Y014267D01*
X008246Y014267D01*
X008139Y014374D01*
X008139Y014801D01*
X008246Y014908D01*
X008460Y014908D01*
X008566Y014801D01*
X008516Y015350D02*
X008730Y015350D01*
X008623Y015350D02*
X008623Y015777D01*
X008516Y015777D01*
X008300Y015777D02*
X008087Y015777D01*
X008193Y015883D02*
X008193Y015456D01*
X008300Y015350D01*
X007870Y015350D02*
X007657Y015350D01*
X007764Y015350D02*
X007764Y015990D01*
X007657Y015990D01*
X007439Y015777D02*
X007439Y015350D01*
X007119Y015350D01*
X007012Y015456D01*
X007012Y015777D01*
X006795Y015990D02*
X006795Y015350D01*
X006368Y015350D02*
X006368Y015990D01*
X006581Y015777D01*
X006795Y015990D01*
X008623Y015990D02*
X008623Y016097D01*
X008946Y015777D02*
X008946Y015350D01*
X008946Y015563D02*
X009159Y015777D01*
X009266Y015777D01*
X009483Y015670D02*
X009483Y015456D01*
X009590Y015350D01*
X009803Y015350D01*
X009910Y015456D01*
X009910Y015670D01*
X009803Y015777D01*
X009590Y015777D01*
X009483Y015670D01*
X010128Y015777D02*
X010341Y015777D01*
X010234Y015883D02*
X010234Y015456D01*
X010341Y015350D01*
X010557Y015456D02*
X010557Y015670D01*
X010664Y015777D01*
X010878Y015777D01*
X010984Y015670D01*
X010984Y015456D01*
X010878Y015350D01*
X010664Y015350D01*
X010557Y015456D01*
X010718Y014908D02*
X010931Y014694D01*
X011145Y014908D01*
X011145Y014267D01*
X011362Y014374D02*
X011469Y014267D01*
X011682Y014267D01*
X011789Y014374D01*
X011789Y014801D01*
X011682Y014908D01*
X011469Y014908D01*
X011362Y014801D01*
X011362Y014374D01*
X010718Y014267D02*
X010718Y014908D01*
X011202Y015350D02*
X011202Y015777D01*
X011415Y015777D02*
X011202Y015563D01*
X011415Y015777D02*
X011522Y015777D01*
X011739Y015670D02*
X011739Y015456D01*
X011846Y015350D01*
X012166Y015350D01*
X012384Y015456D02*
X012384Y015670D01*
X012490Y015777D01*
X012704Y015777D01*
X012811Y015670D01*
X012811Y015456D01*
X012704Y015350D01*
X012490Y015350D01*
X012384Y015456D01*
X012166Y015777D02*
X011846Y015777D01*
X011739Y015670D01*
X012007Y014908D02*
X012327Y014908D01*
X012434Y014801D01*
X012434Y014374D01*
X012327Y014267D01*
X012007Y014267D01*
X012007Y014908D01*
X012651Y014908D02*
X012651Y014374D01*
X012758Y014267D01*
X012972Y014267D01*
X013078Y014374D01*
X013078Y014908D01*
X013296Y014908D02*
X013296Y014267D01*
X013723Y014267D01*
X013940Y014267D02*
X014367Y014267D01*
X014154Y014587D02*
X013940Y014587D01*
X013940Y014267D02*
X013940Y014908D01*
X014367Y014908D01*
X014102Y015350D02*
X014102Y015777D01*
X014102Y015563D02*
X014316Y015777D01*
X014423Y015777D01*
X014639Y015670D02*
X014639Y015456D01*
X014746Y015350D01*
X014960Y015350D01*
X015067Y015456D01*
X015067Y015670D01*
X014960Y015777D01*
X014746Y015777D01*
X014639Y015670D01*
X015284Y015990D02*
X015391Y015990D01*
X015391Y015350D01*
X015284Y015350D02*
X015498Y015350D01*
X013886Y015350D02*
X013779Y015456D01*
X013779Y015883D01*
X013673Y015777D02*
X013886Y015777D01*
X013455Y015670D02*
X013455Y015350D01*
X013455Y015670D02*
X013348Y015777D01*
X013028Y015777D01*
X013028Y015350D01*
X009856Y014801D02*
X009749Y014908D01*
X009535Y014908D01*
X009429Y014801D01*
X009429Y014694D01*
X009535Y014587D01*
X009749Y014587D01*
X009856Y014481D01*
X009856Y014374D01*
X009749Y014267D01*
X009535Y014267D01*
X009429Y014374D01*
D11*
X003180Y013668D02*
X003180Y013422D01*
X003118Y013360D01*
X002933Y013360D01*
X002933Y013730D01*
X003118Y013730D01*
X003180Y013668D01*
X002812Y013730D02*
X002812Y013360D01*
X002565Y013730D01*
X002565Y013360D01*
X002444Y013422D02*
X002444Y013545D01*
X002320Y013545D01*
X002197Y013422D02*
X002258Y013360D01*
X002382Y013360D01*
X002444Y013422D01*
X002444Y013668D02*
X002382Y013730D01*
X002258Y013730D01*
X002197Y013668D01*
X002197Y013422D01*
X017199Y007059D02*
X017247Y007107D01*
X017441Y006914D01*
X017489Y006962D01*
X017489Y007059D01*
X017441Y007107D01*
X017247Y007107D01*
X017199Y007059D02*
X017199Y006962D01*
X017247Y006914D01*
X017441Y006914D01*
X017489Y006812D02*
X017489Y006619D01*
X017295Y006812D01*
X017247Y006812D01*
X017199Y006764D01*
X017199Y006667D01*
X017247Y006619D01*
X017247Y006518D02*
X017344Y006518D01*
X017392Y006469D01*
X017392Y006324D01*
X017489Y006324D02*
X017199Y006324D01*
X017199Y006469D01*
X017247Y006518D01*
X017392Y006421D02*
X017489Y006518D01*
X017587Y005337D02*
X017587Y005143D01*
X017587Y005240D02*
X017297Y005240D01*
X017393Y005143D01*
X017345Y005042D02*
X017442Y005042D01*
X017490Y004994D01*
X017490Y004849D01*
X017490Y004945D02*
X017587Y005042D01*
X017587Y004849D02*
X017297Y004849D01*
X017297Y004994D01*
X017345Y005042D01*
X017393Y003959D02*
X017345Y003910D01*
X017345Y003765D01*
X017441Y003765D01*
X017490Y003814D01*
X017490Y003910D01*
X017441Y003959D01*
X017393Y003959D01*
X017248Y003862D02*
X017345Y003765D01*
X017345Y003664D02*
X017393Y003616D01*
X017393Y003471D01*
X017393Y003567D02*
X017490Y003664D01*
X017345Y003664D02*
X017248Y003664D01*
X017200Y003616D01*
X017200Y003471D01*
X017490Y003471D01*
X017248Y003862D02*
X017200Y003959D01*
X018844Y004168D02*
X019037Y004168D01*
X019138Y004168D02*
X019332Y004168D01*
X019433Y004168D02*
X019578Y004168D01*
X019627Y004216D01*
X019627Y004410D01*
X019578Y004458D01*
X019433Y004458D01*
X019433Y004168D01*
X019235Y004313D02*
X019138Y004313D01*
X019138Y004458D02*
X019138Y004168D01*
X019138Y004458D02*
X019332Y004458D01*
X019728Y004410D02*
X019776Y004458D01*
X019873Y004458D01*
X019921Y004410D01*
X019921Y004362D01*
X019873Y004313D01*
X019921Y004265D01*
X019921Y004216D01*
X019873Y004168D01*
X019776Y004168D01*
X019728Y004216D01*
X019824Y004313D02*
X019873Y004313D01*
X018844Y004458D02*
X018844Y004168D01*
X019171Y003184D02*
X019123Y003136D01*
X019123Y002942D01*
X019171Y002894D01*
X019268Y002894D01*
X019316Y002942D01*
X019417Y002942D02*
X019466Y002894D01*
X019562Y002894D01*
X019611Y002942D01*
X019611Y002990D01*
X019562Y003039D01*
X019417Y003039D01*
X019417Y002942D01*
X019417Y003039D02*
X019514Y003136D01*
X019611Y003184D01*
X019316Y003136D02*
X019268Y003184D01*
X019171Y003184D01*
X019142Y005547D02*
X019335Y005547D01*
X019437Y005547D02*
X019582Y005547D01*
X019630Y005595D01*
X019630Y005789D01*
X019582Y005837D01*
X019437Y005837D01*
X019437Y005547D01*
X019239Y005692D02*
X019142Y005692D01*
X019142Y005837D02*
X019142Y005547D01*
X019041Y005547D02*
X018847Y005547D01*
X018847Y005837D01*
X019142Y005837D02*
X019335Y005837D01*
X019731Y005789D02*
X019780Y005837D01*
X019876Y005837D01*
X019925Y005789D01*
X019925Y005740D01*
X019731Y005547D01*
X019925Y005547D01*
X019923Y006826D02*
X019923Y007116D01*
X019827Y007019D01*
X019726Y007067D02*
X019726Y006874D01*
X019677Y006826D01*
X019532Y006826D01*
X019532Y007116D01*
X019677Y007116D01*
X019726Y007067D01*
X019827Y006826D02*
X020020Y006826D01*
X019431Y006826D02*
X019237Y006826D01*
X019237Y007116D01*
X019431Y007116D01*
X019334Y006971D02*
X019237Y006971D01*
X019136Y006826D02*
X018943Y006826D01*
X018943Y007116D01*
X019177Y007421D02*
X019274Y007421D01*
X019322Y007469D01*
X019423Y007421D02*
X019617Y007421D01*
X019520Y007421D02*
X019520Y007711D01*
X019423Y007614D01*
X019322Y007663D02*
X019274Y007711D01*
X019177Y007711D01*
X019129Y007663D01*
X019129Y007469D01*
X019177Y007421D01*
X019718Y007469D02*
X019718Y007518D01*
X019766Y007566D01*
X019863Y007566D01*
X019911Y007518D01*
X019911Y007469D01*
X019863Y007421D01*
X019766Y007421D01*
X019718Y007469D01*
X019766Y007566D02*
X019718Y007614D01*
X019718Y007663D01*
X019766Y007711D01*
X019863Y007711D01*
X019911Y007663D01*
X019911Y007614D01*
X019863Y007566D01*
D12*
X015223Y010547D02*
X014916Y010547D01*
X015070Y010547D02*
X015070Y011008D01*
X014916Y010854D01*
X014763Y010931D02*
X014763Y010624D01*
X014686Y010547D01*
X014456Y010547D01*
X014456Y011008D01*
X014686Y011008D01*
X014763Y010931D01*
X013511Y009004D02*
X013358Y009004D01*
X013281Y008927D01*
X013281Y008850D01*
X013358Y008773D01*
X013511Y008773D01*
X013588Y008697D01*
X013588Y008620D01*
X013511Y008543D01*
X013358Y008543D01*
X013281Y008620D01*
X013128Y008773D02*
X013128Y008927D01*
X013051Y009004D01*
X012821Y009004D01*
X012821Y008543D01*
X012821Y008697D02*
X013051Y008697D01*
X013128Y008773D01*
X013511Y009004D02*
X013588Y008927D01*
X012667Y008927D02*
X012590Y009004D01*
X012437Y009004D01*
X012360Y008927D01*
X012360Y008620D01*
X012437Y008543D01*
X012590Y008543D01*
X012667Y008620D01*
X012667Y008773D01*
X012514Y008773D01*
X009330Y007371D02*
X009330Y007141D01*
X008870Y007141D01*
X008870Y007371D01*
X008947Y007448D01*
X009254Y007448D01*
X009330Y007371D01*
X009254Y006988D02*
X009330Y006911D01*
X009330Y006757D01*
X009254Y006681D01*
X009254Y006527D02*
X008947Y006527D01*
X008870Y006450D01*
X008870Y006297D01*
X008947Y006220D01*
X009254Y006220D01*
X009330Y006297D01*
X009330Y006450D01*
X009254Y006527D01*
X009100Y006757D02*
X009100Y006911D01*
X009177Y006988D01*
X009254Y006988D01*
X009100Y006757D02*
X009023Y006681D01*
X008947Y006681D01*
X008870Y006757D01*
X008870Y006911D01*
X008947Y006988D01*
X008947Y006067D02*
X009100Y006067D01*
X009177Y005990D01*
X009177Y005760D01*
X009330Y005760D02*
X008870Y005760D01*
X008870Y005990D01*
X008947Y006067D01*
X009177Y005913D02*
X009330Y006067D01*
X009254Y005606D02*
X009330Y005530D01*
X009330Y005376D01*
X009254Y005299D01*
X008947Y005299D01*
X008870Y005376D01*
X008870Y005530D01*
X008947Y005606D01*
X008870Y005146D02*
X008870Y004993D01*
X008870Y005069D02*
X009330Y005069D01*
X009330Y004993D02*
X009330Y005146D01*
X009330Y004839D02*
X008870Y004839D01*
X009023Y004686D01*
X008870Y004532D01*
X009330Y004532D01*
X003896Y009078D02*
X003589Y009078D01*
X003896Y009385D01*
X003896Y009462D01*
X003819Y009539D01*
X003665Y009539D01*
X003589Y009462D01*
X003435Y009462D02*
X003435Y009308D01*
X003358Y009232D01*
X003128Y009232D01*
X003282Y009232D02*
X003435Y009078D01*
X003128Y009078D02*
X003128Y009539D01*
X003358Y009539D01*
X003435Y009462D01*
X003393Y015894D02*
X003086Y015894D01*
X003239Y015894D02*
X003239Y016354D01*
X003086Y016201D01*
X002932Y016354D02*
X002625Y016354D01*
X002472Y016354D02*
X002472Y016047D01*
X002318Y015894D01*
X002165Y016047D01*
X002165Y016354D01*
X002779Y016354D02*
X002779Y015894D01*
D13*
X005792Y013910D02*
X005792Y013460D01*
X006018Y013460D01*
X006093Y013535D01*
X006093Y013610D01*
X006018Y013685D01*
X005792Y013685D01*
X005792Y013910D02*
X006018Y013910D01*
X006093Y013835D01*
X006093Y013760D01*
X006018Y013685D01*
X006253Y013535D02*
X006328Y013460D01*
X006478Y013460D01*
X006553Y013535D01*
X006553Y013910D01*
X006713Y013910D02*
X007013Y013910D01*
X007013Y013835D01*
X006713Y013535D01*
X006713Y013460D01*
X007013Y013460D01*
X007174Y013460D02*
X007474Y013460D01*
X007634Y013460D02*
X007934Y013460D01*
X008094Y013460D02*
X008094Y013910D01*
X008320Y013910D01*
X008395Y013835D01*
X008395Y013685D01*
X008320Y013610D01*
X008094Y013610D01*
X008245Y013610D02*
X008395Y013460D01*
X007934Y013910D02*
X007634Y013910D01*
X007634Y013460D01*
X007634Y013685D02*
X007784Y013685D01*
X007474Y013835D02*
X007174Y013535D01*
X007174Y013460D01*
X007174Y013910D02*
X007474Y013910D01*
X007474Y013835D01*
X006253Y013910D02*
X006253Y013535D01*
X016871Y017411D02*
X016946Y017336D01*
X017096Y017336D01*
X017171Y017411D01*
X017171Y017486D01*
X017096Y017561D01*
X016946Y017561D01*
X016871Y017636D01*
X016871Y017711D01*
X016946Y017786D01*
X017096Y017786D01*
X017171Y017711D01*
X017332Y017786D02*
X017557Y017786D01*
X017632Y017711D01*
X017632Y017561D01*
X017557Y017486D01*
X017332Y017486D01*
X017332Y017336D02*
X017332Y017786D01*
X017792Y017786D02*
X017942Y017786D01*
X017867Y017786D02*
X017867Y017336D01*
X017792Y017336D02*
X017942Y017336D01*
X017552Y016200D02*
X017552Y015900D01*
X017552Y016050D02*
X018002Y016050D01*
X018002Y015740D02*
X017852Y015590D01*
X017852Y015665D02*
X017852Y015440D01*
X018002Y015440D02*
X017552Y015440D01*
X017552Y015665D01*
X017627Y015740D01*
X017777Y015740D01*
X017852Y015665D01*
X017777Y015280D02*
X017777Y014979D01*
X017702Y014979D02*
X017552Y015130D01*
X017702Y015280D01*
X018002Y015280D01*
X018002Y014979D02*
X017702Y014979D01*
X017552Y014819D02*
X017927Y014819D01*
X018002Y014744D01*
X018002Y014594D01*
X017927Y014519D01*
X017552Y014519D01*
M02*
