%
M48
M72
T01C0.0236
T02C0.0315
T03C0.0400
T04C0.1260
T05C0.2520
%
T01
X2105Y2918
X6338Y1146
X6535Y2918
X6928Y5871
X8306Y6265
X9389Y6265
X10078Y5083
X10078Y3607
X9684Y2426
X10078Y1146
X12145Y1146
X15688Y1146
X17657Y1146
X19527Y2918
X19527Y4394
X19527Y5871
X19527Y7150
X17558Y4394
X14310Y8036
X15491Y8233
X14901Y10202
X15787Y11087
X14802Y12957
X13228Y12269
X13917Y15713
X16968Y16698
X17854Y14335
X12539Y8233
X9291Y9709
X7125Y10202
X7125Y9020
X6141Y9217
X4566Y9119
X3188Y8233
X2893Y10103
X2893Y12170
X3483Y13154
X5550Y15615
X7027Y14631
X7125Y12957
X9487Y12465
X1613Y16599
T02
X11456Y12662
X11456Y9512
T03
X4565Y11261
X4565Y14261
X1417Y13308
X1417Y12308
X1417Y11308
X1417Y10308
X1417Y9308
X1417Y8308
X1417Y7308
X1417Y6308
X15574Y18461
X16574Y18461
X17574Y18461
X17574Y19461
X16574Y19461
X15574Y19461
X18830Y17115
X18830Y16115
X18830Y15115
X18830Y14115
X19830Y14115
X19830Y15115
X19830Y16115
X19830Y17115
T04
X1613Y1245
X19330Y1245
X19330Y18961
X1613Y18961
T05
X14015Y4099
M30
