G75*
G70*
%OFA0B0*%
%FSLAX24Y24*%
%IPPOS*%
%LPD*%
%AMOC8*
5,1,8,0,0,1.08239X$1,22.5*
%
%ADD10C,0.0000*%
%ADD11R,0.0413X0.0425*%
%ADD12R,0.0315X0.0315*%
%ADD13R,0.0394X0.0551*%
%ADD14R,0.0394X0.0433*%
%ADD15C,0.0600*%
%ADD16OC8,0.0600*%
%ADD17C,0.0600*%
%ADD18C,0.0472*%
%ADD19R,0.0394X0.0984*%
%ADD20R,0.0276X0.0492*%
%ADD21R,0.0394X0.0492*%
%ADD22R,0.0591X0.0787*%
%ADD23R,0.0591X0.1181*%
%ADD24R,0.0394X0.0472*%
%ADD25OC8,0.0850*%
%ADD26R,0.0551X0.0394*%
%ADD27R,0.0433X0.0394*%
%ADD28C,0.0160*%
%ADD29C,0.0376*%
%ADD30C,0.0157*%
%ADD31C,0.0118*%
D10*
X000629Y001245D02*
X000629Y018961D01*
X000983Y018961D02*
X000985Y019011D01*
X000991Y019061D01*
X001001Y019110D01*
X001015Y019158D01*
X001032Y019205D01*
X001053Y019250D01*
X001078Y019294D01*
X001106Y019335D01*
X001138Y019374D01*
X001172Y019411D01*
X001209Y019445D01*
X001249Y019475D01*
X001291Y019502D01*
X001335Y019526D01*
X001381Y019547D01*
X001428Y019563D01*
X001476Y019576D01*
X001526Y019585D01*
X001575Y019590D01*
X001626Y019591D01*
X001676Y019588D01*
X001725Y019581D01*
X001774Y019570D01*
X001822Y019555D01*
X001868Y019537D01*
X001913Y019515D01*
X001956Y019489D01*
X001997Y019460D01*
X002036Y019428D01*
X002072Y019393D01*
X002104Y019355D01*
X002134Y019315D01*
X002161Y019272D01*
X002184Y019228D01*
X002203Y019182D01*
X002219Y019134D01*
X002231Y019085D01*
X002239Y019036D01*
X002243Y018986D01*
X002243Y018936D01*
X002239Y018886D01*
X002231Y018837D01*
X002219Y018788D01*
X002203Y018740D01*
X002184Y018694D01*
X002161Y018650D01*
X002134Y018607D01*
X002104Y018567D01*
X002072Y018529D01*
X002036Y018494D01*
X001997Y018462D01*
X001956Y018433D01*
X001913Y018407D01*
X001868Y018385D01*
X001822Y018367D01*
X001774Y018352D01*
X001725Y018341D01*
X001676Y018334D01*
X001626Y018331D01*
X001575Y018332D01*
X001526Y018337D01*
X001476Y018346D01*
X001428Y018359D01*
X001381Y018375D01*
X001335Y018396D01*
X001291Y018420D01*
X001249Y018447D01*
X001209Y018477D01*
X001172Y018511D01*
X001138Y018548D01*
X001106Y018587D01*
X001078Y018628D01*
X001053Y018672D01*
X001032Y018717D01*
X001015Y018764D01*
X001001Y018812D01*
X000991Y018861D01*
X000985Y018911D01*
X000983Y018961D01*
X000629Y018961D02*
X000631Y019023D01*
X000637Y019084D01*
X000646Y019145D01*
X000660Y019206D01*
X000677Y019265D01*
X000698Y019323D01*
X000723Y019380D01*
X000751Y019435D01*
X000782Y019488D01*
X000817Y019539D01*
X000855Y019588D01*
X000896Y019635D01*
X000939Y019678D01*
X000986Y019719D01*
X001035Y019757D01*
X001086Y019792D01*
X001139Y019823D01*
X001194Y019851D01*
X001251Y019876D01*
X001309Y019897D01*
X001368Y019914D01*
X001429Y019928D01*
X001490Y019937D01*
X001551Y019943D01*
X001613Y019945D01*
X001613Y019946D02*
X002893Y019946D01*
X002893Y016796D01*
X014704Y016796D01*
X014704Y019946D01*
X019330Y019946D01*
X018700Y018961D02*
X018702Y019011D01*
X018708Y019061D01*
X018718Y019110D01*
X018732Y019158D01*
X018749Y019205D01*
X018770Y019250D01*
X018795Y019294D01*
X018823Y019335D01*
X018855Y019374D01*
X018889Y019411D01*
X018926Y019445D01*
X018966Y019475D01*
X019008Y019502D01*
X019052Y019526D01*
X019098Y019547D01*
X019145Y019563D01*
X019193Y019576D01*
X019243Y019585D01*
X019292Y019590D01*
X019343Y019591D01*
X019393Y019588D01*
X019442Y019581D01*
X019491Y019570D01*
X019539Y019555D01*
X019585Y019537D01*
X019630Y019515D01*
X019673Y019489D01*
X019714Y019460D01*
X019753Y019428D01*
X019789Y019393D01*
X019821Y019355D01*
X019851Y019315D01*
X019878Y019272D01*
X019901Y019228D01*
X019920Y019182D01*
X019936Y019134D01*
X019948Y019085D01*
X019956Y019036D01*
X019960Y018986D01*
X019960Y018936D01*
X019956Y018886D01*
X019948Y018837D01*
X019936Y018788D01*
X019920Y018740D01*
X019901Y018694D01*
X019878Y018650D01*
X019851Y018607D01*
X019821Y018567D01*
X019789Y018529D01*
X019753Y018494D01*
X019714Y018462D01*
X019673Y018433D01*
X019630Y018407D01*
X019585Y018385D01*
X019539Y018367D01*
X019491Y018352D01*
X019442Y018341D01*
X019393Y018334D01*
X019343Y018331D01*
X019292Y018332D01*
X019243Y018337D01*
X019193Y018346D01*
X019145Y018359D01*
X019098Y018375D01*
X019052Y018396D01*
X019008Y018420D01*
X018966Y018447D01*
X018926Y018477D01*
X018889Y018511D01*
X018855Y018548D01*
X018823Y018587D01*
X018795Y018628D01*
X018770Y018672D01*
X018749Y018717D01*
X018732Y018764D01*
X018718Y018812D01*
X018708Y018861D01*
X018702Y018911D01*
X018700Y018961D01*
X019330Y019945D02*
X019392Y019943D01*
X019453Y019937D01*
X019514Y019928D01*
X019575Y019914D01*
X019634Y019897D01*
X019692Y019876D01*
X019749Y019851D01*
X019804Y019823D01*
X019857Y019792D01*
X019908Y019757D01*
X019957Y019719D01*
X020004Y019678D01*
X020047Y019635D01*
X020088Y019588D01*
X020126Y019539D01*
X020161Y019488D01*
X020192Y019435D01*
X020220Y019380D01*
X020245Y019323D01*
X020266Y019265D01*
X020283Y019206D01*
X020297Y019145D01*
X020306Y019084D01*
X020312Y019023D01*
X020314Y018961D01*
X020314Y012761D01*
X016869Y012761D01*
X016869Y007938D01*
X020314Y007938D01*
X020314Y001245D01*
X018700Y001245D02*
X018702Y001295D01*
X018708Y001345D01*
X018718Y001394D01*
X018732Y001442D01*
X018749Y001489D01*
X018770Y001534D01*
X018795Y001578D01*
X018823Y001619D01*
X018855Y001658D01*
X018889Y001695D01*
X018926Y001729D01*
X018966Y001759D01*
X019008Y001786D01*
X019052Y001810D01*
X019098Y001831D01*
X019145Y001847D01*
X019193Y001860D01*
X019243Y001869D01*
X019292Y001874D01*
X019343Y001875D01*
X019393Y001872D01*
X019442Y001865D01*
X019491Y001854D01*
X019539Y001839D01*
X019585Y001821D01*
X019630Y001799D01*
X019673Y001773D01*
X019714Y001744D01*
X019753Y001712D01*
X019789Y001677D01*
X019821Y001639D01*
X019851Y001599D01*
X019878Y001556D01*
X019901Y001512D01*
X019920Y001466D01*
X019936Y001418D01*
X019948Y001369D01*
X019956Y001320D01*
X019960Y001270D01*
X019960Y001220D01*
X019956Y001170D01*
X019948Y001121D01*
X019936Y001072D01*
X019920Y001024D01*
X019901Y000978D01*
X019878Y000934D01*
X019851Y000891D01*
X019821Y000851D01*
X019789Y000813D01*
X019753Y000778D01*
X019714Y000746D01*
X019673Y000717D01*
X019630Y000691D01*
X019585Y000669D01*
X019539Y000651D01*
X019491Y000636D01*
X019442Y000625D01*
X019393Y000618D01*
X019343Y000615D01*
X019292Y000616D01*
X019243Y000621D01*
X019193Y000630D01*
X019145Y000643D01*
X019098Y000659D01*
X019052Y000680D01*
X019008Y000704D01*
X018966Y000731D01*
X018926Y000761D01*
X018889Y000795D01*
X018855Y000832D01*
X018823Y000871D01*
X018795Y000912D01*
X018770Y000956D01*
X018749Y001001D01*
X018732Y001048D01*
X018718Y001096D01*
X018708Y001145D01*
X018702Y001195D01*
X018700Y001245D01*
X019330Y000261D02*
X019392Y000263D01*
X019453Y000269D01*
X019514Y000278D01*
X019575Y000292D01*
X019634Y000309D01*
X019692Y000330D01*
X019749Y000355D01*
X019804Y000383D01*
X019857Y000414D01*
X019908Y000449D01*
X019957Y000487D01*
X020004Y000528D01*
X020047Y000571D01*
X020088Y000618D01*
X020126Y000667D01*
X020161Y000718D01*
X020192Y000771D01*
X020220Y000826D01*
X020245Y000883D01*
X020266Y000941D01*
X020283Y001000D01*
X020297Y001061D01*
X020306Y001122D01*
X020312Y001183D01*
X020314Y001245D01*
X019330Y000261D02*
X001613Y000261D01*
X000983Y001245D02*
X000985Y001295D01*
X000991Y001345D01*
X001001Y001394D01*
X001015Y001442D01*
X001032Y001489D01*
X001053Y001534D01*
X001078Y001578D01*
X001106Y001619D01*
X001138Y001658D01*
X001172Y001695D01*
X001209Y001729D01*
X001249Y001759D01*
X001291Y001786D01*
X001335Y001810D01*
X001381Y001831D01*
X001428Y001847D01*
X001476Y001860D01*
X001526Y001869D01*
X001575Y001874D01*
X001626Y001875D01*
X001676Y001872D01*
X001725Y001865D01*
X001774Y001854D01*
X001822Y001839D01*
X001868Y001821D01*
X001913Y001799D01*
X001956Y001773D01*
X001997Y001744D01*
X002036Y001712D01*
X002072Y001677D01*
X002104Y001639D01*
X002134Y001599D01*
X002161Y001556D01*
X002184Y001512D01*
X002203Y001466D01*
X002219Y001418D01*
X002231Y001369D01*
X002239Y001320D01*
X002243Y001270D01*
X002243Y001220D01*
X002239Y001170D01*
X002231Y001121D01*
X002219Y001072D01*
X002203Y001024D01*
X002184Y000978D01*
X002161Y000934D01*
X002134Y000891D01*
X002104Y000851D01*
X002072Y000813D01*
X002036Y000778D01*
X001997Y000746D01*
X001956Y000717D01*
X001913Y000691D01*
X001868Y000669D01*
X001822Y000651D01*
X001774Y000636D01*
X001725Y000625D01*
X001676Y000618D01*
X001626Y000615D01*
X001575Y000616D01*
X001526Y000621D01*
X001476Y000630D01*
X001428Y000643D01*
X001381Y000659D01*
X001335Y000680D01*
X001291Y000704D01*
X001249Y000731D01*
X001209Y000761D01*
X001172Y000795D01*
X001138Y000832D01*
X001106Y000871D01*
X001078Y000912D01*
X001053Y000956D01*
X001032Y001001D01*
X001015Y001048D01*
X001001Y001096D01*
X000991Y001145D01*
X000985Y001195D01*
X000983Y001245D01*
X000629Y001245D02*
X000631Y001183D01*
X000637Y001122D01*
X000646Y001061D01*
X000660Y001000D01*
X000677Y000941D01*
X000698Y000883D01*
X000723Y000826D01*
X000751Y000771D01*
X000782Y000718D01*
X000817Y000667D01*
X000855Y000618D01*
X000896Y000571D01*
X000939Y000528D01*
X000986Y000487D01*
X001035Y000449D01*
X001086Y000414D01*
X001139Y000383D01*
X001194Y000355D01*
X001251Y000330D01*
X001309Y000309D01*
X001368Y000292D01*
X001429Y000278D01*
X001490Y000269D01*
X001551Y000263D01*
X001613Y000261D01*
X012755Y004099D02*
X012757Y004170D01*
X012763Y004240D01*
X012773Y004310D01*
X012787Y004379D01*
X012804Y004448D01*
X012826Y004515D01*
X012851Y004581D01*
X012880Y004646D01*
X012912Y004708D01*
X012948Y004769D01*
X012987Y004828D01*
X013030Y004885D01*
X013075Y004939D01*
X013124Y004990D01*
X013175Y005039D01*
X013229Y005084D01*
X013286Y005127D01*
X013345Y005166D01*
X013406Y005202D01*
X013468Y005234D01*
X013533Y005263D01*
X013599Y005288D01*
X013666Y005310D01*
X013735Y005327D01*
X013804Y005341D01*
X013874Y005351D01*
X013944Y005357D01*
X014015Y005359D01*
X014086Y005357D01*
X014156Y005351D01*
X014226Y005341D01*
X014295Y005327D01*
X014364Y005310D01*
X014431Y005288D01*
X014497Y005263D01*
X014562Y005234D01*
X014624Y005202D01*
X014685Y005166D01*
X014744Y005127D01*
X014801Y005084D01*
X014855Y005039D01*
X014906Y004990D01*
X014955Y004939D01*
X015000Y004885D01*
X015043Y004828D01*
X015082Y004769D01*
X015118Y004708D01*
X015150Y004646D01*
X015179Y004581D01*
X015204Y004515D01*
X015226Y004448D01*
X015243Y004379D01*
X015257Y004310D01*
X015267Y004240D01*
X015273Y004170D01*
X015275Y004099D01*
X015273Y004028D01*
X015267Y003958D01*
X015257Y003888D01*
X015243Y003819D01*
X015226Y003750D01*
X015204Y003683D01*
X015179Y003617D01*
X015150Y003552D01*
X015118Y003490D01*
X015082Y003429D01*
X015043Y003370D01*
X015000Y003313D01*
X014955Y003259D01*
X014906Y003208D01*
X014855Y003159D01*
X014801Y003114D01*
X014744Y003071D01*
X014685Y003032D01*
X014624Y002996D01*
X014562Y002964D01*
X014497Y002935D01*
X014431Y002910D01*
X014364Y002888D01*
X014295Y002871D01*
X014226Y002857D01*
X014156Y002847D01*
X014086Y002841D01*
X014015Y002839D01*
X013944Y002841D01*
X013874Y002847D01*
X013804Y002857D01*
X013735Y002871D01*
X013666Y002888D01*
X013599Y002910D01*
X013533Y002935D01*
X013468Y002964D01*
X013406Y002996D01*
X013345Y003032D01*
X013286Y003071D01*
X013229Y003114D01*
X013175Y003159D01*
X013124Y003208D01*
X013075Y003259D01*
X013030Y003313D01*
X012987Y003370D01*
X012948Y003429D01*
X012912Y003490D01*
X012880Y003552D01*
X012851Y003617D01*
X012826Y003683D01*
X012804Y003750D01*
X012787Y003819D01*
X012773Y003888D01*
X012763Y003958D01*
X012757Y004028D01*
X012755Y004099D01*
D11*
X017897Y003017D03*
X018586Y003017D03*
X018592Y007248D03*
X017903Y007248D03*
D12*
X019132Y006462D03*
X019723Y006462D03*
X019726Y005085D03*
X019135Y005085D03*
X019132Y003706D03*
X019722Y003706D03*
D13*
X014902Y008588D03*
X015276Y009454D03*
X014528Y009454D03*
D14*
X017914Y006461D03*
X018583Y006461D03*
X018584Y005083D03*
X017914Y005083D03*
X017914Y003704D03*
X018584Y003704D03*
D15*
X017574Y019461D03*
D16*
X016574Y019461D03*
X016574Y018461D03*
X017574Y018461D03*
X018830Y017115D03*
X018830Y016115D03*
X018830Y015115D03*
X018830Y014115D03*
X019830Y014115D03*
X019830Y015115D03*
X019830Y016115D03*
X019830Y017115D03*
X015574Y018461D03*
X015574Y019461D03*
D17*
X001717Y013308D02*
X001117Y013308D01*
X001117Y012308D02*
X001717Y012308D01*
X001717Y011308D02*
X001117Y011308D01*
X001117Y010308D02*
X001717Y010308D01*
X001717Y009308D02*
X001117Y009308D01*
X001117Y008308D02*
X001717Y008308D01*
X001717Y007308D02*
X001117Y007308D01*
X001117Y006308D02*
X001717Y006308D01*
D18*
X011456Y009512D03*
X011456Y012662D03*
D19*
X011352Y007053D03*
X011943Y007053D03*
X012533Y007053D03*
X013124Y007053D03*
X013714Y007053D03*
X014305Y007053D03*
X014896Y007053D03*
X015486Y007053D03*
X016077Y007053D03*
X016667Y007053D03*
X016667Y000951D03*
X011352Y000951D03*
D20*
X007164Y007228D03*
X006731Y007228D03*
X006298Y007228D03*
X005865Y007228D03*
X005432Y007228D03*
X004999Y007228D03*
X004566Y007228D03*
X004133Y007228D03*
X003700Y007228D03*
D21*
X007774Y007228D03*
D22*
X008818Y001244D03*
D23*
X003365Y001303D03*
D24*
X003345Y003055D03*
X003345Y005516D03*
D25*
X004565Y011261D03*
X004565Y014261D03*
D26*
X002242Y014652D03*
X002242Y015400D03*
X001376Y015026D03*
D27*
X003682Y008667D03*
X003682Y007998D03*
D28*
X004016Y008333D02*
X004079Y008396D01*
X004079Y008939D01*
X003973Y009044D01*
X003391Y009044D01*
X003286Y008939D01*
X003286Y008906D01*
X002788Y008906D01*
X002700Y008870D01*
X002632Y008803D01*
X002592Y008762D01*
X002561Y008688D01*
X002561Y011002D01*
X003968Y011002D01*
X004314Y010656D01*
X004816Y010656D01*
X005170Y011010D01*
X005170Y011512D01*
X004816Y011866D01*
X004314Y011866D01*
X003968Y011520D01*
X002251Y011520D01*
X002164Y011483D01*
X002124Y011580D01*
X001989Y011715D01*
X001812Y011788D01*
X001021Y011788D01*
X000859Y011721D01*
X000859Y011895D01*
X001021Y011828D01*
X001812Y011828D01*
X001989Y011901D01*
X002124Y012036D01*
X002197Y012212D01*
X002197Y012403D01*
X002124Y012580D01*
X001989Y012715D01*
X001812Y012788D01*
X001021Y012788D01*
X000859Y012721D01*
X000859Y012902D01*
X000865Y012897D01*
X000932Y012863D01*
X001004Y012840D01*
X001079Y012828D01*
X001397Y012828D01*
X001397Y013288D01*
X001437Y013288D01*
X001437Y013328D01*
X002197Y013328D01*
X002197Y013346D01*
X002185Y013420D01*
X002161Y013492D01*
X002127Y013559D01*
X002083Y013621D01*
X002029Y013674D01*
X001968Y013718D01*
X001901Y013753D01*
X001829Y013776D01*
X001754Y013788D01*
X001437Y013788D01*
X001437Y013328D01*
X001397Y013328D01*
X001397Y013788D01*
X001079Y013788D01*
X001004Y013776D01*
X000932Y013753D01*
X000865Y013718D01*
X000859Y013714D01*
X000859Y018535D01*
X000884Y018474D01*
X001126Y018232D01*
X001442Y018101D01*
X001784Y018101D01*
X002100Y018232D01*
X002342Y018474D01*
X002473Y018790D01*
X002473Y019132D01*
X002342Y019449D01*
X002100Y019690D01*
X002040Y019716D01*
X002663Y019716D01*
X002663Y016701D01*
X002798Y016566D01*
X014799Y016566D01*
X014934Y016701D01*
X014934Y019716D01*
X015150Y019716D01*
X015094Y019660D01*
X015094Y019262D01*
X015375Y018981D01*
X015773Y018981D01*
X016054Y019262D01*
X016054Y019660D01*
X015998Y019716D01*
X016150Y019716D01*
X016094Y019660D01*
X016094Y019262D01*
X016375Y018981D01*
X016773Y018981D01*
X017054Y019262D01*
X017054Y019660D01*
X016998Y019716D01*
X017166Y019716D01*
X017163Y019713D01*
X017129Y019645D01*
X017106Y019573D01*
X017094Y019499D01*
X017094Y019481D01*
X017554Y019481D01*
X017554Y019441D01*
X017594Y019441D01*
X017594Y019481D01*
X018054Y019481D01*
X018054Y019499D01*
X018042Y019573D01*
X018019Y019645D01*
X017984Y019713D01*
X017982Y019716D01*
X018904Y019716D01*
X018843Y019690D01*
X018601Y019449D01*
X018470Y019132D01*
X018470Y018790D01*
X018601Y018474D01*
X018843Y018232D01*
X019159Y018101D01*
X019501Y018101D01*
X019817Y018232D01*
X020059Y018474D01*
X020084Y018535D01*
X020084Y017540D01*
X020029Y017595D01*
X019850Y017595D01*
X019850Y017135D01*
X019810Y017135D01*
X019810Y017595D01*
X019631Y017595D01*
X019569Y017533D01*
X019569Y017729D01*
X019533Y017817D01*
X019465Y017885D01*
X019377Y017921D01*
X018495Y017921D01*
X018407Y017885D01*
X018340Y017817D01*
X018045Y017522D01*
X018008Y017434D01*
X018008Y016994D01*
X015392Y014378D01*
X010950Y014378D01*
X010964Y014392D01*
X014653Y014392D01*
X014741Y014428D01*
X014808Y014495D01*
X016186Y015873D01*
X016222Y015961D01*
X016222Y016772D01*
X017432Y017981D01*
X017773Y017981D01*
X018054Y018262D01*
X018054Y018660D01*
X017773Y018941D01*
X017375Y018941D01*
X017094Y018660D01*
X017094Y018319D01*
X017054Y018279D01*
X017054Y018660D01*
X016773Y018941D01*
X016375Y018941D01*
X016094Y018660D01*
X016094Y018319D01*
X016054Y018279D01*
X016054Y018660D01*
X015773Y018941D01*
X015375Y018941D01*
X015094Y018660D01*
X015094Y018319D01*
X015092Y018317D01*
X015055Y018229D01*
X015055Y016206D01*
X014310Y015460D01*
X010621Y015460D01*
X010533Y015424D01*
X005296Y010187D01*
X005229Y010120D01*
X005193Y010032D01*
X005193Y007646D01*
X005160Y007655D01*
X004999Y007655D01*
X004999Y007228D01*
X004999Y006802D01*
X005160Y006802D01*
X005206Y006815D01*
X005207Y006815D01*
X005219Y006802D01*
X005626Y006802D01*
X005626Y006457D01*
X005607Y006411D01*
X005607Y006315D01*
X005643Y006228D01*
X005710Y006160D01*
X005798Y006124D01*
X007125Y006124D01*
X007870Y005378D01*
X007870Y003608D01*
X006928Y002665D01*
X003635Y002665D01*
X003653Y002675D01*
X003686Y002708D01*
X003710Y002750D01*
X003722Y002795D01*
X003722Y003037D01*
X003364Y003037D01*
X003364Y003074D01*
X003327Y003074D01*
X003327Y003471D01*
X003125Y003471D01*
X003079Y003459D01*
X003038Y003435D01*
X003034Y003431D01*
X003034Y005140D01*
X003038Y005136D01*
X003079Y005112D01*
X003125Y005100D01*
X003327Y005100D01*
X003327Y005497D01*
X003364Y005497D01*
X003364Y005534D01*
X003722Y005534D01*
X003722Y005776D01*
X003710Y005822D01*
X003686Y005863D01*
X003653Y005896D01*
X003611Y005920D01*
X003566Y005932D01*
X003364Y005932D01*
X003364Y005534D01*
X003327Y005534D01*
X003327Y005932D01*
X003125Y005932D01*
X003079Y005920D01*
X003038Y005896D01*
X003034Y005892D01*
X003034Y007727D01*
X003042Y007718D01*
X003137Y007679D01*
X003240Y007679D01*
X003306Y007706D01*
X003391Y007621D01*
X003454Y007621D01*
X003382Y007549D01*
X003382Y006908D01*
X003487Y006802D01*
X003912Y006802D01*
X003916Y006807D01*
X003920Y006802D01*
X004345Y006802D01*
X004349Y006807D01*
X004353Y006802D01*
X004778Y006802D01*
X004791Y006815D01*
X004791Y006815D01*
X004837Y006802D01*
X004999Y006802D01*
X004999Y007228D01*
X004999Y007228D01*
X004999Y007228D01*
X004999Y007655D01*
X004837Y007655D01*
X004805Y007646D01*
X004805Y008837D01*
X004878Y008910D01*
X004934Y009046D01*
X004934Y009192D01*
X004878Y009327D01*
X004775Y009431D01*
X004639Y009487D01*
X004493Y009487D01*
X004358Y009431D01*
X004254Y009327D01*
X004198Y009192D01*
X004198Y009046D01*
X004254Y008910D01*
X004327Y008838D01*
X004327Y007655D01*
X004007Y007655D01*
X004079Y007727D01*
X004079Y008269D01*
X004016Y008333D01*
X004027Y008344D02*
X004327Y008344D01*
X004327Y008186D02*
X004079Y008186D01*
X004079Y008027D02*
X004327Y008027D01*
X004327Y007869D02*
X004079Y007869D01*
X004062Y007710D02*
X004327Y007710D01*
X004805Y007710D02*
X005193Y007710D01*
X005193Y007869D02*
X004805Y007869D01*
X004805Y008027D02*
X005193Y008027D01*
X005193Y008186D02*
X004805Y008186D01*
X004805Y008344D02*
X005193Y008344D01*
X005193Y008503D02*
X004805Y008503D01*
X004805Y008661D02*
X005193Y008661D01*
X005193Y008820D02*
X004805Y008820D01*
X004906Y008978D02*
X005193Y008978D01*
X005193Y009137D02*
X004934Y009137D01*
X004892Y009295D02*
X005193Y009295D01*
X005193Y009454D02*
X004720Y009454D01*
X004412Y009454D02*
X002561Y009454D01*
X002561Y009612D02*
X005193Y009612D01*
X005193Y009771D02*
X002561Y009771D01*
X002561Y009929D02*
X005193Y009929D01*
X005216Y010088D02*
X002561Y010088D01*
X002561Y010246D02*
X005355Y010246D01*
X005514Y010405D02*
X002561Y010405D01*
X002561Y010563D02*
X005672Y010563D01*
X005831Y010722D02*
X004881Y010722D01*
X005040Y010880D02*
X005989Y010880D01*
X006148Y011039D02*
X005170Y011039D01*
X005170Y011197D02*
X006306Y011197D01*
X006465Y011356D02*
X005170Y011356D01*
X005167Y011514D02*
X006623Y011514D01*
X006782Y011673D02*
X005009Y011673D01*
X004850Y011831D02*
X006940Y011831D01*
X007099Y011990D02*
X002077Y011990D01*
X002170Y012148D02*
X007257Y012148D01*
X007416Y012307D02*
X002197Y012307D01*
X002171Y012465D02*
X007574Y012465D01*
X007733Y012624D02*
X002080Y012624D01*
X001968Y012897D02*
X001901Y012863D01*
X001829Y012840D01*
X001754Y012828D01*
X001437Y012828D01*
X001437Y013288D01*
X002197Y013288D01*
X002197Y013270D01*
X002185Y013196D01*
X002161Y013124D01*
X002127Y013056D01*
X002083Y012995D01*
X002029Y012942D01*
X001968Y012897D01*
X002028Y012941D02*
X003177Y012941D01*
X003171Y012946D02*
X003275Y012842D01*
X003410Y012786D01*
X003557Y012786D01*
X003692Y012842D01*
X003796Y012946D01*
X003852Y013081D01*
X003852Y013228D01*
X003796Y013363D01*
X003692Y013466D01*
X003557Y013522D01*
X003481Y013522D01*
X003152Y013852D01*
X003152Y014682D01*
X003112Y014777D01*
X003091Y014799D01*
X003018Y014872D01*
X002923Y014911D01*
X002698Y014911D01*
X002698Y014924D01*
X002595Y015026D01*
X002698Y015129D01*
X002698Y015161D01*
X003638Y015161D01*
X003638Y014901D01*
X003674Y014813D01*
X003742Y014746D01*
X003968Y014520D01*
X003960Y014512D01*
X003960Y014010D01*
X004314Y013656D01*
X004816Y013656D01*
X005170Y014010D01*
X005170Y014512D01*
X004816Y014866D01*
X004314Y014866D01*
X004306Y014858D01*
X004116Y015048D01*
X004116Y015466D01*
X004080Y015554D01*
X004013Y015621D01*
X003925Y015657D01*
X003830Y015657D01*
X003787Y015640D01*
X002698Y015640D01*
X002698Y015672D01*
X002593Y015777D01*
X001892Y015777D01*
X001787Y015672D01*
X001787Y015343D01*
X001762Y015367D01*
X001721Y015391D01*
X001676Y015403D01*
X001395Y015403D01*
X001395Y015045D01*
X001832Y015045D01*
X001832Y015084D01*
X001889Y015026D01*
X001832Y014969D01*
X001832Y015008D01*
X001395Y015008D01*
X001395Y015045D01*
X001358Y015045D01*
X001358Y015403D01*
X001077Y015403D01*
X001031Y015391D01*
X000990Y015367D01*
X000957Y015334D01*
X000933Y015293D01*
X000921Y015247D01*
X000921Y015045D01*
X001358Y015045D01*
X001358Y015008D01*
X001395Y015008D01*
X001395Y014650D01*
X001676Y014650D01*
X001721Y014662D01*
X001762Y014686D01*
X001787Y014710D01*
X001787Y014381D01*
X001892Y014276D01*
X002593Y014276D01*
X002634Y014317D01*
X002634Y013693D01*
X002674Y013598D01*
X002746Y013526D01*
X003115Y013157D01*
X003115Y013081D01*
X003171Y012946D01*
X003115Y013099D02*
X002149Y013099D01*
X002195Y013258D02*
X003014Y013258D01*
X002856Y013416D02*
X002186Y013416D01*
X002116Y013575D02*
X002697Y013575D01*
X002634Y013733D02*
X001939Y013733D01*
X001437Y013733D02*
X001397Y013733D01*
X001397Y013575D02*
X001437Y013575D01*
X001437Y013416D02*
X001397Y013416D01*
X001397Y013258D02*
X001437Y013258D01*
X001437Y013099D02*
X001397Y013099D01*
X001397Y012941D02*
X001437Y012941D01*
X001826Y012782D02*
X007891Y012782D01*
X008050Y012941D02*
X003790Y012941D01*
X003852Y013099D02*
X008208Y013099D01*
X008367Y013258D02*
X003839Y013258D01*
X003742Y013416D02*
X008525Y013416D01*
X008684Y013575D02*
X003429Y013575D01*
X003271Y013733D02*
X004237Y013733D01*
X004079Y013892D02*
X003152Y013892D01*
X003152Y014050D02*
X003960Y014050D01*
X003960Y014209D02*
X003152Y014209D01*
X003152Y014367D02*
X003960Y014367D01*
X003962Y014526D02*
X003152Y014526D01*
X003151Y014684D02*
X003804Y014684D01*
X003662Y014843D02*
X003047Y014843D01*
X002621Y015001D02*
X003638Y015001D01*
X003638Y015160D02*
X002698Y015160D01*
X001864Y015001D02*
X001832Y015001D01*
X001787Y014684D02*
X001760Y014684D01*
X001787Y014526D02*
X000859Y014526D01*
X000859Y014684D02*
X000993Y014684D01*
X000990Y014686D02*
X001031Y014662D01*
X001077Y014650D01*
X001358Y014650D01*
X001358Y015008D01*
X000921Y015008D01*
X000921Y014806D01*
X000933Y014760D01*
X000957Y014719D01*
X000990Y014686D01*
X000921Y014843D02*
X000859Y014843D01*
X000859Y015001D02*
X000921Y015001D01*
X000921Y015160D02*
X000859Y015160D01*
X000859Y015318D02*
X000948Y015318D01*
X000859Y015477D02*
X001787Y015477D01*
X001787Y015635D02*
X000859Y015635D01*
X000859Y015794D02*
X014643Y015794D01*
X014801Y015952D02*
X000859Y015952D01*
X000859Y016111D02*
X014960Y016111D01*
X015055Y016269D02*
X000859Y016269D01*
X000859Y016428D02*
X015055Y016428D01*
X015055Y016586D02*
X014819Y016586D01*
X014934Y016745D02*
X015055Y016745D01*
X015055Y016903D02*
X014934Y016903D01*
X014934Y017062D02*
X015055Y017062D01*
X015055Y017220D02*
X014934Y017220D01*
X014934Y017379D02*
X015055Y017379D01*
X015055Y017537D02*
X014934Y017537D01*
X014934Y017696D02*
X015055Y017696D01*
X015055Y017854D02*
X014934Y017854D01*
X014934Y018013D02*
X015055Y018013D01*
X015055Y018171D02*
X014934Y018171D01*
X014934Y018330D02*
X015094Y018330D01*
X015094Y018488D02*
X014934Y018488D01*
X014934Y018647D02*
X015094Y018647D01*
X015239Y018805D02*
X014934Y018805D01*
X014934Y018964D02*
X018470Y018964D01*
X018470Y019122D02*
X017914Y019122D01*
X017940Y019148D02*
X017984Y019209D01*
X018019Y019277D01*
X018042Y019349D01*
X018054Y019423D01*
X018054Y019441D01*
X017594Y019441D01*
X017594Y018981D01*
X017612Y018981D01*
X017686Y018993D01*
X017758Y019016D01*
X017825Y019050D01*
X017887Y019095D01*
X017940Y019148D01*
X018020Y019281D02*
X018531Y019281D01*
X018597Y019439D02*
X018054Y019439D01*
X018034Y019598D02*
X018750Y019598D01*
X018470Y018805D02*
X017909Y018805D01*
X018054Y018647D02*
X018529Y018647D01*
X018595Y018488D02*
X018054Y018488D01*
X018054Y018330D02*
X018746Y018330D01*
X018991Y018171D02*
X017963Y018171D01*
X017804Y018013D02*
X020084Y018013D01*
X020084Y018171D02*
X019669Y018171D01*
X019914Y018330D02*
X020084Y018330D01*
X020084Y018488D02*
X020065Y018488D01*
X020084Y017854D02*
X019496Y017854D01*
X019569Y017696D02*
X020084Y017696D01*
X019850Y017537D02*
X019810Y017537D01*
X019810Y017379D02*
X019850Y017379D01*
X019850Y017220D02*
X019810Y017220D01*
X019810Y017095D02*
X019850Y017095D01*
X019850Y016635D01*
X020029Y016635D01*
X020084Y016691D01*
X020084Y016540D01*
X020029Y016595D01*
X019631Y016595D01*
X019602Y016566D01*
X019569Y016600D01*
X019569Y016697D01*
X019631Y016635D01*
X019810Y016635D01*
X019810Y017095D01*
X019810Y017062D02*
X019850Y017062D01*
X019850Y016903D02*
X019810Y016903D01*
X019810Y016745D02*
X019850Y016745D01*
X020038Y016586D02*
X020084Y016586D01*
X019622Y016586D02*
X019583Y016586D01*
X019310Y016183D02*
X019350Y016143D01*
X019350Y015916D01*
X019631Y015635D01*
X020029Y015635D01*
X020084Y015635D01*
X020029Y015635D02*
X020084Y015691D01*
X020084Y015540D01*
X020029Y015595D01*
X019631Y015595D01*
X019350Y015314D01*
X019350Y014916D01*
X019631Y014635D01*
X020029Y014635D01*
X020084Y014691D01*
X020084Y014540D01*
X020029Y014595D01*
X019631Y014595D01*
X019350Y014314D01*
X019350Y013916D01*
X019631Y013635D01*
X020029Y013635D01*
X020084Y013691D01*
X020084Y012991D01*
X016774Y012991D01*
X016639Y012856D01*
X016639Y007843D01*
X016756Y007726D01*
X016396Y007726D01*
X016372Y007702D01*
X016348Y007726D01*
X016316Y007726D01*
X016316Y009369D01*
X016279Y009456D01*
X016212Y009524D01*
X016119Y009617D01*
X016031Y009653D01*
X015653Y009653D01*
X015653Y009804D01*
X015547Y009910D01*
X015534Y009910D01*
X015534Y010105D01*
X015553Y010150D01*
X015553Y010253D01*
X015514Y010348D01*
X015441Y010421D01*
X015346Y010460D01*
X015163Y010460D01*
X015109Y010514D01*
X014974Y010570D01*
X014828Y010570D01*
X014692Y010514D01*
X014589Y010410D01*
X014533Y010275D01*
X014533Y010128D01*
X014589Y009993D01*
X014672Y009910D01*
X014256Y009910D01*
X014151Y009804D01*
X014151Y009751D01*
X011806Y009751D01*
X011692Y009865D01*
X011539Y009928D01*
X011373Y009928D01*
X011220Y009865D01*
X011103Y009748D01*
X011040Y009595D01*
X011040Y009429D01*
X011103Y009276D01*
X011220Y009159D01*
X011373Y009096D01*
X011539Y009096D01*
X011692Y009159D01*
X011806Y009273D01*
X014151Y009273D01*
X014151Y009104D01*
X014256Y008999D01*
X014585Y008999D01*
X014525Y008938D01*
X014525Y008238D01*
X014630Y008133D01*
X014656Y008133D01*
X014656Y007726D01*
X014624Y007726D01*
X014600Y007702D01*
X014576Y007726D01*
X014034Y007726D01*
X014010Y007702D01*
X013986Y007726D01*
X013443Y007726D01*
X013419Y007702D01*
X013395Y007726D01*
X012852Y007726D01*
X012825Y007698D01*
X012800Y007713D01*
X012754Y007726D01*
X012552Y007726D01*
X012552Y007072D01*
X012515Y007072D01*
X012515Y007726D01*
X012313Y007726D01*
X012267Y007713D01*
X012241Y007698D01*
X012214Y007726D01*
X011671Y007726D01*
X011647Y007702D01*
X011624Y007726D01*
X011081Y007726D01*
X011026Y007670D01*
X011026Y013146D01*
X011169Y013289D01*
X016314Y013289D01*
X016409Y013329D01*
X016482Y013401D01*
X018350Y015269D01*
X018350Y014916D01*
X018631Y014635D01*
X019029Y014635D01*
X019310Y014916D01*
X019310Y015314D01*
X019029Y015595D01*
X018676Y015595D01*
X018716Y015635D01*
X019029Y015635D01*
X019631Y015635D01*
X019513Y015477D02*
X019147Y015477D01*
X019029Y015635D02*
X019310Y015916D01*
X019310Y016183D01*
X019310Y016111D02*
X019350Y016111D01*
X019350Y015952D02*
X019310Y015952D01*
X019187Y015794D02*
X019473Y015794D01*
X019354Y015318D02*
X019306Y015318D01*
X019310Y015160D02*
X019350Y015160D01*
X019350Y015001D02*
X019310Y015001D01*
X019236Y014843D02*
X019424Y014843D01*
X019582Y014684D02*
X019078Y014684D01*
X019029Y014595D02*
X018631Y014595D01*
X018350Y014314D01*
X018350Y013916D01*
X018631Y013635D01*
X019029Y013635D01*
X019310Y013916D01*
X019310Y014314D01*
X019029Y014595D01*
X019098Y014526D02*
X019562Y014526D01*
X019403Y014367D02*
X019257Y014367D01*
X019310Y014209D02*
X019350Y014209D01*
X019350Y014050D02*
X019310Y014050D01*
X019285Y013892D02*
X019375Y013892D01*
X019533Y013733D02*
X019127Y013733D01*
X018533Y013733D02*
X016814Y013733D01*
X016655Y013575D02*
X020084Y013575D01*
X020084Y013416D02*
X016497Y013416D01*
X016972Y013892D02*
X018375Y013892D01*
X018350Y014050D02*
X017131Y014050D01*
X017289Y014209D02*
X018350Y014209D01*
X018403Y014367D02*
X017448Y014367D01*
X017606Y014526D02*
X018562Y014526D01*
X018582Y014684D02*
X017765Y014684D01*
X017923Y014843D02*
X018424Y014843D01*
X018350Y015001D02*
X018082Y015001D01*
X018240Y015160D02*
X018350Y015160D01*
X017284Y016269D02*
X016222Y016269D01*
X016222Y016111D02*
X017125Y016111D01*
X016967Y015952D02*
X016219Y015952D01*
X016107Y015794D02*
X016808Y015794D01*
X016650Y015635D02*
X015948Y015635D01*
X015790Y015477D02*
X016491Y015477D01*
X016333Y015318D02*
X015631Y015318D01*
X015473Y015160D02*
X016174Y015160D01*
X016016Y015001D02*
X015314Y015001D01*
X015156Y014843D02*
X015857Y014843D01*
X015699Y014684D02*
X014997Y014684D01*
X014839Y014526D02*
X015540Y014526D01*
X014484Y015635D02*
X003978Y015635D01*
X004112Y015477D02*
X014326Y015477D01*
X016222Y016428D02*
X017442Y016428D01*
X017601Y016586D02*
X016222Y016586D01*
X016222Y016745D02*
X017759Y016745D01*
X017918Y016903D02*
X016354Y016903D01*
X016513Y017062D02*
X018008Y017062D01*
X018008Y017220D02*
X016671Y017220D01*
X016830Y017379D02*
X018008Y017379D01*
X018060Y017537D02*
X016988Y017537D01*
X017147Y017696D02*
X018218Y017696D01*
X018377Y017854D02*
X017305Y017854D01*
X017094Y018330D02*
X017054Y018330D01*
X017054Y018488D02*
X017094Y018488D01*
X017094Y018647D02*
X017054Y018647D01*
X016909Y018805D02*
X017239Y018805D01*
X017322Y019050D02*
X017390Y019016D01*
X017462Y018993D01*
X017536Y018981D01*
X017554Y018981D01*
X017554Y019441D01*
X017094Y019441D01*
X017094Y019423D01*
X017106Y019349D01*
X017129Y019277D01*
X017163Y019209D01*
X017208Y019148D01*
X017261Y019095D01*
X017322Y019050D01*
X017234Y019122D02*
X016914Y019122D01*
X017054Y019281D02*
X017128Y019281D01*
X017094Y019439D02*
X017054Y019439D01*
X017054Y019598D02*
X017114Y019598D01*
X017554Y019439D02*
X017594Y019439D01*
X017594Y019281D02*
X017554Y019281D01*
X017554Y019122D02*
X017594Y019122D01*
X016234Y019122D02*
X015914Y019122D01*
X016054Y019281D02*
X016094Y019281D01*
X016094Y019439D02*
X016054Y019439D01*
X016054Y019598D02*
X016094Y019598D01*
X016239Y018805D02*
X015909Y018805D01*
X016054Y018647D02*
X016094Y018647D01*
X016094Y018488D02*
X016054Y018488D01*
X016054Y018330D02*
X016094Y018330D01*
X015234Y019122D02*
X014934Y019122D01*
X014934Y019281D02*
X015094Y019281D01*
X015094Y019439D02*
X014934Y019439D01*
X014934Y019598D02*
X015094Y019598D01*
X019569Y017537D02*
X019573Y017537D01*
X020078Y014684D02*
X020084Y014684D01*
X020084Y013258D02*
X011138Y013258D01*
X011026Y013099D02*
X020084Y013099D01*
X016724Y012941D02*
X011766Y012941D01*
X011773Y012933D02*
X011727Y012979D01*
X011674Y013018D01*
X011616Y013048D01*
X011553Y013068D01*
X011489Y013078D01*
X011456Y013078D01*
X011456Y012662D01*
X011456Y012662D01*
X011456Y013078D01*
X011423Y013078D01*
X011358Y013068D01*
X011296Y013048D01*
X011238Y013018D01*
X011185Y012979D01*
X011138Y012933D01*
X011100Y012880D01*
X011070Y012822D01*
X011050Y012759D01*
X011040Y012695D01*
X011040Y012662D01*
X011456Y012662D01*
X011872Y012662D01*
X011872Y012695D01*
X011862Y012759D01*
X011842Y012822D01*
X011812Y012880D01*
X011773Y012933D01*
X011854Y012782D02*
X016639Y012782D01*
X016639Y012624D02*
X011871Y012624D01*
X011872Y012629D02*
X011872Y012662D01*
X011456Y012662D01*
X011456Y012662D01*
X011456Y012662D01*
X011040Y012662D01*
X011040Y012629D01*
X011050Y012564D01*
X011070Y012502D01*
X011100Y012444D01*
X011138Y012391D01*
X011185Y012344D01*
X011238Y012306D01*
X011296Y012276D01*
X011358Y012256D01*
X011423Y012246D01*
X011456Y012246D01*
X011489Y012246D01*
X011553Y012256D01*
X011616Y012276D01*
X011674Y012306D01*
X011727Y012344D01*
X011773Y012391D01*
X011812Y012444D01*
X011842Y012502D01*
X011862Y012564D01*
X011872Y012629D01*
X011823Y012465D02*
X016639Y012465D01*
X016639Y012307D02*
X011675Y012307D01*
X011456Y012307D02*
X011456Y012307D01*
X011456Y012246D02*
X011456Y012662D01*
X011456Y012662D01*
X011456Y012246D01*
X011456Y012465D02*
X011456Y012465D01*
X011456Y012624D02*
X011456Y012624D01*
X011456Y012782D02*
X011456Y012782D01*
X011456Y012941D02*
X011456Y012941D01*
X011146Y012941D02*
X011026Y012941D01*
X011026Y012782D02*
X011057Y012782D01*
X011041Y012624D02*
X011026Y012624D01*
X011026Y012465D02*
X011089Y012465D01*
X011026Y012307D02*
X011237Y012307D01*
X011026Y012148D02*
X016639Y012148D01*
X016639Y011990D02*
X011026Y011990D01*
X011026Y011831D02*
X016639Y011831D01*
X016639Y011673D02*
X011026Y011673D01*
X011026Y011514D02*
X016639Y011514D01*
X016639Y011356D02*
X011026Y011356D01*
X011026Y011197D02*
X016639Y011197D01*
X016639Y011039D02*
X011026Y011039D01*
X011026Y010880D02*
X016639Y010880D01*
X016639Y010722D02*
X011026Y010722D01*
X011026Y010563D02*
X014812Y010563D01*
X014990Y010563D02*
X016639Y010563D01*
X016639Y010405D02*
X015457Y010405D01*
X015553Y010246D02*
X016639Y010246D01*
X016639Y010088D02*
X015534Y010088D01*
X015534Y009929D02*
X016639Y009929D01*
X016639Y009771D02*
X015653Y009771D01*
X016124Y009612D02*
X016639Y009612D01*
X016639Y009454D02*
X016280Y009454D01*
X016316Y009295D02*
X016639Y009295D01*
X016639Y009137D02*
X016316Y009137D01*
X016316Y008978D02*
X016639Y008978D01*
X016639Y008820D02*
X016316Y008820D01*
X016316Y008661D02*
X016639Y008661D01*
X016639Y008503D02*
X016316Y008503D01*
X016316Y008344D02*
X016639Y008344D01*
X016639Y008186D02*
X016316Y008186D01*
X016316Y008027D02*
X016639Y008027D01*
X016639Y007869D02*
X016316Y007869D01*
X016363Y007710D02*
X016380Y007710D01*
X016956Y007708D02*
X020084Y007708D01*
X020084Y001671D01*
X020059Y001732D01*
X019817Y001974D01*
X019501Y002105D01*
X019159Y002105D01*
X018843Y001974D01*
X018601Y001732D01*
X018470Y001416D01*
X018470Y001074D01*
X018601Y000758D01*
X018843Y000516D01*
X018904Y000491D01*
X017044Y000491D01*
X017044Y001518D01*
X016965Y001596D01*
X017901Y001596D01*
X017989Y001633D01*
X018056Y001700D01*
X018093Y001788D01*
X018093Y002624D01*
X018178Y002624D01*
X018241Y002687D01*
X018269Y002660D01*
X018310Y002636D01*
X018356Y002624D01*
X018563Y002624D01*
X018563Y002993D01*
X018609Y002993D01*
X018609Y002624D01*
X018816Y002624D01*
X018862Y002636D01*
X018903Y002660D01*
X018937Y002693D01*
X018960Y002734D01*
X018973Y002780D01*
X018973Y002993D01*
X018609Y002993D01*
X018609Y003040D01*
X018973Y003040D01*
X018973Y003253D01*
X018960Y003299D01*
X018937Y003340D01*
X018912Y003365D01*
X018916Y003369D01*
X019364Y003369D01*
X019427Y003432D01*
X019454Y003405D01*
X019495Y003381D01*
X019541Y003369D01*
X019722Y003369D01*
X019722Y003706D01*
X019722Y003706D01*
X019722Y004044D01*
X019541Y004044D01*
X019495Y004031D01*
X019454Y004008D01*
X019427Y003980D01*
X019364Y004044D01*
X018912Y004044D01*
X018855Y004101D01*
X018312Y004101D01*
X018249Y004038D01*
X018186Y004101D01*
X017643Y004101D01*
X017537Y003995D01*
X017537Y003413D01*
X017579Y003372D01*
X017510Y003304D01*
X017510Y002729D01*
X017614Y002625D01*
X017614Y002074D01*
X009882Y002074D01*
X009857Y002099D01*
X009893Y002114D01*
X009996Y002217D01*
X010052Y002353D01*
X010052Y002499D01*
X009996Y002635D01*
X009893Y002738D01*
X009757Y002794D01*
X009611Y002794D01*
X009476Y002738D01*
X009372Y002635D01*
X009357Y002599D01*
X008348Y003608D01*
X008348Y005525D01*
X008312Y005613D01*
X007426Y006498D01*
X007359Y006566D01*
X007271Y006602D01*
X006104Y006602D01*
X006104Y006802D01*
X006510Y006802D01*
X006514Y006807D01*
X006519Y006802D01*
X006943Y006802D01*
X006948Y006807D01*
X006952Y006802D01*
X007376Y006802D01*
X007440Y006866D01*
X007467Y006838D01*
X007508Y006815D01*
X007554Y006802D01*
X007756Y006802D01*
X007756Y007210D01*
X007793Y007210D01*
X007793Y007247D01*
X008151Y007247D01*
X008151Y007498D01*
X008139Y007544D01*
X008115Y007585D01*
X008082Y007619D01*
X008041Y007642D01*
X007995Y007655D01*
X007793Y007655D01*
X007793Y007247D01*
X007756Y007247D01*
X007756Y007655D01*
X007554Y007655D01*
X007508Y007642D01*
X007467Y007619D01*
X007440Y007591D01*
X007376Y007655D01*
X006990Y007655D01*
X006990Y008027D01*
X009937Y008027D01*
X009937Y007869D02*
X006990Y007869D01*
X006990Y008027D02*
X007148Y008185D01*
X007187Y008280D01*
X007187Y008652D01*
X007198Y008652D01*
X007334Y008708D01*
X007437Y008812D01*
X007493Y008947D01*
X007493Y009094D01*
X007437Y009229D01*
X007334Y009333D01*
X007198Y009389D01*
X007052Y009389D01*
X007026Y009378D01*
X006877Y009378D01*
X006872Y009376D01*
X006872Y010299D01*
X009937Y013365D01*
X009937Y005823D01*
X009974Y005735D01*
X010041Y005668D01*
X010139Y005570D01*
X010227Y005533D01*
X012488Y005533D01*
X012576Y005570D01*
X012643Y005637D01*
X012933Y005927D01*
X017262Y005927D01*
X017675Y005514D01*
X017675Y005480D01*
X017643Y005480D01*
X017538Y005375D01*
X017538Y004792D01*
X017643Y004687D01*
X018186Y004687D01*
X018249Y004750D01*
X018312Y004687D01*
X018855Y004687D01*
X018916Y004747D01*
X019367Y004747D01*
X019431Y004811D01*
X019458Y004783D01*
X019499Y004760D01*
X019545Y004747D01*
X019726Y004747D01*
X019907Y004747D01*
X019953Y004760D01*
X019994Y004783D01*
X020027Y004817D01*
X020051Y004858D01*
X020063Y004904D01*
X020063Y005085D01*
X020063Y005266D01*
X020051Y005312D01*
X020027Y005353D01*
X019994Y005386D01*
X019953Y005410D01*
X019907Y005422D01*
X019726Y005422D01*
X019726Y005085D01*
X019726Y005085D01*
X020063Y005085D01*
X019726Y005085D01*
X019726Y005085D01*
X019726Y005422D01*
X019545Y005422D01*
X019499Y005410D01*
X019458Y005386D01*
X019431Y005359D01*
X019367Y005422D01*
X018913Y005422D01*
X018855Y005480D01*
X018312Y005480D01*
X018249Y005417D01*
X018186Y005480D01*
X018153Y005480D01*
X018153Y005661D01*
X018117Y005749D01*
X017801Y006064D01*
X018185Y006064D01*
X018248Y006128D01*
X018311Y006064D01*
X018854Y006064D01*
X018914Y006125D01*
X019364Y006125D01*
X019428Y006188D01*
X019455Y006161D01*
X019496Y006137D01*
X019542Y006125D01*
X019723Y006125D01*
X019723Y006125D01*
X019904Y006125D01*
X019950Y006137D01*
X019991Y006161D01*
X020025Y006194D01*
X020048Y006235D01*
X020060Y006281D01*
X020060Y006462D01*
X019723Y006462D01*
X019723Y006125D01*
X019723Y006462D01*
X019723Y006462D01*
X019723Y006462D01*
X020060Y006462D01*
X020060Y006643D01*
X020048Y006689D01*
X020025Y006730D01*
X019991Y006764D01*
X019950Y006787D01*
X019904Y006800D01*
X019723Y006800D01*
X019542Y006800D01*
X019496Y006787D01*
X019455Y006764D01*
X019428Y006736D01*
X019364Y006800D01*
X018912Y006800D01*
X018854Y006858D01*
X018829Y006858D01*
X018868Y006868D01*
X018909Y006892D01*
X018943Y006925D01*
X018966Y006966D01*
X018979Y007012D01*
X018979Y007225D01*
X018615Y007225D01*
X018615Y007272D01*
X018569Y007272D01*
X018569Y007641D01*
X018362Y007641D01*
X018316Y007629D01*
X018275Y007605D01*
X018247Y007578D01*
X018184Y007641D01*
X017622Y007641D01*
X017516Y007536D01*
X017516Y007487D01*
X017044Y007487D01*
X017044Y007620D01*
X016956Y007708D01*
X017044Y007552D02*
X017532Y007552D01*
X018569Y007552D02*
X018615Y007552D01*
X018615Y007641D02*
X018615Y007272D01*
X018979Y007272D01*
X018979Y007485D01*
X018966Y007531D01*
X018943Y007572D01*
X018909Y007605D01*
X018868Y007629D01*
X018822Y007641D01*
X018615Y007641D01*
X018615Y007393D02*
X018569Y007393D01*
X018615Y007235D02*
X020084Y007235D01*
X020084Y007393D02*
X018979Y007393D01*
X018954Y007552D02*
X020084Y007552D01*
X020084Y007076D02*
X018979Y007076D01*
X018935Y006918D02*
X020084Y006918D01*
X020084Y006759D02*
X019996Y006759D01*
X020060Y006601D02*
X020084Y006601D01*
X020084Y006442D02*
X020060Y006442D01*
X020060Y006284D02*
X020084Y006284D01*
X020084Y006125D02*
X019906Y006125D01*
X020084Y005967D02*
X017899Y005967D01*
X018057Y005808D02*
X020084Y005808D01*
X020084Y005650D02*
X018153Y005650D01*
X018153Y005491D02*
X020084Y005491D01*
X020084Y005333D02*
X020039Y005333D01*
X020063Y005174D02*
X020084Y005174D01*
X020084Y005016D02*
X020063Y005016D01*
X020051Y004857D02*
X020084Y004857D01*
X020084Y004699D02*
X018867Y004699D01*
X018301Y004699D02*
X018198Y004699D01*
X017631Y004699D02*
X015389Y004699D01*
X015403Y004674D02*
X015207Y005014D01*
X014930Y005291D01*
X014590Y005488D01*
X014211Y005589D01*
X013819Y005589D01*
X013440Y005488D01*
X013100Y005291D01*
X012823Y005014D01*
X012627Y004674D01*
X012525Y004295D01*
X012525Y003903D01*
X012627Y003524D01*
X012823Y003184D01*
X013100Y002907D01*
X013440Y002711D01*
X013819Y002609D01*
X014211Y002609D01*
X014590Y002711D01*
X014930Y002907D01*
X015207Y003184D01*
X015403Y003524D01*
X015505Y003903D01*
X015505Y004295D01*
X015403Y004674D01*
X015439Y004540D02*
X020084Y004540D01*
X020084Y004382D02*
X015482Y004382D01*
X015505Y004223D02*
X020084Y004223D01*
X020084Y004065D02*
X018891Y004065D01*
X018276Y004065D02*
X018222Y004065D01*
X017607Y004065D02*
X015505Y004065D01*
X015505Y003906D02*
X017537Y003906D01*
X017537Y003748D02*
X015463Y003748D01*
X015421Y003589D02*
X017537Y003589D01*
X017537Y003431D02*
X015349Y003431D01*
X015258Y003272D02*
X017510Y003272D01*
X017510Y003114D02*
X015136Y003114D01*
X014978Y002955D02*
X017510Y002955D01*
X017510Y002797D02*
X014738Y002797D01*
X014318Y002638D02*
X017602Y002638D01*
X017614Y002480D02*
X010052Y002480D01*
X010039Y002321D02*
X017614Y002321D01*
X017614Y002163D02*
X009941Y002163D01*
X009993Y002638D02*
X013711Y002638D01*
X013291Y002797D02*
X009160Y002797D01*
X009318Y002638D02*
X009376Y002638D01*
X009001Y002955D02*
X013052Y002955D01*
X012894Y003114D02*
X008843Y003114D01*
X008684Y003272D02*
X012772Y003272D01*
X012681Y003431D02*
X008526Y003431D01*
X008367Y003589D02*
X012609Y003589D01*
X012567Y003748D02*
X008348Y003748D01*
X008348Y003906D02*
X012525Y003906D01*
X012525Y004065D02*
X008348Y004065D01*
X008348Y004223D02*
X012525Y004223D01*
X012548Y004382D02*
X008348Y004382D01*
X008348Y004540D02*
X012591Y004540D01*
X012641Y004699D02*
X008348Y004699D01*
X008348Y004857D02*
X012732Y004857D01*
X012824Y005016D02*
X008348Y005016D01*
X008348Y005174D02*
X012983Y005174D01*
X013172Y005333D02*
X008348Y005333D01*
X008348Y005491D02*
X013453Y005491D01*
X012814Y005808D02*
X017381Y005808D01*
X017540Y005650D02*
X012655Y005650D01*
X012643Y005637D02*
X012643Y005637D01*
X012341Y006011D02*
X012205Y006011D01*
X012207Y006016D01*
X012207Y006119D01*
X012202Y006132D01*
X012202Y006381D01*
X012214Y006381D01*
X012241Y006408D01*
X012267Y006394D01*
X012313Y006381D01*
X012515Y006381D01*
X012515Y007035D01*
X012552Y007035D01*
X012552Y006381D01*
X012728Y006381D01*
X012698Y006369D01*
X012341Y006011D01*
X012455Y006125D02*
X012204Y006125D01*
X012202Y006284D02*
X012613Y006284D01*
X012552Y006442D02*
X012515Y006442D01*
X012515Y006601D02*
X012552Y006601D01*
X012552Y006759D02*
X012515Y006759D01*
X012515Y006918D02*
X012552Y006918D01*
X012552Y007076D02*
X012515Y007076D01*
X012515Y007235D02*
X012552Y007235D01*
X012552Y007393D02*
X012515Y007393D01*
X012515Y007552D02*
X012552Y007552D01*
X012552Y007710D02*
X012515Y007710D01*
X012262Y007710D02*
X012230Y007710D01*
X011656Y007710D02*
X011639Y007710D01*
X011065Y007710D02*
X011026Y007710D01*
X011026Y007869D02*
X014656Y007869D01*
X014656Y008027D02*
X011026Y008027D01*
X011026Y008186D02*
X014577Y008186D01*
X014525Y008344D02*
X011026Y008344D01*
X011026Y008503D02*
X014525Y008503D01*
X014525Y008661D02*
X011026Y008661D01*
X011026Y008820D02*
X014525Y008820D01*
X014565Y008978D02*
X011026Y008978D01*
X011026Y009137D02*
X011275Y009137D01*
X011095Y009295D02*
X011026Y009295D01*
X011026Y009454D02*
X011040Y009454D01*
X011026Y009612D02*
X011047Y009612D01*
X011026Y009771D02*
X011126Y009771D01*
X011026Y009929D02*
X014653Y009929D01*
X014550Y010088D02*
X011026Y010088D01*
X011026Y010246D02*
X014533Y010246D01*
X014586Y010405D02*
X011026Y010405D01*
X011786Y009771D02*
X014151Y009771D01*
X014151Y009137D02*
X011637Y009137D01*
X012805Y007710D02*
X012837Y007710D01*
X013411Y007710D02*
X013428Y007710D01*
X014001Y007710D02*
X014018Y007710D01*
X014592Y007710D02*
X014609Y007710D01*
X015135Y007726D02*
X015135Y008133D01*
X015173Y008133D01*
X015279Y008238D01*
X015279Y008938D01*
X015218Y008999D01*
X015547Y008999D01*
X015653Y009104D01*
X015653Y009175D01*
X015838Y009175D01*
X015838Y007726D01*
X015805Y007726D01*
X015778Y007698D01*
X015752Y007713D01*
X015707Y007726D01*
X015505Y007726D01*
X015505Y007072D01*
X015468Y007072D01*
X015468Y007726D01*
X015266Y007726D01*
X015220Y007713D01*
X015194Y007698D01*
X015167Y007726D01*
X015135Y007726D01*
X015182Y007710D02*
X015214Y007710D01*
X015135Y007869D02*
X015838Y007869D01*
X015838Y008027D02*
X015135Y008027D01*
X015226Y008186D02*
X015838Y008186D01*
X015838Y008344D02*
X015279Y008344D01*
X015279Y008503D02*
X015838Y008503D01*
X015838Y008661D02*
X015279Y008661D01*
X015279Y008820D02*
X015838Y008820D01*
X015838Y008978D02*
X015239Y008978D01*
X015653Y009137D02*
X015838Y009137D01*
X015790Y007710D02*
X015758Y007710D01*
X015505Y007710D02*
X015468Y007710D01*
X015468Y007552D02*
X015505Y007552D01*
X015505Y007393D02*
X015468Y007393D01*
X015468Y007235D02*
X015505Y007235D01*
X015505Y007076D02*
X015468Y007076D01*
X014577Y005491D02*
X017675Y005491D01*
X017538Y005333D02*
X014858Y005333D01*
X015047Y005174D02*
X017538Y005174D01*
X017538Y005016D02*
X015205Y005016D01*
X015298Y004857D02*
X017538Y004857D01*
X018246Y006125D02*
X018251Y006125D01*
X019365Y006125D02*
X019540Y006125D01*
X019723Y006284D02*
X019723Y006284D01*
X019723Y006442D02*
X019723Y006442D01*
X019723Y006462D02*
X019723Y006800D01*
X019723Y006462D01*
X019723Y006462D01*
X019723Y006601D02*
X019723Y006601D01*
X019723Y006759D02*
X019723Y006759D01*
X019451Y006759D02*
X019405Y006759D01*
X019726Y005333D02*
X019726Y005333D01*
X019726Y005174D02*
X019726Y005174D01*
X019726Y005085D02*
X019726Y004747D01*
X019726Y005085D01*
X019726Y005085D01*
X019726Y005016D02*
X019726Y005016D01*
X019726Y004857D02*
X019726Y004857D01*
X019722Y004044D02*
X019722Y003706D01*
X019722Y003706D01*
X019722Y003369D01*
X019904Y003369D01*
X019949Y003381D01*
X019990Y003405D01*
X020024Y003438D01*
X020048Y003479D01*
X020060Y003525D01*
X020060Y003706D01*
X019722Y003706D01*
X019722Y003706D01*
X020060Y003706D01*
X020060Y003887D01*
X020048Y003933D01*
X020024Y003974D01*
X019990Y004008D01*
X019949Y004031D01*
X019904Y004044D01*
X019722Y004044D01*
X019722Y003906D02*
X019722Y003906D01*
X019722Y003748D02*
X019722Y003748D01*
X019722Y003589D02*
X019722Y003589D01*
X019722Y003431D02*
X019722Y003431D01*
X019429Y003431D02*
X019426Y003431D01*
X018967Y003272D02*
X020084Y003272D01*
X020084Y003114D02*
X018973Y003114D01*
X018973Y002955D02*
X020084Y002955D01*
X020084Y002797D02*
X018973Y002797D01*
X018865Y002638D02*
X020084Y002638D01*
X020084Y002480D02*
X018093Y002480D01*
X018093Y002321D02*
X020084Y002321D01*
X020084Y002163D02*
X018093Y002163D01*
X018093Y002004D02*
X018916Y002004D01*
X018715Y001846D02*
X018093Y001846D01*
X018043Y001687D02*
X018582Y001687D01*
X018517Y001529D02*
X017033Y001529D01*
X017044Y001370D02*
X018470Y001370D01*
X018470Y001212D02*
X017044Y001212D01*
X017044Y001053D02*
X018479Y001053D01*
X018544Y000895D02*
X017044Y000895D01*
X017044Y000736D02*
X018623Y000736D01*
X018781Y000578D02*
X017044Y000578D01*
X016290Y000578D02*
X011729Y000578D01*
X011729Y000491D02*
X011729Y001518D01*
X011650Y001596D01*
X016369Y001596D01*
X016290Y001518D01*
X016290Y000491D01*
X011729Y000491D01*
X011729Y000736D02*
X016290Y000736D01*
X016290Y000895D02*
X011729Y000895D01*
X011729Y001053D02*
X016290Y001053D01*
X016290Y001212D02*
X011729Y001212D01*
X011729Y001370D02*
X016290Y001370D01*
X016301Y001529D02*
X011718Y001529D01*
X011054Y001596D02*
X010975Y001518D01*
X010975Y000491D01*
X002040Y000491D01*
X002100Y000516D01*
X002342Y000758D01*
X002473Y001074D01*
X002473Y001416D01*
X002342Y001732D01*
X002100Y001974D01*
X001784Y002105D01*
X001442Y002105D01*
X001126Y001974D01*
X000884Y001732D01*
X000859Y001671D01*
X000859Y005895D01*
X001021Y005828D01*
X001812Y005828D01*
X001989Y005901D01*
X002124Y006036D01*
X002197Y006212D01*
X002197Y006403D01*
X002193Y006411D01*
X002410Y006521D01*
X002449Y006537D01*
X002456Y006545D01*
X002465Y006549D01*
X002492Y006581D01*
X002522Y006610D01*
X002526Y006620D01*
X002532Y006627D01*
X002545Y006667D01*
X002555Y006692D01*
X002555Y002378D01*
X002592Y002291D01*
X002659Y002223D01*
X002747Y002187D01*
X002842Y002187D01*
X007074Y002187D01*
X007162Y002223D01*
X007229Y002291D01*
X008109Y003171D01*
X009199Y002081D01*
X009219Y002033D01*
X009292Y001961D01*
X009339Y001941D01*
X009647Y001633D01*
X009735Y001596D01*
X011054Y001596D01*
X010986Y001529D02*
X009293Y001529D01*
X009293Y001662D02*
X009281Y001707D01*
X009257Y001748D01*
X009223Y001782D01*
X009182Y001806D01*
X009137Y001818D01*
X008885Y001818D01*
X008885Y001312D01*
X008750Y001312D01*
X008750Y001818D01*
X008499Y001818D01*
X008453Y001806D01*
X008412Y001782D01*
X008378Y001748D01*
X008355Y001707D01*
X008342Y001662D01*
X008342Y001312D01*
X008750Y001312D01*
X008750Y001177D01*
X008342Y001177D01*
X008342Y000827D01*
X008355Y000781D01*
X008378Y000740D01*
X008412Y000706D01*
X008453Y000683D01*
X008499Y000671D01*
X008750Y000671D01*
X008750Y001177D01*
X008885Y001177D01*
X008885Y001312D01*
X009293Y001312D01*
X009293Y001662D01*
X009286Y001687D02*
X009593Y001687D01*
X009434Y001846D02*
X003840Y001846D01*
X003840Y001918D02*
X003828Y001963D01*
X003804Y002004D01*
X009248Y002004D01*
X009117Y002163D02*
X000859Y002163D01*
X000859Y002321D02*
X002579Y002321D01*
X002555Y002480D02*
X000859Y002480D01*
X000859Y002638D02*
X002555Y002638D01*
X002555Y002797D02*
X000859Y002797D01*
X000859Y002955D02*
X002555Y002955D01*
X002555Y003114D02*
X000859Y003114D01*
X000859Y003272D02*
X002555Y003272D01*
X002555Y003431D02*
X000859Y003431D01*
X000859Y003589D02*
X002555Y003589D01*
X002555Y003748D02*
X000859Y003748D01*
X000859Y003906D02*
X002555Y003906D01*
X002555Y004065D02*
X000859Y004065D01*
X000859Y004223D02*
X002555Y004223D01*
X002555Y004382D02*
X000859Y004382D01*
X000859Y004540D02*
X002555Y004540D01*
X002555Y004699D02*
X000859Y004699D01*
X000859Y004857D02*
X002555Y004857D01*
X002555Y005016D02*
X000859Y005016D01*
X000859Y005174D02*
X002555Y005174D01*
X002555Y005333D02*
X000859Y005333D01*
X000859Y005491D02*
X002555Y005491D01*
X002555Y005650D02*
X000859Y005650D01*
X000859Y005808D02*
X002555Y005808D01*
X002555Y005967D02*
X002054Y005967D01*
X002161Y006125D02*
X002555Y006125D01*
X002555Y006284D02*
X002197Y006284D01*
X002254Y006442D02*
X002555Y006442D01*
X002555Y006601D02*
X002512Y006601D01*
X003034Y006601D02*
X005626Y006601D01*
X005626Y006759D02*
X003034Y006759D01*
X003034Y006918D02*
X003382Y006918D01*
X003382Y007076D02*
X003034Y007076D01*
X003034Y007235D02*
X003382Y007235D01*
X003382Y007393D02*
X003034Y007393D01*
X003034Y007552D02*
X003384Y007552D01*
X003062Y007710D02*
X003034Y007710D01*
X004079Y008503D02*
X004327Y008503D01*
X004327Y008661D02*
X004079Y008661D01*
X004079Y008820D02*
X004327Y008820D01*
X004226Y008978D02*
X004039Y008978D01*
X004198Y009137D02*
X002561Y009137D01*
X002561Y009295D02*
X004241Y009295D01*
X003325Y008978D02*
X002561Y008978D01*
X002561Y008820D02*
X002649Y008820D01*
X002561Y010722D02*
X004249Y010722D01*
X004090Y010880D02*
X002561Y010880D01*
X002238Y011514D02*
X002151Y011514D01*
X002031Y011673D02*
X004121Y011673D01*
X004280Y011831D02*
X001820Y011831D01*
X001013Y011831D02*
X000859Y011831D01*
X000859Y012782D02*
X001007Y012782D01*
X000894Y013733D02*
X000859Y013733D01*
X000859Y013892D02*
X002634Y013892D01*
X002634Y014050D02*
X000859Y014050D01*
X000859Y014209D02*
X002634Y014209D01*
X001801Y014367D02*
X000859Y014367D01*
X001358Y014684D02*
X001395Y014684D01*
X001395Y014843D02*
X001358Y014843D01*
X001358Y015001D02*
X001395Y015001D01*
X001395Y015160D02*
X001358Y015160D01*
X001358Y015318D02*
X001395Y015318D01*
X000859Y016586D02*
X002778Y016586D01*
X002663Y016745D02*
X000859Y016745D01*
X000859Y016903D02*
X002663Y016903D01*
X002663Y017062D02*
X000859Y017062D01*
X000859Y017220D02*
X002663Y017220D01*
X002663Y017379D02*
X000859Y017379D01*
X000859Y017537D02*
X002663Y017537D01*
X002663Y017696D02*
X000859Y017696D01*
X000859Y017854D02*
X002663Y017854D01*
X002663Y018013D02*
X000859Y018013D01*
X000859Y018171D02*
X001274Y018171D01*
X001029Y018330D02*
X000859Y018330D01*
X000859Y018488D02*
X000879Y018488D01*
X001953Y018171D02*
X002663Y018171D01*
X002663Y018330D02*
X002198Y018330D01*
X002348Y018488D02*
X002663Y018488D01*
X002663Y018647D02*
X002414Y018647D01*
X002473Y018805D02*
X002663Y018805D01*
X002663Y018964D02*
X002473Y018964D01*
X002473Y019122D02*
X002663Y019122D01*
X002663Y019281D02*
X002412Y019281D01*
X002346Y019439D02*
X002663Y019439D01*
X002663Y019598D02*
X002193Y019598D01*
X004116Y015318D02*
X010427Y015318D01*
X010269Y015160D02*
X004116Y015160D01*
X004163Y015001D02*
X010110Y015001D01*
X009952Y014843D02*
X004839Y014843D01*
X004997Y014684D02*
X009793Y014684D01*
X009635Y014526D02*
X005156Y014526D01*
X005170Y014367D02*
X009476Y014367D01*
X009318Y014209D02*
X005170Y014209D01*
X005170Y014050D02*
X009159Y014050D01*
X009001Y013892D02*
X005051Y013892D01*
X004893Y013733D02*
X008842Y013733D01*
X009513Y012941D02*
X009937Y012941D01*
X009937Y013099D02*
X009672Y013099D01*
X009830Y013258D02*
X009937Y013258D01*
X009937Y012782D02*
X009355Y012782D01*
X009196Y012624D02*
X009937Y012624D01*
X009937Y012465D02*
X009038Y012465D01*
X008879Y012307D02*
X009937Y012307D01*
X009937Y012148D02*
X008721Y012148D01*
X008562Y011990D02*
X009937Y011990D01*
X009937Y011831D02*
X008404Y011831D01*
X008245Y011673D02*
X009937Y011673D01*
X009937Y011514D02*
X008087Y011514D01*
X007928Y011356D02*
X009937Y011356D01*
X009937Y011197D02*
X007770Y011197D01*
X007611Y011039D02*
X009937Y011039D01*
X009937Y010880D02*
X007453Y010880D01*
X007294Y010722D02*
X009937Y010722D01*
X009937Y010563D02*
X007136Y010563D01*
X006977Y010405D02*
X009937Y010405D01*
X009937Y010246D02*
X006872Y010246D01*
X006872Y010088D02*
X009937Y010088D01*
X009937Y009929D02*
X006872Y009929D01*
X006872Y009771D02*
X009937Y009771D01*
X009937Y009612D02*
X006872Y009612D01*
X006872Y009454D02*
X009937Y009454D01*
X009937Y009295D02*
X007371Y009295D01*
X007475Y009137D02*
X009937Y009137D01*
X009937Y008978D02*
X007493Y008978D01*
X007440Y008820D02*
X009937Y008820D01*
X009937Y008661D02*
X007220Y008661D01*
X007187Y008503D02*
X009937Y008503D01*
X009937Y008344D02*
X007187Y008344D01*
X007148Y008186D02*
X009937Y008186D01*
X009937Y007710D02*
X006990Y007710D01*
X007756Y007552D02*
X007793Y007552D01*
X007793Y007393D02*
X007756Y007393D01*
X007793Y007235D02*
X009937Y007235D01*
X009937Y007393D02*
X008151Y007393D01*
X008134Y007552D02*
X009937Y007552D01*
X009937Y007076D02*
X008151Y007076D01*
X008151Y006959D02*
X008151Y007210D01*
X007793Y007210D01*
X007793Y006802D01*
X007995Y006802D01*
X008041Y006815D01*
X008082Y006838D01*
X008115Y006872D01*
X008139Y006913D01*
X008151Y006959D01*
X008140Y006918D02*
X009937Y006918D01*
X009937Y006759D02*
X006104Y006759D01*
X005620Y006442D02*
X003034Y006442D01*
X003034Y006284D02*
X005620Y006284D01*
X005795Y006125D02*
X003034Y006125D01*
X003034Y005967D02*
X007282Y005967D01*
X007440Y005808D02*
X003713Y005808D01*
X003722Y005650D02*
X007599Y005650D01*
X007757Y005491D02*
X003722Y005491D01*
X003722Y005497D02*
X003364Y005497D01*
X003364Y005100D01*
X003566Y005100D01*
X003611Y005112D01*
X003653Y005136D01*
X003686Y005169D01*
X003710Y005210D01*
X003722Y005256D01*
X003722Y005497D01*
X003722Y005333D02*
X007870Y005333D01*
X007870Y005174D02*
X003689Y005174D01*
X003364Y005174D02*
X003327Y005174D01*
X003327Y005333D02*
X003364Y005333D01*
X003364Y005491D02*
X003327Y005491D01*
X003327Y005650D02*
X003364Y005650D01*
X003364Y005808D02*
X003327Y005808D01*
X003034Y005016D02*
X007870Y005016D01*
X007870Y004857D02*
X003034Y004857D01*
X003034Y004699D02*
X007870Y004699D01*
X007870Y004540D02*
X003034Y004540D01*
X003034Y004382D02*
X007870Y004382D01*
X007870Y004223D02*
X003034Y004223D01*
X003034Y004065D02*
X007870Y004065D01*
X007870Y003906D02*
X003034Y003906D01*
X003034Y003748D02*
X007870Y003748D01*
X007852Y003589D02*
X003034Y003589D01*
X003327Y003431D02*
X003364Y003431D01*
X003364Y003471D02*
X003364Y003074D01*
X003722Y003074D01*
X003722Y003315D01*
X003710Y003361D01*
X003686Y003402D01*
X003653Y003435D01*
X003611Y003459D01*
X003566Y003471D01*
X003364Y003471D01*
X003364Y003272D02*
X003327Y003272D01*
X003327Y003114D02*
X003364Y003114D01*
X003722Y003114D02*
X007376Y003114D01*
X007535Y003272D02*
X003722Y003272D01*
X003657Y003431D02*
X007693Y003431D01*
X008052Y003114D02*
X008166Y003114D01*
X008325Y002955D02*
X007894Y002955D01*
X007735Y002797D02*
X008483Y002797D01*
X008642Y002638D02*
X007577Y002638D01*
X007418Y002480D02*
X008800Y002480D01*
X008959Y002321D02*
X007260Y002321D01*
X007059Y002797D02*
X003722Y002797D01*
X003722Y002955D02*
X007218Y002955D01*
X008349Y001687D02*
X003840Y001687D01*
X003840Y001529D02*
X008342Y001529D01*
X008342Y001370D02*
X003433Y001370D01*
X003433Y001371D02*
X003840Y001371D01*
X003840Y001918D01*
X003804Y002004D02*
X003771Y002038D01*
X003730Y002062D01*
X003684Y002074D01*
X003432Y002074D01*
X003432Y001371D01*
X003297Y001371D01*
X003297Y001236D01*
X002890Y001236D01*
X002890Y000689D01*
X002902Y000643D01*
X002926Y000602D01*
X002959Y000569D01*
X003000Y000545D01*
X003046Y000533D01*
X003297Y000533D01*
X003297Y001236D01*
X003432Y001236D01*
X003432Y000533D01*
X003684Y000533D01*
X003730Y000545D01*
X003771Y000569D01*
X003804Y000602D01*
X003828Y000643D01*
X003840Y000689D01*
X003840Y001236D01*
X003433Y001236D01*
X003433Y001371D01*
X003297Y001371D02*
X003297Y002074D01*
X003046Y002074D01*
X003000Y002062D01*
X002959Y002038D01*
X002926Y002004D01*
X002902Y001963D01*
X002890Y001918D01*
X002890Y001371D01*
X003297Y001371D01*
X003297Y001370D02*
X002473Y001370D01*
X002473Y001212D02*
X002890Y001212D01*
X002890Y001053D02*
X002465Y001053D01*
X002399Y000895D02*
X002890Y000895D01*
X002890Y000736D02*
X002321Y000736D01*
X002162Y000578D02*
X002950Y000578D01*
X003297Y000578D02*
X003432Y000578D01*
X003432Y000736D02*
X003297Y000736D01*
X003297Y000895D02*
X003432Y000895D01*
X003432Y001053D02*
X003297Y001053D01*
X003297Y001212D02*
X003432Y001212D01*
X003432Y001529D02*
X003297Y001529D01*
X003297Y001687D02*
X003432Y001687D01*
X003432Y001846D02*
X003297Y001846D01*
X003297Y002004D02*
X003432Y002004D01*
X002925Y002004D02*
X002027Y002004D01*
X002229Y001846D02*
X002890Y001846D01*
X002890Y001687D02*
X002361Y001687D01*
X002427Y001529D02*
X002890Y001529D01*
X003840Y001212D02*
X008750Y001212D01*
X008885Y001212D02*
X010975Y001212D01*
X010975Y001370D02*
X009293Y001370D01*
X009293Y001177D02*
X008885Y001177D01*
X008885Y000671D01*
X009137Y000671D01*
X009182Y000683D01*
X009223Y000706D01*
X009257Y000740D01*
X009281Y000781D01*
X009293Y000827D01*
X009293Y001177D01*
X009293Y001053D02*
X010975Y001053D01*
X010975Y000895D02*
X009293Y000895D01*
X009253Y000736D02*
X010975Y000736D01*
X010975Y000578D02*
X003780Y000578D01*
X003840Y000736D02*
X008382Y000736D01*
X008342Y000895D02*
X003840Y000895D01*
X003840Y001053D02*
X008342Y001053D01*
X008750Y001053D02*
X008885Y001053D01*
X008885Y000895D02*
X008750Y000895D01*
X008750Y000736D02*
X008885Y000736D01*
X008885Y001370D02*
X008750Y001370D01*
X008750Y001529D02*
X008885Y001529D01*
X008885Y001687D02*
X008750Y001687D01*
X008275Y005650D02*
X010060Y005650D01*
X009944Y005808D02*
X008117Y005808D01*
X007958Y005967D02*
X009937Y005967D01*
X009937Y006125D02*
X007800Y006125D01*
X007641Y006284D02*
X009937Y006284D01*
X009937Y006442D02*
X007483Y006442D01*
X007275Y006601D02*
X009937Y006601D01*
X007793Y006918D02*
X007756Y006918D01*
X007756Y007076D02*
X007793Y007076D01*
X004999Y007076D02*
X004999Y007076D01*
X004999Y006918D02*
X004999Y006918D01*
X004999Y007235D02*
X004999Y007235D01*
X004999Y007393D02*
X004999Y007393D01*
X004999Y007552D02*
X004999Y007552D01*
X001199Y002004D02*
X000859Y002004D01*
X000859Y001846D02*
X000998Y001846D01*
X000866Y001687D02*
X000859Y001687D01*
X018192Y002638D02*
X018306Y002638D01*
X018563Y002638D02*
X018609Y002638D01*
X018609Y002797D02*
X018563Y002797D01*
X018563Y002955D02*
X018609Y002955D01*
X019744Y002004D02*
X020084Y002004D01*
X020084Y001846D02*
X019945Y001846D01*
X020077Y001687D02*
X020084Y001687D01*
X020084Y003431D02*
X020016Y003431D01*
X020060Y003589D02*
X020084Y003589D01*
X020084Y003748D02*
X020060Y003748D01*
X020055Y003906D02*
X020084Y003906D01*
D29*
X019527Y004394D03*
X019527Y005871D03*
X019527Y007150D03*
X017558Y004394D03*
X019527Y002918D03*
X017657Y001146D03*
X015688Y001146D03*
X012145Y001146D03*
X010078Y001146D03*
X009684Y002426D03*
X010078Y003607D03*
X010078Y005083D03*
X009389Y006265D03*
X008306Y006265D03*
X006928Y005871D03*
X006535Y002918D03*
X006338Y001146D03*
X002105Y002918D03*
X003188Y008233D03*
X004566Y009119D03*
X006141Y009217D03*
X007125Y009020D03*
X007125Y010202D03*
X009291Y009709D03*
X009487Y012465D03*
X007125Y012957D03*
X007027Y014631D03*
X005550Y015615D03*
X003483Y013154D03*
X002893Y012170D03*
X002893Y010103D03*
X001613Y016599D03*
X012539Y008233D03*
X014310Y008036D03*
X015491Y008233D03*
X014901Y010202D03*
X015787Y011087D03*
X014802Y012957D03*
X013228Y012269D03*
X013917Y015713D03*
X016968Y016698D03*
X017854Y014335D03*
D30*
X016263Y013548D02*
X011062Y013548D01*
X010767Y013253D01*
X010767Y007446D01*
X011159Y007053D01*
X011352Y007053D01*
X011943Y007053D02*
X011943Y006073D01*
X011948Y006068D01*
X010472Y006068D01*
X010472Y013450D01*
X010865Y013843D01*
X015558Y013843D01*
X018830Y017115D01*
X018830Y016115D02*
X016263Y013548D01*
X015294Y010202D02*
X014901Y010202D01*
X015276Y010183D02*
X015276Y009454D01*
X015276Y010183D02*
X015294Y010202D01*
X017903Y007248D02*
X017914Y007238D01*
X017914Y006461D01*
X009684Y002426D02*
X009438Y002180D01*
X006731Y007228D02*
X006731Y008134D01*
X006928Y008331D01*
X006928Y009119D01*
X007027Y009119D01*
X007125Y009020D01*
X004565Y011261D02*
X002302Y011261D01*
X002302Y006757D01*
X001417Y006308D01*
X003188Y007938D02*
X003188Y008233D01*
X003248Y007998D02*
X003682Y007998D01*
X003248Y007998D02*
X003188Y007938D01*
X003483Y013154D02*
X002893Y013745D01*
X002893Y014631D01*
X002871Y014652D01*
X002242Y014652D01*
X017574Y019461D02*
X017846Y019461D01*
X018149Y019158D01*
X018149Y018076D01*
X018247Y017977D01*
X019527Y017977D01*
X019822Y017682D01*
X019822Y017123D01*
X019830Y017115D01*
D31*
X019330Y017682D02*
X019330Y016501D01*
X019716Y016115D01*
X019830Y016115D01*
X019330Y017682D02*
X018542Y017682D01*
X018247Y017387D01*
X018247Y016894D01*
X015491Y014139D01*
X010767Y014139D01*
X010176Y013548D01*
X010176Y005871D01*
X010275Y005772D01*
X012440Y005772D01*
X012834Y006166D01*
X014409Y006166D01*
X017361Y006166D01*
X017914Y005613D01*
X017914Y005083D01*
X018584Y005083D02*
X018585Y005085D01*
X019135Y005085D01*
X019132Y006462D02*
X018584Y006462D01*
X018583Y006461D01*
X017903Y007248D02*
X016862Y007248D01*
X016667Y007053D01*
X016077Y007053D01*
X016077Y009321D01*
X015983Y009414D01*
X015316Y009414D01*
X015276Y009454D01*
X014528Y009454D02*
X014470Y009512D01*
X011456Y009512D01*
X014305Y007053D02*
X014310Y007048D01*
X014310Y006265D01*
X014409Y006166D01*
X014896Y007053D02*
X014896Y008582D01*
X014902Y008588D01*
X017914Y003704D02*
X017897Y003687D01*
X017854Y003643D01*
X017854Y001835D01*
X009783Y001835D01*
X009438Y002180D01*
X008109Y003509D01*
X007027Y002426D01*
X002794Y002426D01*
X002794Y008627D01*
X002835Y008667D01*
X003682Y008667D01*
X003682Y007998D02*
X003700Y007981D01*
X003700Y007228D01*
X004566Y007228D02*
X004566Y009118D01*
X004566Y009119D01*
X005432Y009985D02*
X005432Y007228D01*
X005865Y007228D02*
X005865Y006382D01*
X005846Y006363D01*
X007224Y006363D01*
X008109Y005477D01*
X008109Y003509D01*
X006298Y007228D02*
X006298Y008193D01*
X006633Y008528D01*
X006633Y010398D01*
X010865Y014631D01*
X014605Y014631D01*
X015983Y016009D01*
X015983Y016871D01*
X017574Y018461D01*
X016574Y018461D02*
X015688Y017575D01*
X015688Y016009D01*
X014605Y014926D01*
X010865Y014926D01*
X006141Y010202D01*
X006141Y009217D01*
X005432Y009985D02*
X010668Y015221D01*
X014409Y015221D01*
X015294Y016107D01*
X015294Y018182D01*
X015574Y018461D01*
X004565Y014261D02*
X003877Y014949D01*
X003877Y015418D01*
X003860Y015400D01*
X002242Y015400D01*
X017897Y003687D02*
X017897Y003017D01*
X018584Y003704D02*
X018586Y003706D01*
X019132Y003706D01*
M02*
