G75*
G70*
%OFA0B0*%
%FSLAX24Y24*%
%IPPOS*%
%LPD*%
%AMOC8*
5,1,8,0,0,1.08239X$1,22.5*
%
%ADD10C,0.1340*%
%ADD11C,0.2600*%
%ADD12R,0.0493X0.0505*%
%ADD13R,0.0395X0.0395*%
%ADD14R,0.0474X0.0631*%
%ADD15R,0.0474X0.0513*%
%ADD16C,0.0680*%
%ADD17OC8,0.0680*%
%ADD18C,0.0680*%
%ADD19C,0.0552*%
%ADD20R,0.0474X0.1064*%
%ADD21R,0.0356X0.0572*%
%ADD22R,0.0474X0.0572*%
%ADD23R,0.0671X0.0867*%
%ADD24R,0.0671X0.1261*%
%ADD25R,0.0474X0.0552*%
%ADD26OC8,0.0930*%
%ADD27R,0.0631X0.0474*%
%ADD28R,0.0513X0.0474*%
%ADD29C,0.0456*%
D10*
X001613Y001245D03*
X019330Y001245D03*
X019330Y018961D03*
X001613Y018961D03*
D11*
X014015Y004099D03*
D12*
X017897Y003017D03*
X018586Y003017D03*
X018592Y007248D03*
X017903Y007248D03*
D13*
X019132Y006462D03*
X019723Y006462D03*
X019726Y005085D03*
X019135Y005085D03*
X019132Y003706D03*
X019722Y003706D03*
D14*
X014902Y008588D03*
X015276Y009454D03*
X014528Y009454D03*
D15*
X017914Y006461D03*
X018583Y006461D03*
X018584Y005083D03*
X017914Y005083D03*
X017914Y003704D03*
X018584Y003704D03*
D16*
X017574Y019461D03*
D17*
X016574Y019461D03*
X016574Y018461D03*
X017574Y018461D03*
X018830Y017115D03*
X018830Y016115D03*
X018830Y015115D03*
X018830Y014115D03*
X019830Y014115D03*
X019830Y015115D03*
X019830Y016115D03*
X019830Y017115D03*
X015574Y018461D03*
X015574Y019461D03*
D18*
X001717Y013308D02*
X001117Y013308D01*
X001117Y012308D02*
X001717Y012308D01*
X001717Y011308D02*
X001117Y011308D01*
X001117Y010308D02*
X001717Y010308D01*
X001717Y009308D02*
X001117Y009308D01*
X001117Y008308D02*
X001717Y008308D01*
X001717Y007308D02*
X001117Y007308D01*
X001117Y006308D02*
X001717Y006308D01*
D19*
X011456Y009512D03*
X011456Y012662D03*
D20*
X011352Y007053D03*
X011943Y007053D03*
X012533Y007053D03*
X013124Y007053D03*
X013714Y007053D03*
X014305Y007053D03*
X014896Y007053D03*
X015486Y007053D03*
X016077Y007053D03*
X016667Y007053D03*
X016667Y000951D03*
X011352Y000951D03*
D21*
X007164Y007228D03*
X006731Y007228D03*
X006298Y007228D03*
X005865Y007228D03*
X005432Y007228D03*
X004999Y007228D03*
X004566Y007228D03*
X004133Y007228D03*
X003700Y007228D03*
D22*
X007774Y007228D03*
D23*
X008818Y001244D03*
D24*
X003365Y001303D03*
D25*
X003345Y003055D03*
X003345Y005516D03*
D26*
X004565Y011261D03*
X004565Y014261D03*
D27*
X002242Y014652D03*
X002242Y015400D03*
X001376Y015026D03*
D28*
X003682Y008667D03*
X003682Y007998D03*
D29*
X003188Y008233D03*
X004566Y009119D03*
X006141Y009217D03*
X007125Y009020D03*
X007125Y010202D03*
X009291Y009709D03*
X009487Y012465D03*
X007125Y012957D03*
X007027Y014631D03*
X005550Y015615D03*
X003483Y013154D03*
X002893Y012170D03*
X002893Y010103D03*
X006928Y005871D03*
X008306Y006265D03*
X009389Y006265D03*
X010078Y005083D03*
X010078Y003607D03*
X009684Y002426D03*
X010078Y001146D03*
X012145Y001146D03*
X015688Y001146D03*
X017657Y001146D03*
X019527Y002918D03*
X019527Y004394D03*
X019527Y005871D03*
X019527Y007150D03*
X017558Y004394D03*
X014310Y008036D03*
X015491Y008233D03*
X014901Y010202D03*
X015787Y011087D03*
X014802Y012957D03*
X013228Y012269D03*
X013917Y015713D03*
X016968Y016698D03*
X017854Y014335D03*
X012539Y008233D03*
X006535Y002918D03*
X006338Y001146D03*
X002105Y002918D03*
X001613Y016599D03*
M02*
