G75*
G70*
%OFA0B0*%
%FSLAX24Y24*%
%IPPOS*%
%LPD*%
%AMOC8*
5,1,8,0,0,1.08239X$1,22.5*
%
%ADD10C,0.1340*%
%ADD11C,0.2600*%
%ADD12R,0.0671X0.0356*%
%ADD13R,0.0493X0.0505*%
%ADD14R,0.0926X0.0789*%
%ADD15C,0.0680*%
%ADD16OC8,0.0680*%
%ADD17C,0.0680*%
%ADD18C,0.0552*%
%ADD19OC8,0.0930*%
%ADD20C,0.0456*%
D10*
X001613Y001245D03*
X019330Y001245D03*
X019330Y018961D03*
X001613Y018961D03*
D11*
X014015Y004099D03*
D12*
X004885Y003163D03*
X004882Y002380D03*
X003859Y002378D03*
X003861Y002772D03*
X003864Y003165D03*
X003854Y005868D03*
X003856Y006263D03*
X003859Y006655D03*
X004880Y006653D03*
X004877Y005870D03*
D13*
X004812Y007248D03*
X004124Y007248D03*
X004124Y004394D03*
X004123Y003805D03*
X004812Y003805D03*
X004813Y004394D03*
X002154Y004001D03*
X001465Y004001D03*
X004419Y000950D03*
X005107Y000950D03*
D14*
X005245Y001640D03*
X004084Y001640D03*
X002686Y004787D03*
X001525Y004787D03*
X003887Y005083D03*
X005049Y005083D03*
D15*
X017574Y019461D03*
D16*
X016574Y019461D03*
X016574Y018461D03*
X017574Y018461D03*
X018830Y017115D03*
X018830Y016115D03*
X018830Y015115D03*
X018830Y014115D03*
X019830Y014115D03*
X019830Y015115D03*
X019830Y016115D03*
X019830Y017115D03*
X015574Y018461D03*
X015574Y019461D03*
D17*
X001717Y013308D02*
X001117Y013308D01*
X001117Y012308D02*
X001717Y012308D01*
X001717Y011308D02*
X001117Y011308D01*
X001117Y010308D02*
X001717Y010308D01*
X001717Y009308D02*
X001117Y009308D01*
X001117Y008308D02*
X001717Y008308D01*
X001717Y007308D02*
X001117Y007308D01*
X001117Y006308D02*
X001717Y006308D01*
D18*
X011456Y009512D03*
X011456Y012662D03*
D19*
X004565Y011261D03*
X004565Y014261D03*
D20*
X003483Y013154D03*
X002893Y012170D03*
X002893Y010103D03*
X004566Y009119D03*
X003188Y008233D03*
X006141Y009217D03*
X007125Y009020D03*
X007125Y010202D03*
X009291Y009709D03*
X009487Y012465D03*
X007125Y012957D03*
X007027Y014631D03*
X005550Y015615D03*
X001613Y016599D03*
X008306Y006265D03*
X009389Y006265D03*
X010078Y005083D03*
X010078Y003607D03*
X009684Y002426D03*
X010078Y001146D03*
X012145Y001146D03*
X015688Y001146D03*
X017657Y001146D03*
X019527Y002918D03*
X019527Y004394D03*
X019527Y005871D03*
X019527Y007150D03*
X017558Y004394D03*
X014310Y008036D03*
X015491Y008233D03*
X014901Y010202D03*
X015787Y011087D03*
X014802Y012957D03*
X013228Y012269D03*
X013917Y015713D03*
X016968Y016698D03*
X017854Y014335D03*
X012539Y008233D03*
X006928Y005871D03*
X006535Y002918D03*
X006338Y001146D03*
X002105Y002918D03*
M02*
