G75*
G70*
%OFA0B0*%
%FSLAX24Y24*%
%IPPOS*%
%LPD*%
%AMOC8*
5,1,8,0,0,1.08239X$1,22.5*
%
%ADD10C,0.0000*%
%ADD11R,0.0551X0.0118*%
%ADD12R,0.0118X0.0551*%
%ADD13R,0.1339X0.0315*%
%ADD14R,0.0236X0.0610*%
%ADD15R,0.0472X0.0709*%
%ADD16R,0.0413X0.0425*%
%ADD17R,0.0425X0.0413*%
%ADD18C,0.0540*%
%ADD19R,0.0394X0.0433*%
%ADD20R,0.0433X0.0394*%
%ADD21R,0.0236X0.0866*%
%ADD22OC8,0.0600*%
%ADD23R,0.0197X0.0256*%
%ADD24C,0.0600*%
%ADD25C,0.0600*%
%ADD26C,0.0472*%
%ADD27C,0.0079*%
%ADD28C,0.0297*%
%ADD29C,0.0500*%
%ADD30C,0.0118*%
%ADD31C,0.0160*%
%ADD32C,0.0063*%
D10*
X001614Y000834D02*
X019330Y000834D01*
X018700Y001819D02*
X018702Y001869D01*
X018708Y001919D01*
X018718Y001968D01*
X018732Y002016D01*
X018749Y002063D01*
X018770Y002108D01*
X018795Y002152D01*
X018823Y002193D01*
X018855Y002232D01*
X018889Y002269D01*
X018926Y002303D01*
X018966Y002333D01*
X019008Y002360D01*
X019052Y002384D01*
X019098Y002405D01*
X019145Y002421D01*
X019193Y002434D01*
X019243Y002443D01*
X019292Y002448D01*
X019343Y002449D01*
X019393Y002446D01*
X019442Y002439D01*
X019491Y002428D01*
X019539Y002413D01*
X019585Y002395D01*
X019630Y002373D01*
X019673Y002347D01*
X019714Y002318D01*
X019753Y002286D01*
X019789Y002251D01*
X019821Y002213D01*
X019851Y002173D01*
X019878Y002130D01*
X019901Y002086D01*
X019920Y002040D01*
X019936Y001992D01*
X019948Y001943D01*
X019956Y001894D01*
X019960Y001844D01*
X019960Y001794D01*
X019956Y001744D01*
X019948Y001695D01*
X019936Y001646D01*
X019920Y001598D01*
X019901Y001552D01*
X019878Y001508D01*
X019851Y001465D01*
X019821Y001425D01*
X019789Y001387D01*
X019753Y001352D01*
X019714Y001320D01*
X019673Y001291D01*
X019630Y001265D01*
X019585Y001243D01*
X019539Y001225D01*
X019491Y001210D01*
X019442Y001199D01*
X019393Y001192D01*
X019343Y001189D01*
X019292Y001190D01*
X019243Y001195D01*
X019193Y001204D01*
X019145Y001217D01*
X019098Y001233D01*
X019052Y001254D01*
X019008Y001278D01*
X018966Y001305D01*
X018926Y001335D01*
X018889Y001369D01*
X018855Y001406D01*
X018823Y001445D01*
X018795Y001486D01*
X018770Y001530D01*
X018749Y001575D01*
X018732Y001622D01*
X018718Y001670D01*
X018708Y001719D01*
X018702Y001769D01*
X018700Y001819D01*
X019330Y000835D02*
X019392Y000837D01*
X019453Y000843D01*
X019514Y000852D01*
X019575Y000866D01*
X019634Y000883D01*
X019692Y000904D01*
X019749Y000929D01*
X019804Y000957D01*
X019857Y000988D01*
X019908Y001023D01*
X019957Y001061D01*
X020004Y001102D01*
X020047Y001145D01*
X020088Y001192D01*
X020126Y001241D01*
X020161Y001292D01*
X020192Y001345D01*
X020220Y001400D01*
X020245Y001457D01*
X020266Y001515D01*
X020283Y001574D01*
X020297Y001635D01*
X020306Y001696D01*
X020312Y001757D01*
X020314Y001819D01*
X020314Y019535D01*
X018700Y019535D02*
X018702Y019585D01*
X018708Y019635D01*
X018718Y019684D01*
X018732Y019732D01*
X018749Y019779D01*
X018770Y019824D01*
X018795Y019868D01*
X018823Y019909D01*
X018855Y019948D01*
X018889Y019985D01*
X018926Y020019D01*
X018966Y020049D01*
X019008Y020076D01*
X019052Y020100D01*
X019098Y020121D01*
X019145Y020137D01*
X019193Y020150D01*
X019243Y020159D01*
X019292Y020164D01*
X019343Y020165D01*
X019393Y020162D01*
X019442Y020155D01*
X019491Y020144D01*
X019539Y020129D01*
X019585Y020111D01*
X019630Y020089D01*
X019673Y020063D01*
X019714Y020034D01*
X019753Y020002D01*
X019789Y019967D01*
X019821Y019929D01*
X019851Y019889D01*
X019878Y019846D01*
X019901Y019802D01*
X019920Y019756D01*
X019936Y019708D01*
X019948Y019659D01*
X019956Y019610D01*
X019960Y019560D01*
X019960Y019510D01*
X019956Y019460D01*
X019948Y019411D01*
X019936Y019362D01*
X019920Y019314D01*
X019901Y019268D01*
X019878Y019224D01*
X019851Y019181D01*
X019821Y019141D01*
X019789Y019103D01*
X019753Y019068D01*
X019714Y019036D01*
X019673Y019007D01*
X019630Y018981D01*
X019585Y018959D01*
X019539Y018941D01*
X019491Y018926D01*
X019442Y018915D01*
X019393Y018908D01*
X019343Y018905D01*
X019292Y018906D01*
X019243Y018911D01*
X019193Y018920D01*
X019145Y018933D01*
X019098Y018949D01*
X019052Y018970D01*
X019008Y018994D01*
X018966Y019021D01*
X018926Y019051D01*
X018889Y019085D01*
X018855Y019122D01*
X018823Y019161D01*
X018795Y019202D01*
X018770Y019246D01*
X018749Y019291D01*
X018732Y019338D01*
X018718Y019386D01*
X018708Y019435D01*
X018702Y019485D01*
X018700Y019535D01*
X019330Y020519D02*
X019392Y020517D01*
X019453Y020511D01*
X019514Y020502D01*
X019575Y020488D01*
X019634Y020471D01*
X019692Y020450D01*
X019749Y020425D01*
X019804Y020397D01*
X019857Y020366D01*
X019908Y020331D01*
X019957Y020293D01*
X020004Y020252D01*
X020047Y020209D01*
X020088Y020162D01*
X020126Y020113D01*
X020161Y020062D01*
X020192Y020009D01*
X020220Y019954D01*
X020245Y019897D01*
X020266Y019839D01*
X020283Y019780D01*
X020297Y019719D01*
X020306Y019658D01*
X020312Y019597D01*
X020314Y019535D01*
X019330Y020519D02*
X001614Y020519D01*
X000984Y019535D02*
X000986Y019585D01*
X000992Y019635D01*
X001002Y019684D01*
X001016Y019732D01*
X001033Y019779D01*
X001054Y019824D01*
X001079Y019868D01*
X001107Y019909D01*
X001139Y019948D01*
X001173Y019985D01*
X001210Y020019D01*
X001250Y020049D01*
X001292Y020076D01*
X001336Y020100D01*
X001382Y020121D01*
X001429Y020137D01*
X001477Y020150D01*
X001527Y020159D01*
X001576Y020164D01*
X001627Y020165D01*
X001677Y020162D01*
X001726Y020155D01*
X001775Y020144D01*
X001823Y020129D01*
X001869Y020111D01*
X001914Y020089D01*
X001957Y020063D01*
X001998Y020034D01*
X002037Y020002D01*
X002073Y019967D01*
X002105Y019929D01*
X002135Y019889D01*
X002162Y019846D01*
X002185Y019802D01*
X002204Y019756D01*
X002220Y019708D01*
X002232Y019659D01*
X002240Y019610D01*
X002244Y019560D01*
X002244Y019510D01*
X002240Y019460D01*
X002232Y019411D01*
X002220Y019362D01*
X002204Y019314D01*
X002185Y019268D01*
X002162Y019224D01*
X002135Y019181D01*
X002105Y019141D01*
X002073Y019103D01*
X002037Y019068D01*
X001998Y019036D01*
X001957Y019007D01*
X001914Y018981D01*
X001869Y018959D01*
X001823Y018941D01*
X001775Y018926D01*
X001726Y018915D01*
X001677Y018908D01*
X001627Y018905D01*
X001576Y018906D01*
X001527Y018911D01*
X001477Y018920D01*
X001429Y018933D01*
X001382Y018949D01*
X001336Y018970D01*
X001292Y018994D01*
X001250Y019021D01*
X001210Y019051D01*
X001173Y019085D01*
X001139Y019122D01*
X001107Y019161D01*
X001079Y019202D01*
X001054Y019246D01*
X001033Y019291D01*
X001016Y019338D01*
X001002Y019386D01*
X000992Y019435D01*
X000986Y019485D01*
X000984Y019535D01*
X000629Y019535D02*
X000629Y001819D01*
X000984Y001819D02*
X000986Y001869D01*
X000992Y001919D01*
X001002Y001968D01*
X001016Y002016D01*
X001033Y002063D01*
X001054Y002108D01*
X001079Y002152D01*
X001107Y002193D01*
X001139Y002232D01*
X001173Y002269D01*
X001210Y002303D01*
X001250Y002333D01*
X001292Y002360D01*
X001336Y002384D01*
X001382Y002405D01*
X001429Y002421D01*
X001477Y002434D01*
X001527Y002443D01*
X001576Y002448D01*
X001627Y002449D01*
X001677Y002446D01*
X001726Y002439D01*
X001775Y002428D01*
X001823Y002413D01*
X001869Y002395D01*
X001914Y002373D01*
X001957Y002347D01*
X001998Y002318D01*
X002037Y002286D01*
X002073Y002251D01*
X002105Y002213D01*
X002135Y002173D01*
X002162Y002130D01*
X002185Y002086D01*
X002204Y002040D01*
X002220Y001992D01*
X002232Y001943D01*
X002240Y001894D01*
X002244Y001844D01*
X002244Y001794D01*
X002240Y001744D01*
X002232Y001695D01*
X002220Y001646D01*
X002204Y001598D01*
X002185Y001552D01*
X002162Y001508D01*
X002135Y001465D01*
X002105Y001425D01*
X002073Y001387D01*
X002037Y001352D01*
X001998Y001320D01*
X001957Y001291D01*
X001914Y001265D01*
X001869Y001243D01*
X001823Y001225D01*
X001775Y001210D01*
X001726Y001199D01*
X001677Y001192D01*
X001627Y001189D01*
X001576Y001190D01*
X001527Y001195D01*
X001477Y001204D01*
X001429Y001217D01*
X001382Y001233D01*
X001336Y001254D01*
X001292Y001278D01*
X001250Y001305D01*
X001210Y001335D01*
X001173Y001369D01*
X001139Y001406D01*
X001107Y001445D01*
X001079Y001486D01*
X001054Y001530D01*
X001033Y001575D01*
X001016Y001622D01*
X001002Y001670D01*
X000992Y001719D01*
X000986Y001769D01*
X000984Y001819D01*
X000630Y001819D02*
X000632Y001757D01*
X000638Y001696D01*
X000647Y001635D01*
X000661Y001574D01*
X000678Y001515D01*
X000699Y001457D01*
X000724Y001400D01*
X000752Y001345D01*
X000783Y001292D01*
X000818Y001241D01*
X000856Y001192D01*
X000897Y001145D01*
X000940Y001102D01*
X000987Y001061D01*
X001036Y001023D01*
X001087Y000988D01*
X001140Y000957D01*
X001195Y000929D01*
X001252Y000904D01*
X001310Y000883D01*
X001369Y000866D01*
X001430Y000852D01*
X001491Y000843D01*
X001552Y000837D01*
X001614Y000835D01*
X018299Y005334D02*
X018301Y005360D01*
X018307Y005386D01*
X018317Y005411D01*
X018330Y005434D01*
X018346Y005454D01*
X018366Y005472D01*
X018388Y005487D01*
X018411Y005499D01*
X018437Y005507D01*
X018463Y005511D01*
X018489Y005511D01*
X018515Y005507D01*
X018541Y005499D01*
X018565Y005487D01*
X018586Y005472D01*
X018606Y005454D01*
X018622Y005434D01*
X018635Y005411D01*
X018645Y005386D01*
X018651Y005360D01*
X018653Y005334D01*
X018651Y005308D01*
X018645Y005282D01*
X018635Y005257D01*
X018622Y005234D01*
X018606Y005214D01*
X018586Y005196D01*
X018564Y005181D01*
X018541Y005169D01*
X018515Y005161D01*
X018489Y005157D01*
X018463Y005157D01*
X018437Y005161D01*
X018411Y005169D01*
X018387Y005181D01*
X018366Y005196D01*
X018346Y005214D01*
X018330Y005234D01*
X018317Y005257D01*
X018307Y005282D01*
X018301Y005308D01*
X018299Y005334D01*
X018299Y007067D02*
X018301Y007093D01*
X018307Y007119D01*
X018317Y007144D01*
X018330Y007167D01*
X018346Y007187D01*
X018366Y007205D01*
X018388Y007220D01*
X018411Y007232D01*
X018437Y007240D01*
X018463Y007244D01*
X018489Y007244D01*
X018515Y007240D01*
X018541Y007232D01*
X018565Y007220D01*
X018586Y007205D01*
X018606Y007187D01*
X018622Y007167D01*
X018635Y007144D01*
X018645Y007119D01*
X018651Y007093D01*
X018653Y007067D01*
X018651Y007041D01*
X018645Y007015D01*
X018635Y006990D01*
X018622Y006967D01*
X018606Y006947D01*
X018586Y006929D01*
X018564Y006914D01*
X018541Y006902D01*
X018515Y006894D01*
X018489Y006890D01*
X018463Y006890D01*
X018437Y006894D01*
X018411Y006902D01*
X018387Y006914D01*
X018366Y006929D01*
X018346Y006947D01*
X018330Y006967D01*
X018317Y006990D01*
X018307Y007015D01*
X018301Y007041D01*
X018299Y007067D01*
X001614Y020519D02*
X001552Y020517D01*
X001491Y020511D01*
X001430Y020502D01*
X001369Y020488D01*
X001310Y020471D01*
X001252Y020450D01*
X001195Y020425D01*
X001140Y020397D01*
X001087Y020366D01*
X001036Y020331D01*
X000987Y020293D01*
X000940Y020252D01*
X000897Y020209D01*
X000856Y020162D01*
X000818Y020113D01*
X000783Y020062D01*
X000752Y020009D01*
X000724Y019954D01*
X000699Y019897D01*
X000678Y019839D01*
X000661Y019780D01*
X000647Y019719D01*
X000638Y019658D01*
X000632Y019597D01*
X000630Y019535D01*
D11*
X006940Y010679D03*
X006940Y010482D03*
X006940Y010285D03*
X006940Y010088D03*
X006940Y009891D03*
X006940Y009694D03*
X006940Y009498D03*
X006940Y009301D03*
X006940Y009104D03*
X006940Y008907D03*
X006940Y008710D03*
X006940Y008513D03*
X006940Y008316D03*
X006940Y008120D03*
X006940Y007923D03*
X006940Y007726D03*
X006940Y007529D03*
X006940Y007332D03*
X006940Y007135D03*
X006940Y006938D03*
X006940Y006742D03*
X006940Y006545D03*
X006940Y006348D03*
X006940Y006151D03*
X006940Y005954D03*
X013019Y005954D03*
X013019Y006151D03*
X013019Y006348D03*
X013019Y006545D03*
X013019Y006742D03*
X013019Y006938D03*
X013019Y007135D03*
X013019Y007332D03*
X013019Y007529D03*
X013019Y007726D03*
X013019Y007923D03*
X013019Y008120D03*
X013019Y008316D03*
X013019Y008513D03*
X013019Y008710D03*
X013019Y008907D03*
X013019Y009104D03*
X013019Y009301D03*
X013019Y009498D03*
X013019Y009694D03*
X013019Y009891D03*
X013019Y010088D03*
X013019Y010285D03*
X013019Y010482D03*
X013019Y010679D03*
D12*
X012341Y011356D03*
X012144Y011356D03*
X011948Y011356D03*
X011751Y011356D03*
X011554Y011356D03*
X011357Y011356D03*
X011160Y011356D03*
X010963Y011356D03*
X010767Y011356D03*
X010570Y011356D03*
X010373Y011356D03*
X010176Y011356D03*
X009979Y011356D03*
X009782Y011356D03*
X009585Y011356D03*
X009389Y011356D03*
X009192Y011356D03*
X008995Y011356D03*
X008798Y011356D03*
X008601Y011356D03*
X008404Y011356D03*
X008207Y011356D03*
X008011Y011356D03*
X007814Y011356D03*
X007617Y011356D03*
X007617Y005277D03*
X007814Y005277D03*
X008011Y005277D03*
X008207Y005277D03*
X008404Y005277D03*
X008601Y005277D03*
X008798Y005277D03*
X008995Y005277D03*
X009192Y005277D03*
X009389Y005277D03*
X009585Y005277D03*
X009782Y005277D03*
X009979Y005277D03*
X010176Y005277D03*
X010373Y005277D03*
X010570Y005277D03*
X010767Y005277D03*
X010963Y005277D03*
X011160Y005277D03*
X011357Y005277D03*
X011554Y005277D03*
X011751Y005277D03*
X011948Y005277D03*
X012144Y005277D03*
X012341Y005277D03*
D13*
X003291Y006843D03*
X003287Y007823D03*
X003283Y008806D03*
D14*
X004173Y002891D03*
X004567Y002891D03*
X004960Y002891D03*
X005354Y002891D03*
X012735Y002892D03*
X013129Y002892D03*
X013523Y002892D03*
X013917Y002892D03*
X015691Y002892D03*
X016085Y002892D03*
X016478Y002892D03*
X016872Y002892D03*
D15*
X017384Y001366D03*
X015179Y001366D03*
X014428Y001367D03*
X012224Y001367D03*
X005866Y001366D03*
X003661Y001366D03*
D16*
X004714Y009888D03*
X005403Y009888D03*
X013084Y011417D03*
X013773Y011417D03*
D17*
X014115Y006197D03*
X014115Y005508D03*
D18*
X001682Y005564D02*
X001142Y005564D01*
X001142Y004564D02*
X001682Y004564D01*
X001685Y015395D02*
X001145Y015395D01*
X001145Y016395D02*
X001685Y016395D01*
D19*
X013878Y013532D03*
X013877Y012941D03*
X014546Y012941D03*
X014547Y013532D03*
G36*
X014451Y009843D02*
X014730Y010122D01*
X015035Y009817D01*
X014756Y009538D01*
X014451Y009843D01*
G37*
G36*
X013978Y009370D02*
X014257Y009649D01*
X014562Y009344D01*
X014283Y009065D01*
X013978Y009370D01*
G37*
D20*
X004763Y008059D03*
X004763Y007389D03*
D21*
X011887Y013492D03*
X012387Y013492D03*
X012887Y013492D03*
X013387Y013492D03*
X013387Y015539D03*
X012887Y015539D03*
X012387Y015539D03*
X011887Y015539D03*
D22*
X015574Y019035D03*
X015574Y020035D03*
X016574Y020035D03*
X016574Y019035D03*
X017574Y019035D03*
X018830Y017689D03*
X019830Y017689D03*
X019830Y016689D03*
X019830Y015689D03*
X018830Y015689D03*
X018830Y016689D03*
X018830Y014689D03*
X019830Y014689D03*
X019838Y012555D03*
X018838Y012555D03*
X017838Y012555D03*
X017838Y011555D03*
X018838Y011555D03*
X018838Y010488D03*
X018838Y009488D03*
X017838Y009488D03*
X017838Y010488D03*
X019838Y010488D03*
X011390Y002417D03*
X010390Y002417D03*
X009390Y002417D03*
X008390Y002417D03*
X007390Y002417D03*
X007390Y001417D03*
X008390Y001417D03*
X009390Y001417D03*
X010390Y001417D03*
X011390Y001417D03*
D23*
X011042Y003147D03*
X010727Y003147D03*
X010412Y003147D03*
X010097Y003147D03*
X010097Y003639D03*
X010412Y003639D03*
X010727Y003639D03*
X011042Y003639D03*
X009271Y003640D03*
X008956Y003640D03*
X008641Y003640D03*
X008326Y003640D03*
X008326Y003147D03*
X008641Y003147D03*
X008956Y003147D03*
X009271Y003147D03*
D24*
X001717Y006881D02*
X001117Y006881D01*
X001117Y007881D02*
X001717Y007881D01*
X001717Y008881D02*
X001117Y008881D01*
X001117Y009881D02*
X001717Y009881D01*
X001717Y010881D02*
X001117Y010881D01*
X001117Y011881D02*
X001717Y011881D01*
X001717Y012881D02*
X001117Y012881D01*
X001117Y013881D02*
X001717Y013881D01*
X003577Y018042D02*
X004177Y018042D01*
X004955Y018043D02*
X005555Y018043D01*
X006333Y018044D02*
X006933Y018044D01*
X007711Y018043D02*
X008311Y018043D01*
X009088Y018043D02*
X009688Y018043D01*
X010566Y018043D02*
X011166Y018043D01*
X011943Y018043D02*
X012543Y018043D01*
X013322Y018043D02*
X013922Y018043D01*
X013922Y019043D02*
X013322Y019043D01*
X012543Y019043D02*
X011943Y019043D01*
X011166Y019043D02*
X010566Y019043D01*
X009688Y019043D02*
X009088Y019043D01*
X008311Y019043D02*
X007711Y019043D01*
X006933Y019044D02*
X006333Y019044D01*
X005555Y019043D02*
X004955Y019043D01*
X004177Y019042D02*
X003577Y019042D01*
X003577Y020042D02*
X004177Y020042D01*
X004955Y020043D02*
X005555Y020043D01*
X006333Y020044D02*
X006933Y020044D01*
X007711Y020043D02*
X008311Y020043D01*
X009088Y020043D02*
X009688Y020043D01*
X010566Y020043D02*
X011166Y020043D01*
X011943Y020043D02*
X012543Y020043D01*
X013322Y020043D02*
X013922Y020043D01*
D25*
X017574Y020035D03*
X019838Y011555D03*
X019838Y009488D03*
D26*
X015098Y006149D03*
X015098Y005460D03*
D27*
X015295Y005657D01*
X015491Y005657D01*
X015984Y006149D01*
X015984Y007822D01*
X016082Y007921D01*
X016377Y007921D01*
X016771Y007527D01*
X016771Y004968D01*
X016476Y004673D01*
X013425Y004673D01*
X012820Y005277D01*
X012341Y005277D01*
X012538Y005100D02*
X012747Y005100D01*
X013247Y004599D01*
X013351Y004496D01*
X016549Y004496D01*
X016844Y004791D01*
X016948Y004895D01*
X016948Y007601D01*
X016554Y007994D01*
X016451Y008098D01*
X016009Y008098D01*
X015910Y008000D01*
X015806Y007896D01*
X015806Y007561D01*
X015762Y007606D01*
X015720Y007606D01*
X015654Y007672D01*
X015548Y007715D01*
X015536Y007715D01*
X016746Y008925D01*
X016993Y008925D01*
X017381Y008536D01*
X017381Y003964D01*
X016501Y003964D01*
X016397Y003860D01*
X016009Y003472D01*
X016009Y003472D01*
X015905Y003368D01*
X015905Y003330D01*
X015888Y003313D01*
X015866Y003335D01*
X015516Y003335D01*
X015435Y003254D01*
X015435Y002530D01*
X015473Y002492D01*
X015473Y002430D01*
X014704Y002430D01*
X014704Y002988D01*
X014750Y003034D01*
X014794Y003139D01*
X014794Y003253D01*
X014750Y003359D01*
X014670Y003439D01*
X014564Y003483D01*
X014450Y003483D01*
X014345Y003439D01*
X014264Y003359D01*
X014221Y003253D01*
X014221Y003139D01*
X014264Y003034D01*
X014310Y002988D01*
X014310Y002430D01*
X012953Y002430D01*
X012953Y002450D01*
X012954Y002449D01*
X013304Y002449D01*
X013326Y002471D01*
X013348Y002449D01*
X013698Y002449D01*
X013720Y002471D01*
X013745Y002457D01*
X013780Y002448D01*
X013897Y002448D01*
X013897Y002873D01*
X013936Y002873D01*
X013936Y002912D01*
X013897Y002912D01*
X013897Y003337D01*
X013780Y003337D01*
X013745Y003327D01*
X013720Y003313D01*
X013698Y003335D01*
X013635Y003335D01*
X013596Y003374D01*
X013331Y003639D01*
X013405Y003714D01*
X013695Y004004D01*
X014574Y004004D01*
X014640Y003938D01*
X014745Y003894D01*
X014859Y003894D01*
X014965Y003938D01*
X015045Y004018D01*
X015089Y004124D01*
X015089Y004238D01*
X015045Y004343D01*
X014965Y004424D01*
X014859Y004467D01*
X014745Y004467D01*
X014640Y004424D01*
X014574Y004358D01*
X013548Y004358D01*
X013154Y003964D01*
X012022Y003964D01*
X011535Y004451D01*
X011431Y004555D01*
X010939Y004555D01*
X010747Y004746D01*
X010747Y004864D01*
X011975Y004864D01*
X011975Y004702D01*
X011976Y004701D01*
X012075Y004602D01*
X012401Y004602D01*
X012475Y004528D01*
X012580Y004485D01*
X012694Y004485D01*
X012799Y004528D01*
X012880Y004609D01*
X012924Y004714D01*
X012924Y004828D01*
X012880Y004934D01*
X012799Y005014D01*
X012694Y005058D01*
X012580Y005058D01*
X012538Y005040D01*
X012538Y005100D01*
X012538Y005082D02*
X012764Y005082D01*
X012808Y005005D02*
X012842Y005005D01*
X012882Y004928D02*
X012919Y004928D01*
X012914Y004851D02*
X012996Y004851D01*
X012924Y004774D02*
X013073Y004774D01*
X013151Y004696D02*
X012916Y004696D01*
X012884Y004619D02*
X013228Y004619D01*
X013305Y004542D02*
X012813Y004542D01*
X012461Y004542D02*
X011444Y004542D01*
X011521Y004465D02*
X014739Y004465D01*
X014866Y004465D02*
X017381Y004465D01*
X017381Y004542D02*
X016595Y004542D01*
X016672Y004619D02*
X017381Y004619D01*
X017381Y004696D02*
X016750Y004696D01*
X016827Y004774D02*
X017381Y004774D01*
X017381Y004851D02*
X016904Y004851D01*
X016948Y004928D02*
X017381Y004928D01*
X017381Y005005D02*
X016948Y005005D01*
X016948Y005082D02*
X017381Y005082D01*
X017381Y005160D02*
X016948Y005160D01*
X016948Y005237D02*
X017381Y005237D01*
X017381Y005314D02*
X016948Y005314D01*
X016948Y005391D02*
X017381Y005391D01*
X017381Y005469D02*
X016948Y005469D01*
X016948Y005546D02*
X017381Y005546D01*
X017381Y005623D02*
X016948Y005623D01*
X016948Y005700D02*
X017381Y005700D01*
X017381Y005778D02*
X016948Y005778D01*
X016948Y005855D02*
X017381Y005855D01*
X017381Y005932D02*
X016948Y005932D01*
X016948Y006009D02*
X017381Y006009D01*
X017381Y006087D02*
X016948Y006087D01*
X016948Y006164D02*
X017381Y006164D01*
X017381Y006241D02*
X016948Y006241D01*
X016948Y006318D02*
X017381Y006318D01*
X017381Y006396D02*
X016948Y006396D01*
X016948Y006473D02*
X017381Y006473D01*
X017381Y006550D02*
X016948Y006550D01*
X016948Y006627D02*
X017381Y006627D01*
X017381Y006705D02*
X016948Y006705D01*
X016948Y006782D02*
X017381Y006782D01*
X017381Y006859D02*
X016948Y006859D01*
X016948Y006936D02*
X017381Y006936D01*
X017381Y007013D02*
X016948Y007013D01*
X016948Y007091D02*
X017381Y007091D01*
X017381Y007168D02*
X016948Y007168D01*
X016948Y007245D02*
X017381Y007245D01*
X017381Y007322D02*
X016948Y007322D01*
X016948Y007400D02*
X017381Y007400D01*
X017381Y007477D02*
X016948Y007477D01*
X016948Y007554D02*
X017381Y007554D01*
X017381Y007631D02*
X016917Y007631D01*
X016840Y007709D02*
X017381Y007709D01*
X017381Y007786D02*
X016763Y007786D01*
X016686Y007863D02*
X017381Y007863D01*
X017381Y007940D02*
X016608Y007940D01*
X016531Y008018D02*
X017381Y008018D01*
X017381Y008095D02*
X016454Y008095D01*
X016148Y008327D02*
X017381Y008327D01*
X017381Y008404D02*
X016225Y008404D01*
X016302Y008481D02*
X017381Y008481D01*
X017359Y008558D02*
X016379Y008558D01*
X016457Y008636D02*
X017282Y008636D01*
X017205Y008713D02*
X016534Y008713D01*
X016611Y008790D02*
X017128Y008790D01*
X017050Y008867D02*
X016688Y008867D01*
X016673Y009102D02*
X017066Y009102D01*
X017558Y008610D01*
X017558Y003885D01*
X017460Y003787D01*
X016574Y003787D01*
X016082Y003295D01*
X016082Y002894D01*
X016085Y002892D01*
X016476Y002894D02*
X016476Y003393D01*
X016673Y003590D01*
X017558Y003590D01*
X017755Y003787D01*
X017755Y008708D01*
X017165Y009299D01*
X016574Y009299D01*
X014802Y007527D01*
X013523Y007527D01*
X013328Y007332D01*
X013019Y007332D01*
X013019Y007135D02*
X013426Y007135D01*
X013621Y007330D01*
X014901Y007330D01*
X016673Y009102D01*
X016476Y009496D02*
X017830Y009496D01*
X017838Y009488D01*
X017525Y009794D02*
X016456Y009794D01*
X016456Y009717D02*
X017448Y009717D01*
X017404Y009673D02*
X017657Y009926D01*
X018019Y009926D01*
X018276Y009669D01*
X018276Y009306D01*
X018019Y009050D01*
X017664Y009050D01*
X017829Y008885D01*
X017932Y008782D01*
X017932Y003714D01*
X017736Y003517D01*
X017632Y003413D01*
X016746Y003413D01*
X016661Y003328D01*
X016676Y003313D01*
X016700Y003327D01*
X016735Y003336D01*
X016852Y003336D01*
X016852Y002912D01*
X016892Y002912D01*
X016892Y003336D01*
X017008Y003336D01*
X017044Y003327D01*
X017076Y003309D01*
X017102Y003283D01*
X017120Y003251D01*
X017129Y003215D01*
X017129Y002912D01*
X016892Y002912D01*
X016892Y002872D01*
X017129Y002872D01*
X017129Y002568D01*
X017120Y002533D01*
X017102Y002501D01*
X017076Y002475D01*
X017044Y002457D01*
X017008Y002447D01*
X016892Y002447D01*
X016892Y002872D01*
X016852Y002872D01*
X016852Y002447D01*
X016735Y002447D01*
X016700Y002457D01*
X016676Y002471D01*
X016653Y002449D01*
X016303Y002449D01*
X016281Y002471D01*
X016260Y002449D01*
X015909Y002449D01*
X015909Y002450D01*
X015909Y002125D01*
X015906Y002122D01*
X015779Y001994D01*
X012645Y001994D01*
X012518Y002122D01*
X012518Y002492D01*
X012480Y002530D01*
X012480Y003216D01*
X011743Y003216D01*
X011743Y003139D01*
X011717Y003078D01*
X011726Y003078D01*
X012022Y002783D01*
X012125Y002679D01*
X012125Y001902D01*
X012082Y001859D01*
X012517Y001859D01*
X012598Y001778D01*
X012598Y001024D01*
X014054Y001024D01*
X014054Y001778D01*
X014135Y001859D01*
X014722Y001859D01*
X014802Y001778D01*
X014802Y001024D01*
X014805Y001024D01*
X014805Y001778D01*
X014886Y001858D01*
X015472Y001858D01*
X015553Y001778D01*
X015553Y001024D01*
X017010Y001024D01*
X017010Y001778D01*
X017090Y001858D01*
X017677Y001858D01*
X017758Y001778D01*
X017758Y001024D01*
X019108Y001024D01*
X018866Y001124D01*
X018635Y001354D01*
X018511Y001656D01*
X018511Y001981D01*
X018635Y002283D01*
X018866Y002513D01*
X019167Y002638D01*
X019493Y002638D01*
X019794Y002513D01*
X020025Y002283D01*
X020125Y002040D01*
X020125Y009153D01*
X020124Y009153D01*
X020068Y009112D01*
X020007Y009081D01*
X019941Y009059D01*
X019877Y009049D01*
X019877Y009448D01*
X019799Y009448D01*
X019799Y009049D01*
X019735Y009059D01*
X019669Y009081D01*
X019608Y009112D01*
X019552Y009153D01*
X019503Y009202D01*
X019462Y009258D01*
X019431Y009319D01*
X019409Y009385D01*
X019399Y009448D01*
X019799Y009448D01*
X019799Y009527D01*
X019799Y009926D01*
X019735Y009916D01*
X019669Y009895D01*
X019608Y009864D01*
X019552Y009823D01*
X019503Y009774D01*
X019462Y009718D01*
X019431Y009656D01*
X019409Y009591D01*
X019399Y009527D01*
X019799Y009527D01*
X019877Y009527D01*
X019877Y009926D01*
X019941Y009916D01*
X020007Y009895D01*
X020068Y009864D01*
X020124Y009823D01*
X020125Y009822D01*
X020125Y010153D01*
X020020Y010048D01*
X019877Y010048D01*
X019877Y010448D01*
X019799Y010448D01*
X019799Y010048D01*
X019656Y010048D01*
X019399Y010306D01*
X019399Y010448D01*
X019799Y010448D01*
X019799Y010527D01*
X019799Y010927D01*
X019656Y010927D01*
X019399Y010670D01*
X019399Y010527D01*
X019799Y010527D01*
X019877Y010527D01*
X019877Y010927D01*
X020020Y010927D01*
X020125Y010822D01*
X020125Y011220D01*
X020124Y011220D01*
X020068Y011179D01*
X020007Y011148D01*
X019941Y011126D01*
X019877Y011116D01*
X019877Y011515D01*
X019799Y011515D01*
X019799Y011116D01*
X019735Y011126D01*
X019669Y011148D01*
X019608Y011179D01*
X019552Y011220D01*
X019503Y011268D01*
X019462Y011324D01*
X019431Y011386D01*
X019409Y011452D01*
X019399Y011515D01*
X019799Y011515D01*
X019799Y011594D01*
X019799Y011993D01*
X019735Y011983D01*
X019669Y011962D01*
X019608Y011931D01*
X019552Y011890D01*
X019503Y011841D01*
X019462Y011785D01*
X019431Y011723D01*
X019409Y011658D01*
X019399Y011594D01*
X019799Y011594D01*
X019877Y011594D01*
X019877Y011993D01*
X019941Y011983D01*
X020007Y011962D01*
X020068Y011931D01*
X020124Y011890D01*
X020125Y011889D01*
X020125Y012220D01*
X020020Y012115D01*
X019877Y012115D01*
X019877Y012515D01*
X019799Y012515D01*
X019799Y012115D01*
X019656Y012115D01*
X019399Y012373D01*
X019399Y012515D01*
X019799Y012515D01*
X019799Y012594D01*
X019799Y012994D01*
X019656Y012994D01*
X019399Y012737D01*
X019399Y012594D01*
X019799Y012594D01*
X019877Y012594D01*
X019877Y012994D01*
X020020Y012994D01*
X020125Y012889D01*
X020125Y014364D01*
X020011Y014251D01*
X019696Y014251D01*
X019696Y014052D01*
X019597Y013952D01*
X018317Y013952D01*
X016940Y012575D01*
X016940Y012475D01*
X017086Y012620D01*
X017190Y012724D01*
X017400Y012724D01*
X017400Y012736D01*
X017657Y012993D01*
X018019Y012993D01*
X018276Y012736D01*
X018276Y012373D01*
X018019Y012117D01*
X017657Y012117D01*
X017404Y012370D01*
X017337Y012370D01*
X017243Y012277D01*
X017243Y011740D01*
X017404Y011740D01*
X017657Y011993D01*
X018019Y011993D01*
X018276Y011736D01*
X018276Y011373D01*
X018019Y011117D01*
X017657Y011117D01*
X017400Y011373D01*
X017400Y011385D01*
X017337Y011385D01*
X016608Y010657D01*
X017400Y010657D01*
X017400Y010669D01*
X017657Y010926D01*
X018019Y010926D01*
X018276Y010669D01*
X018276Y010306D01*
X018019Y010050D01*
X017657Y010050D01*
X017404Y010303D01*
X016549Y010303D01*
X016456Y010210D01*
X016456Y009673D01*
X017404Y009673D01*
X017602Y009871D02*
X016456Y009871D01*
X016456Y009949D02*
X020125Y009949D01*
X020125Y010026D02*
X016456Y010026D01*
X016456Y010103D02*
X017603Y010103D01*
X017526Y010180D02*
X016456Y010180D01*
X016504Y010258D02*
X017449Y010258D01*
X017830Y010480D02*
X017838Y010488D01*
X017830Y010480D02*
X016476Y010480D01*
X016279Y010283D01*
X016279Y009594D01*
X014608Y007923D01*
X013019Y007923D01*
X013019Y008120D02*
X014505Y008120D01*
X014507Y008118D01*
X016082Y009693D01*
X016082Y010381D01*
X017263Y011563D01*
X017830Y011563D01*
X017838Y011555D01*
X017512Y011262D02*
X017213Y011262D01*
X017290Y011339D02*
X017435Y011339D01*
X017589Y011184D02*
X017136Y011184D01*
X017058Y011107D02*
X020125Y011107D01*
X020125Y011030D02*
X016981Y011030D01*
X016904Y010953D02*
X020125Y010953D01*
X020125Y010876D02*
X020072Y010876D01*
X019877Y010876D02*
X019799Y010876D01*
X019799Y010798D02*
X019877Y010798D01*
X019877Y010721D02*
X019799Y010721D01*
X019799Y010644D02*
X019877Y010644D01*
X019877Y010567D02*
X019799Y010567D01*
X019799Y010489D02*
X019276Y010489D01*
X019276Y010412D02*
X019399Y010412D01*
X019399Y010335D02*
X019276Y010335D01*
X019276Y010306D02*
X019019Y010050D01*
X018657Y010050D01*
X018400Y010306D01*
X018400Y010669D01*
X018657Y010926D01*
X019019Y010926D01*
X019276Y010669D01*
X019276Y010306D01*
X019227Y010258D02*
X019447Y010258D01*
X019524Y010180D02*
X019150Y010180D01*
X019072Y010103D02*
X019601Y010103D01*
X019799Y010103D02*
X019877Y010103D01*
X019877Y010180D02*
X019799Y010180D01*
X019799Y010258D02*
X019877Y010258D01*
X019877Y010335D02*
X019799Y010335D01*
X019799Y010412D02*
X019877Y010412D01*
X020075Y010103D02*
X020125Y010103D01*
X020125Y009871D02*
X020053Y009871D01*
X019877Y009871D02*
X019799Y009871D01*
X019799Y009794D02*
X019877Y009794D01*
X019877Y009717D02*
X019799Y009717D01*
X019799Y009640D02*
X019877Y009640D01*
X019877Y009562D02*
X019799Y009562D01*
X019799Y009485D02*
X019276Y009485D01*
X019276Y009408D02*
X019406Y009408D01*
X019427Y009331D02*
X019276Y009331D01*
X019276Y009306D02*
X019019Y009050D01*
X018657Y009050D01*
X018400Y009306D01*
X018400Y009669D01*
X018657Y009926D01*
X019019Y009926D01*
X019276Y009669D01*
X019276Y009306D01*
X019223Y009253D02*
X019465Y009253D01*
X019528Y009176D02*
X019145Y009176D01*
X019068Y009099D02*
X019633Y009099D01*
X019799Y009099D02*
X019877Y009099D01*
X019877Y009176D02*
X019799Y009176D01*
X019799Y009253D02*
X019877Y009253D01*
X019877Y009331D02*
X019799Y009331D01*
X019799Y009408D02*
X019877Y009408D01*
X020043Y009099D02*
X020125Y009099D01*
X020125Y009022D02*
X017692Y009022D01*
X017770Y008944D02*
X020125Y008944D01*
X020125Y008867D02*
X017847Y008867D01*
X017924Y008790D02*
X020125Y008790D01*
X020125Y008713D02*
X017932Y008713D01*
X017932Y008636D02*
X020125Y008636D01*
X020125Y008558D02*
X017932Y008558D01*
X017932Y008481D02*
X020125Y008481D01*
X020125Y008404D02*
X017932Y008404D01*
X017932Y008327D02*
X020125Y008327D01*
X020125Y008249D02*
X017932Y008249D01*
X017932Y008172D02*
X020125Y008172D01*
X020125Y008095D02*
X017932Y008095D01*
X017932Y008018D02*
X020125Y008018D01*
X020125Y007940D02*
X017932Y007940D01*
X017932Y007863D02*
X020125Y007863D01*
X020125Y007786D02*
X017932Y007786D01*
X017932Y007709D02*
X020125Y007709D01*
X020125Y007631D02*
X017932Y007631D01*
X017932Y007554D02*
X020125Y007554D01*
X020125Y007477D02*
X017932Y007477D01*
X017932Y007400D02*
X018322Y007400D01*
X018268Y007377D02*
X018403Y007433D01*
X018549Y007433D01*
X018683Y007377D01*
X018786Y007274D01*
X018842Y007139D01*
X018842Y006994D01*
X018786Y006859D01*
X018683Y006756D01*
X018549Y006700D01*
X018403Y006700D01*
X018268Y006756D01*
X018165Y006859D01*
X017932Y006859D01*
X017932Y006782D02*
X018242Y006782D01*
X018165Y006859D02*
X018109Y006994D01*
X018109Y007139D01*
X018165Y007274D01*
X018268Y007377D01*
X018213Y007322D02*
X017932Y007322D01*
X017932Y007245D02*
X018153Y007245D01*
X018121Y007168D02*
X017932Y007168D01*
X017932Y007091D02*
X018109Y007091D01*
X018109Y007013D02*
X017932Y007013D01*
X017932Y006936D02*
X018133Y006936D01*
X017932Y006705D02*
X018392Y006705D01*
X018560Y006705D02*
X020125Y006705D01*
X020125Y006782D02*
X018709Y006782D01*
X018786Y006859D02*
X020125Y006859D01*
X020125Y006936D02*
X018818Y006936D01*
X018842Y007013D02*
X020125Y007013D01*
X020125Y007091D02*
X018842Y007091D01*
X018830Y007168D02*
X020125Y007168D01*
X020125Y007245D02*
X018798Y007245D01*
X018738Y007322D02*
X020125Y007322D01*
X020125Y007400D02*
X018629Y007400D01*
X017932Y006627D02*
X020125Y006627D01*
X020125Y006550D02*
X017932Y006550D01*
X017932Y006473D02*
X020125Y006473D01*
X020125Y006396D02*
X017932Y006396D01*
X017932Y006318D02*
X020125Y006318D01*
X020125Y006241D02*
X017932Y006241D01*
X017932Y006164D02*
X020125Y006164D01*
X020125Y006087D02*
X017932Y006087D01*
X017932Y006009D02*
X020125Y006009D01*
X020125Y005932D02*
X017932Y005932D01*
X017932Y005855D02*
X020125Y005855D01*
X020125Y005778D02*
X017932Y005778D01*
X017932Y005700D02*
X018402Y005700D01*
X018403Y005701D02*
X018268Y005645D01*
X018165Y005542D01*
X018109Y005407D01*
X018109Y005261D01*
X018165Y005127D01*
X018268Y005024D01*
X018403Y004968D01*
X018549Y004968D01*
X018683Y005024D01*
X018786Y005127D01*
X018842Y005261D01*
X018842Y005407D01*
X018786Y005542D01*
X018683Y005645D01*
X018549Y005701D01*
X018403Y005701D01*
X018550Y005700D02*
X020125Y005700D01*
X020125Y005623D02*
X018705Y005623D01*
X018782Y005546D02*
X020125Y005546D01*
X020125Y005469D02*
X018817Y005469D01*
X018842Y005391D02*
X020125Y005391D01*
X020125Y005314D02*
X018842Y005314D01*
X018832Y005237D02*
X020125Y005237D01*
X020125Y005160D02*
X018800Y005160D01*
X018742Y005082D02*
X020125Y005082D01*
X020125Y005005D02*
X018639Y005005D01*
X018312Y005005D02*
X017932Y005005D01*
X017932Y004928D02*
X020125Y004928D01*
X020125Y004851D02*
X017932Y004851D01*
X017932Y004774D02*
X020125Y004774D01*
X020125Y004696D02*
X017932Y004696D01*
X017932Y004619D02*
X020125Y004619D01*
X020125Y004542D02*
X017932Y004542D01*
X017932Y004465D02*
X020125Y004465D01*
X020125Y004387D02*
X017932Y004387D01*
X017932Y004310D02*
X020125Y004310D01*
X020125Y004233D02*
X017932Y004233D01*
X017932Y004156D02*
X020125Y004156D01*
X020125Y004078D02*
X017932Y004078D01*
X017932Y004001D02*
X020125Y004001D01*
X020125Y003924D02*
X017932Y003924D01*
X017932Y003847D02*
X020125Y003847D01*
X020125Y003769D02*
X017932Y003769D01*
X017911Y003692D02*
X020125Y003692D01*
X020125Y003615D02*
X017834Y003615D01*
X017756Y003538D02*
X020125Y003538D01*
X020125Y003460D02*
X017679Y003460D01*
X017381Y004001D02*
X015028Y004001D01*
X015070Y004078D02*
X017381Y004078D01*
X017381Y004156D02*
X015089Y004156D01*
X015089Y004233D02*
X017381Y004233D01*
X017381Y004310D02*
X015059Y004310D01*
X015001Y004387D02*
X017381Y004387D01*
X017932Y005082D02*
X018209Y005082D01*
X018151Y005160D02*
X017932Y005160D01*
X017932Y005237D02*
X018119Y005237D01*
X018109Y005314D02*
X017932Y005314D01*
X017932Y005391D02*
X018109Y005391D01*
X018135Y005469D02*
X017932Y005469D01*
X017932Y005546D02*
X018169Y005546D01*
X018246Y005623D02*
X017932Y005623D01*
X016574Y005067D02*
X016377Y004870D01*
X013523Y004870D01*
X013228Y005165D01*
X013228Y005854D01*
X013226Y005954D01*
X013019Y005954D01*
X013019Y006151D02*
X013019Y006151D01*
X013351Y006151D01*
X013019Y006151D01*
X013423Y006151D01*
X013523Y006149D01*
X013523Y005510D01*
X014115Y005508D01*
X014076Y005546D02*
X013405Y005546D01*
X013405Y005623D02*
X013763Y005623D01*
X013763Y005548D02*
X013763Y005733D01*
X013773Y005769D01*
X013791Y005801D01*
X013817Y005826D01*
X013849Y005845D01*
X013878Y005853D01*
X013845Y005853D01*
X013765Y005933D01*
X013765Y006156D01*
X013731Y006171D01*
X013433Y006171D01*
X013433Y006151D01*
X013351Y006151D01*
X013351Y006151D01*
X013351Y006151D01*
X013433Y006151D01*
X013433Y006074D01*
X013432Y006068D01*
X013432Y005838D01*
X013406Y005812D01*
X013406Y005784D01*
X013405Y005782D01*
X013405Y005238D01*
X013596Y005047D01*
X016304Y005047D01*
X016397Y005140D01*
X016397Y007142D01*
X016320Y007142D01*
X016215Y007186D01*
X016161Y007240D01*
X016161Y006076D01*
X015669Y005584D01*
X015565Y005480D01*
X015472Y005480D01*
X015472Y005386D01*
X015415Y005248D01*
X015310Y005143D01*
X015172Y005086D01*
X015023Y005086D01*
X014886Y005143D01*
X014781Y005248D01*
X014724Y005386D01*
X014724Y005535D01*
X014781Y005672D01*
X014886Y005777D01*
X014952Y005805D01*
X014886Y005832D01*
X014781Y005937D01*
X014766Y005972D01*
X014729Y005972D01*
X014625Y006076D01*
X014466Y006236D01*
X014466Y005933D01*
X014385Y005853D01*
X014352Y005853D01*
X014382Y005845D01*
X014413Y005826D01*
X014439Y005801D01*
X014458Y005769D01*
X014467Y005733D01*
X014467Y005548D01*
X014155Y005548D01*
X014155Y005469D01*
X014467Y005469D01*
X014467Y005283D01*
X014458Y005248D01*
X014439Y005216D01*
X014413Y005190D01*
X014382Y005172D01*
X014346Y005162D01*
X014155Y005162D01*
X014155Y005469D01*
X014076Y005469D01*
X014076Y005162D01*
X013884Y005162D01*
X013849Y005172D01*
X013817Y005190D01*
X013791Y005216D01*
X013773Y005248D01*
X013763Y005283D01*
X013763Y005469D01*
X014076Y005469D01*
X014076Y005548D01*
X013763Y005548D01*
X013763Y005469D02*
X013405Y005469D01*
X013405Y005391D02*
X013763Y005391D01*
X013763Y005314D02*
X013405Y005314D01*
X013406Y005237D02*
X013779Y005237D01*
X013561Y005082D02*
X016340Y005082D01*
X016397Y005160D02*
X015326Y005160D01*
X015403Y005237D02*
X016397Y005237D01*
X016397Y005314D02*
X015442Y005314D01*
X015472Y005391D02*
X016397Y005391D01*
X016397Y005469D02*
X015472Y005469D01*
X015631Y005546D02*
X016397Y005546D01*
X016397Y005623D02*
X015708Y005623D01*
X015785Y005700D02*
X016397Y005700D01*
X016397Y005778D02*
X015863Y005778D01*
X015940Y005855D02*
X016397Y005855D01*
X016397Y005932D02*
X016017Y005932D01*
X016094Y006009D02*
X016397Y006009D01*
X016397Y006087D02*
X016161Y006087D01*
X016161Y006164D02*
X016397Y006164D01*
X016397Y006241D02*
X016161Y006241D01*
X016161Y006318D02*
X016397Y006318D01*
X016397Y006396D02*
X016161Y006396D01*
X016161Y006473D02*
X016397Y006473D01*
X016397Y006550D02*
X016161Y006550D01*
X016161Y006627D02*
X016397Y006627D01*
X016397Y006705D02*
X016161Y006705D01*
X016161Y006782D02*
X016397Y006782D01*
X016397Y006859D02*
X016161Y006859D01*
X016161Y006936D02*
X016397Y006936D01*
X016397Y007013D02*
X016161Y007013D01*
X016161Y007091D02*
X016397Y007091D01*
X016258Y007168D02*
X016161Y007168D01*
X016377Y007429D02*
X016574Y007429D01*
X016574Y005067D01*
X016460Y003924D02*
X014931Y003924D01*
X014674Y003924D02*
X013615Y003924D01*
X013692Y004001D02*
X014577Y004001D01*
X014802Y004181D02*
X013621Y004181D01*
X013228Y003787D01*
X011948Y003787D01*
X011358Y004378D01*
X010865Y004378D01*
X010570Y004673D01*
X010570Y005277D01*
X010570Y005277D01*
X010373Y005277D02*
X010373Y004575D01*
X010767Y004181D01*
X011259Y004181D01*
X011850Y003590D01*
X013129Y003590D01*
X013523Y003196D01*
X013523Y002892D01*
X013523Y002892D01*
X013897Y002920D02*
X013936Y002920D01*
X013936Y002912D02*
X013936Y003337D01*
X014053Y003337D01*
X014088Y003327D01*
X014120Y003309D01*
X014146Y003283D01*
X014165Y003251D01*
X014174Y003216D01*
X014174Y002912D01*
X013936Y002912D01*
X013936Y002873D02*
X014174Y002873D01*
X014174Y002569D01*
X014165Y002533D01*
X014146Y002502D01*
X014120Y002476D01*
X014088Y002457D01*
X014053Y002448D01*
X013936Y002448D01*
X013936Y002873D01*
X013936Y002843D02*
X013897Y002843D01*
X013897Y002765D02*
X013936Y002765D01*
X013936Y002688D02*
X013897Y002688D01*
X013897Y002611D02*
X013936Y002611D01*
X013936Y002534D02*
X013897Y002534D01*
X013897Y002456D02*
X013936Y002456D01*
X014085Y002456D02*
X014310Y002456D01*
X014310Y002534D02*
X014165Y002534D01*
X014174Y002611D02*
X014310Y002611D01*
X014310Y002688D02*
X014174Y002688D01*
X014174Y002765D02*
X014310Y002765D01*
X014310Y002843D02*
X014174Y002843D01*
X014174Y002920D02*
X014310Y002920D01*
X014301Y002997D02*
X014174Y002997D01*
X014174Y003074D02*
X014248Y003074D01*
X014221Y003151D02*
X014174Y003151D01*
X014171Y003229D02*
X014221Y003229D01*
X014242Y003306D02*
X014123Y003306D01*
X014289Y003383D02*
X013587Y003383D01*
X013510Y003460D02*
X014396Y003460D01*
X014619Y003460D02*
X015997Y003460D01*
X015920Y003383D02*
X014726Y003383D01*
X014772Y003306D02*
X015487Y003306D01*
X015435Y003229D02*
X014794Y003229D01*
X014794Y003151D02*
X015435Y003151D01*
X015435Y003074D02*
X014767Y003074D01*
X014713Y002997D02*
X015435Y002997D01*
X015435Y002920D02*
X014704Y002920D01*
X014704Y002843D02*
X015435Y002843D01*
X015435Y002765D02*
X014704Y002765D01*
X014704Y002688D02*
X015435Y002688D01*
X015435Y002611D02*
X014704Y002611D01*
X014704Y002534D02*
X015435Y002534D01*
X015473Y002456D02*
X014704Y002456D01*
X014742Y001838D02*
X014866Y001838D01*
X014805Y001761D02*
X014802Y001761D01*
X014802Y001684D02*
X014805Y001684D01*
X014802Y001607D02*
X014805Y001607D01*
X014802Y001529D02*
X014805Y001529D01*
X014802Y001452D02*
X014805Y001452D01*
X014802Y001375D02*
X014805Y001375D01*
X014802Y001298D02*
X014805Y001298D01*
X014802Y001220D02*
X014805Y001220D01*
X014802Y001143D02*
X014805Y001143D01*
X014802Y001066D02*
X014805Y001066D01*
X014054Y001066D02*
X012598Y001066D01*
X012598Y001143D02*
X014054Y001143D01*
X014054Y001220D02*
X012598Y001220D01*
X012598Y001298D02*
X014054Y001298D01*
X014054Y001375D02*
X012598Y001375D01*
X012598Y001452D02*
X014054Y001452D01*
X014054Y001529D02*
X012598Y001529D01*
X012598Y001607D02*
X014054Y001607D01*
X014054Y001684D02*
X012598Y001684D01*
X012598Y001761D02*
X014054Y001761D01*
X014115Y001838D02*
X012537Y001838D01*
X012570Y002070D02*
X012125Y002070D01*
X012125Y001993D02*
X018515Y001993D01*
X018511Y001916D02*
X012125Y001916D01*
X011948Y001975D02*
X011390Y001417D01*
X010865Y001892D02*
X010390Y001417D01*
X010865Y001892D02*
X010865Y002606D01*
X010412Y003060D01*
X010412Y003147D01*
X010727Y003147D02*
X010727Y003040D01*
X010767Y003000D01*
X011004Y002803D01*
X011390Y002417D01*
X011259Y002901D02*
X011653Y002901D01*
X011948Y002606D01*
X011948Y001975D01*
X012125Y002147D02*
X012518Y002147D01*
X012518Y002225D02*
X012125Y002225D01*
X012125Y002302D02*
X012518Y002302D01*
X012518Y002379D02*
X012125Y002379D01*
X012125Y002456D02*
X012518Y002456D01*
X012480Y002534D02*
X012125Y002534D01*
X012125Y002611D02*
X012480Y002611D01*
X012480Y002688D02*
X012117Y002688D01*
X012039Y002765D02*
X012480Y002765D01*
X012480Y002843D02*
X011962Y002843D01*
X011885Y002920D02*
X012480Y002920D01*
X012480Y002997D02*
X011808Y002997D01*
X011730Y003074D02*
X012480Y003074D01*
X012480Y003151D02*
X011743Y003151D01*
X011751Y003393D02*
X013031Y003393D01*
X013129Y003295D01*
X013129Y002892D01*
X013129Y002892D01*
X013311Y002456D02*
X013341Y002456D01*
X013705Y002456D02*
X013748Y002456D01*
X013897Y002997D02*
X013936Y002997D01*
X013936Y003074D02*
X013897Y003074D01*
X013897Y003151D02*
X013936Y003151D01*
X013936Y003229D02*
X013897Y003229D01*
X013897Y003306D02*
X013936Y003306D01*
X013432Y003538D02*
X016074Y003538D01*
X016151Y003615D02*
X013355Y003615D01*
X013383Y003692D02*
X016229Y003692D01*
X016306Y003769D02*
X013461Y003769D01*
X013538Y003847D02*
X016383Y003847D01*
X016397Y003860D02*
X016397Y003860D01*
X016716Y003383D02*
X020125Y003383D01*
X020125Y003306D02*
X017078Y003306D01*
X017126Y003229D02*
X020125Y003229D01*
X020125Y003151D02*
X017129Y003151D01*
X017129Y003074D02*
X020125Y003074D01*
X020125Y002997D02*
X017129Y002997D01*
X017129Y002920D02*
X020125Y002920D01*
X020125Y002843D02*
X017129Y002843D01*
X017129Y002765D02*
X020125Y002765D01*
X020125Y002688D02*
X017129Y002688D01*
X017129Y002611D02*
X019102Y002611D01*
X018915Y002534D02*
X017120Y002534D01*
X017042Y002456D02*
X018809Y002456D01*
X018732Y002379D02*
X015909Y002379D01*
X015909Y002302D02*
X018655Y002302D01*
X018611Y002225D02*
X015909Y002225D01*
X015909Y002147D02*
X018579Y002147D01*
X018547Y002070D02*
X015854Y002070D01*
X015553Y001761D02*
X017010Y001761D01*
X017010Y001684D02*
X015553Y001684D01*
X015553Y001607D02*
X017010Y001607D01*
X017010Y001529D02*
X015553Y001529D01*
X015553Y001452D02*
X017010Y001452D01*
X017010Y001375D02*
X015553Y001375D01*
X015553Y001298D02*
X017010Y001298D01*
X017010Y001220D02*
X015553Y001220D01*
X015553Y001143D02*
X017010Y001143D01*
X017010Y001066D02*
X015553Y001066D01*
X015492Y001838D02*
X017070Y001838D01*
X017697Y001838D02*
X018511Y001838D01*
X018511Y001761D02*
X017758Y001761D01*
X017758Y001684D02*
X018511Y001684D01*
X018531Y001607D02*
X017758Y001607D01*
X017758Y001529D02*
X018563Y001529D01*
X018595Y001452D02*
X017758Y001452D01*
X017758Y001375D02*
X018627Y001375D01*
X018692Y001298D02*
X017758Y001298D01*
X017758Y001220D02*
X018769Y001220D01*
X018847Y001143D02*
X017758Y001143D01*
X017758Y001066D02*
X019006Y001066D01*
X020113Y002070D02*
X020125Y002070D01*
X020125Y002147D02*
X020081Y002147D01*
X020049Y002225D02*
X020125Y002225D01*
X020125Y002302D02*
X020005Y002302D01*
X019928Y002379D02*
X020125Y002379D01*
X020125Y002456D02*
X019851Y002456D01*
X019745Y002534D02*
X020125Y002534D01*
X020125Y002611D02*
X019558Y002611D01*
X016892Y002611D02*
X016852Y002611D01*
X016852Y002688D02*
X016892Y002688D01*
X016892Y002765D02*
X016852Y002765D01*
X016852Y002843D02*
X016892Y002843D01*
X016892Y002920D02*
X016852Y002920D01*
X016852Y002997D02*
X016892Y002997D01*
X016892Y003074D02*
X016852Y003074D01*
X016852Y003151D02*
X016892Y003151D01*
X016892Y003229D02*
X016852Y003229D01*
X016852Y003306D02*
X016892Y003306D01*
X016476Y002894D02*
X016478Y002892D01*
X016296Y002456D02*
X016267Y002456D01*
X016661Y002456D02*
X016702Y002456D01*
X016852Y002456D02*
X016892Y002456D01*
X016892Y002534D02*
X016852Y002534D01*
X014604Y004387D02*
X011598Y004387D01*
X011676Y004310D02*
X013500Y004310D01*
X013423Y004233D02*
X011753Y004233D01*
X011830Y004156D02*
X013346Y004156D01*
X013268Y004078D02*
X011907Y004078D01*
X011985Y004001D02*
X013191Y004001D01*
X013483Y005160D02*
X014869Y005160D01*
X014792Y005237D02*
X014451Y005237D01*
X014467Y005314D02*
X014753Y005314D01*
X014724Y005391D02*
X014467Y005391D01*
X014467Y005469D02*
X014724Y005469D01*
X014728Y005546D02*
X014155Y005546D01*
X014155Y005469D02*
X014076Y005469D01*
X014076Y005391D02*
X014155Y005391D01*
X014155Y005314D02*
X014076Y005314D01*
X014076Y005237D02*
X014155Y005237D01*
X014467Y005623D02*
X014760Y005623D01*
X014809Y005700D02*
X014467Y005700D01*
X014453Y005778D02*
X014887Y005778D01*
X014863Y005855D02*
X014387Y005855D01*
X014464Y005932D02*
X014786Y005932D01*
X014692Y006009D02*
X014466Y006009D01*
X014466Y006087D02*
X014615Y006087D01*
X014537Y006164D02*
X014466Y006164D01*
X014802Y006149D02*
X015098Y006149D01*
X014802Y006149D02*
X014407Y006545D01*
X013019Y006545D01*
X013019Y006742D02*
X014604Y006742D01*
X014704Y006641D01*
X015688Y006641D01*
X015688Y007429D01*
X015491Y007429D01*
X015694Y007631D02*
X015806Y007631D01*
X015806Y007709D02*
X015564Y007709D01*
X015607Y007786D02*
X015806Y007786D01*
X015806Y007863D02*
X015684Y007863D01*
X015762Y007940D02*
X015851Y007940D01*
X015839Y008018D02*
X015928Y008018D01*
X015916Y008095D02*
X016005Y008095D01*
X015993Y008172D02*
X017381Y008172D01*
X017381Y008249D02*
X016070Y008249D01*
X016476Y009496D02*
X014706Y007726D01*
X013019Y007726D01*
X012605Y007709D02*
X012539Y007709D01*
X012539Y007786D02*
X012605Y007786D01*
X012605Y007863D02*
X012539Y007863D01*
X012539Y007940D02*
X012605Y007940D01*
X012605Y008018D02*
X012539Y008018D01*
X012539Y008095D02*
X012605Y008095D01*
X012605Y008172D02*
X012539Y008172D01*
X012539Y008249D02*
X012605Y008249D01*
X012605Y008327D02*
X012539Y008327D01*
X012539Y008404D02*
X012605Y008404D01*
X012605Y008481D02*
X012539Y008481D01*
X012539Y008558D02*
X012605Y008558D01*
X012605Y008636D02*
X012539Y008636D01*
X012539Y008713D02*
X012605Y008713D01*
X012605Y008790D02*
X012539Y008790D01*
X012539Y008867D02*
X012605Y008867D01*
X012605Y008944D02*
X012539Y008944D01*
X012539Y009022D02*
X012605Y009022D01*
X012605Y009099D02*
X012539Y009099D01*
X012539Y009176D02*
X012605Y009176D01*
X012605Y009220D02*
X012605Y009382D01*
X012539Y009316D01*
X012539Y006151D01*
X013018Y006151D01*
X013018Y006151D01*
X012686Y006151D01*
X012686Y006151D01*
X012604Y006151D01*
X012604Y006228D01*
X012605Y006234D01*
X012605Y009220D01*
X012605Y009253D02*
X012539Y009253D01*
X012554Y009331D02*
X012605Y009331D01*
X013019Y009301D02*
X014214Y009301D01*
X014270Y009357D01*
X014411Y008316D02*
X015885Y009791D01*
X015885Y010480D01*
X017066Y011661D01*
X017066Y012350D01*
X017263Y012547D01*
X017830Y012547D01*
X017838Y012555D01*
X017548Y012884D02*
X017249Y012884D01*
X017326Y012961D02*
X017625Y012961D01*
X017481Y013115D02*
X020125Y013115D01*
X020125Y013038D02*
X017403Y013038D01*
X017558Y013193D02*
X020125Y013193D01*
X020125Y013270D02*
X017635Y013270D01*
X017712Y013347D02*
X020125Y013347D01*
X020125Y013424D02*
X017790Y013424D01*
X017867Y013502D02*
X020125Y013502D01*
X020125Y013579D02*
X017944Y013579D01*
X018021Y013656D02*
X020125Y013656D01*
X020125Y013733D02*
X018099Y013733D01*
X018176Y013811D02*
X020125Y013811D01*
X020125Y013888D02*
X018253Y013888D01*
X018051Y012961D02*
X018625Y012961D01*
X018657Y012993D02*
X018400Y012736D01*
X018400Y012373D01*
X018657Y012117D01*
X019019Y012117D01*
X019276Y012373D01*
X019276Y012736D01*
X019019Y012993D01*
X018657Y012993D01*
X018548Y012884D02*
X018128Y012884D01*
X018205Y012807D02*
X018471Y012807D01*
X018400Y012729D02*
X018276Y012729D01*
X018276Y012652D02*
X018400Y012652D01*
X018400Y012575D02*
X018276Y012575D01*
X018276Y012498D02*
X018400Y012498D01*
X018400Y012420D02*
X018276Y012420D01*
X018245Y012343D02*
X018430Y012343D01*
X018508Y012266D02*
X018168Y012266D01*
X018091Y012189D02*
X018585Y012189D01*
X018657Y011993D02*
X018400Y011736D01*
X018400Y011373D01*
X018657Y011117D01*
X019019Y011117D01*
X019276Y011373D01*
X019276Y011736D01*
X019019Y011993D01*
X018657Y011993D01*
X018621Y011957D02*
X018055Y011957D01*
X018132Y011880D02*
X018544Y011880D01*
X018466Y011802D02*
X018209Y011802D01*
X018276Y011725D02*
X018400Y011725D01*
X018400Y011648D02*
X018276Y011648D01*
X018276Y011571D02*
X018400Y011571D01*
X018400Y011493D02*
X018276Y011493D01*
X018276Y011416D02*
X018400Y011416D01*
X018435Y011339D02*
X018241Y011339D01*
X018164Y011262D02*
X018512Y011262D01*
X018589Y011184D02*
X018087Y011184D01*
X018069Y010876D02*
X018606Y010876D01*
X018529Y010798D02*
X018147Y010798D01*
X018224Y010721D02*
X018452Y010721D01*
X018400Y010644D02*
X018276Y010644D01*
X018276Y010567D02*
X018400Y010567D01*
X018400Y010489D02*
X018276Y010489D01*
X018276Y010412D02*
X018400Y010412D01*
X018400Y010335D02*
X018276Y010335D01*
X018227Y010258D02*
X018449Y010258D01*
X018526Y010180D02*
X018150Y010180D01*
X018072Y010103D02*
X018603Y010103D01*
X018602Y009871D02*
X018073Y009871D01*
X018151Y009794D02*
X018525Y009794D01*
X018448Y009717D02*
X018228Y009717D01*
X018276Y009640D02*
X018400Y009640D01*
X018400Y009562D02*
X018276Y009562D01*
X018276Y009485D02*
X018400Y009485D01*
X018400Y009408D02*
X018276Y009408D01*
X018276Y009331D02*
X018400Y009331D01*
X018453Y009253D02*
X018223Y009253D01*
X018145Y009176D02*
X018530Y009176D01*
X018608Y009099D02*
X018068Y009099D01*
X019073Y009871D02*
X019623Y009871D01*
X019523Y009794D02*
X019151Y009794D01*
X019228Y009717D02*
X019462Y009717D01*
X019425Y009640D02*
X019276Y009640D01*
X019276Y009562D02*
X019405Y009562D01*
X019399Y010567D02*
X019276Y010567D01*
X019276Y010644D02*
X019399Y010644D01*
X019450Y010721D02*
X019224Y010721D01*
X019147Y010798D02*
X019527Y010798D01*
X019604Y010876D02*
X019069Y010876D01*
X019087Y011184D02*
X019600Y011184D01*
X019510Y011262D02*
X019164Y011262D01*
X019241Y011339D02*
X019455Y011339D01*
X019421Y011416D02*
X019276Y011416D01*
X019276Y011493D02*
X019403Y011493D01*
X019276Y011571D02*
X019799Y011571D01*
X019799Y011648D02*
X019877Y011648D01*
X019877Y011725D02*
X019799Y011725D01*
X019799Y011802D02*
X019877Y011802D01*
X019877Y011880D02*
X019799Y011880D01*
X019799Y011957D02*
X019877Y011957D01*
X020016Y011957D02*
X020125Y011957D01*
X020125Y012034D02*
X017243Y012034D01*
X017243Y011957D02*
X017621Y011957D01*
X017544Y011880D02*
X017243Y011880D01*
X017243Y011802D02*
X017466Y011802D01*
X017243Y012111D02*
X020125Y012111D01*
X020125Y012189D02*
X020093Y012189D01*
X019877Y012189D02*
X019799Y012189D01*
X019799Y012266D02*
X019877Y012266D01*
X019877Y012343D02*
X019799Y012343D01*
X019799Y012420D02*
X019877Y012420D01*
X019877Y012498D02*
X019799Y012498D01*
X019799Y012575D02*
X019276Y012575D01*
X019276Y012652D02*
X019399Y012652D01*
X019399Y012729D02*
X019276Y012729D01*
X019205Y012807D02*
X019468Y012807D01*
X019546Y012884D02*
X019128Y012884D01*
X019051Y012961D02*
X019623Y012961D01*
X019799Y012961D02*
X019877Y012961D01*
X019877Y012884D02*
X019799Y012884D01*
X019799Y012807D02*
X019877Y012807D01*
X019877Y012729D02*
X019799Y012729D01*
X019799Y012652D02*
X019877Y012652D01*
X020053Y012961D02*
X020125Y012961D01*
X019399Y012498D02*
X019276Y012498D01*
X019276Y012420D02*
X019399Y012420D01*
X019428Y012343D02*
X019245Y012343D01*
X019168Y012266D02*
X019505Y012266D01*
X019583Y012189D02*
X019091Y012189D01*
X019055Y011957D02*
X019659Y011957D01*
X019541Y011880D02*
X019132Y011880D01*
X019209Y011802D02*
X019475Y011802D01*
X019432Y011725D02*
X019276Y011725D01*
X019276Y011648D02*
X019408Y011648D01*
X019799Y011493D02*
X019877Y011493D01*
X019877Y011416D02*
X019799Y011416D01*
X019799Y011339D02*
X019877Y011339D01*
X019877Y011262D02*
X019799Y011262D01*
X019799Y011184D02*
X019877Y011184D01*
X020076Y011184D02*
X020125Y011184D01*
X017606Y010876D02*
X016827Y010876D01*
X016749Y010798D02*
X017529Y010798D01*
X017452Y010721D02*
X016672Y010721D01*
X017243Y012189D02*
X017585Y012189D01*
X017508Y012266D02*
X017243Y012266D01*
X017310Y012343D02*
X017430Y012343D01*
X017400Y012729D02*
X017094Y012729D01*
X017118Y012652D02*
X017017Y012652D01*
X017041Y012575D02*
X016940Y012575D01*
X016940Y012498D02*
X016963Y012498D01*
X017172Y012807D02*
X017471Y012807D01*
X016574Y014712D02*
X016180Y014909D01*
X014114Y014909D01*
X013917Y014712D01*
X013867Y014663D01*
X013867Y013974D01*
X013720Y014122D01*
X012834Y014122D01*
X012834Y013545D01*
X012887Y013492D01*
X012932Y013447D01*
X012932Y012842D01*
X012047Y012842D01*
X011751Y012546D01*
X011751Y011356D01*
X011948Y011356D02*
X011948Y012251D01*
X011948Y012252D01*
X011948Y012448D01*
X012145Y012645D01*
X013031Y012645D01*
X013031Y012350D01*
X013031Y012645D02*
X013425Y012941D01*
X013387Y012978D01*
X013387Y013492D01*
X013878Y013532D02*
X013878Y013964D01*
X013867Y013974D01*
X013690Y014299D02*
X012761Y014299D01*
X012657Y014195D01*
X012657Y014007D01*
X012637Y013988D01*
X012562Y014063D01*
X012212Y014063D01*
X012137Y013988D01*
X012062Y014063D01*
X011712Y014063D01*
X011631Y013982D01*
X011631Y013170D01*
X011394Y012932D01*
X011301Y012932D01*
X011195Y012888D01*
X011115Y012808D01*
X011071Y012702D01*
X011071Y012588D01*
X011115Y012483D01*
X011195Y012402D01*
X011301Y012359D01*
X011415Y012359D01*
X011520Y012402D01*
X011574Y012456D01*
X011574Y011769D01*
X011534Y011769D01*
X011534Y011833D01*
X010846Y012522D01*
X010747Y012620D01*
X010747Y017094D01*
X012924Y017094D01*
X013434Y017605D01*
X014009Y017605D01*
X014170Y017672D01*
X014240Y017741D01*
X014240Y016709D01*
X014339Y016610D01*
X016196Y016610D01*
X016149Y016563D01*
X014139Y016563D01*
X013942Y016366D01*
X013838Y016262D01*
X013838Y015583D01*
X013827Y015557D01*
X013827Y015443D01*
X013871Y015337D01*
X013951Y015257D01*
X014057Y015213D01*
X014171Y015213D01*
X014276Y015257D01*
X014356Y015337D01*
X014400Y015443D01*
X014400Y015557D01*
X014356Y015662D01*
X014276Y015743D01*
X014192Y015777D01*
X014192Y016115D01*
X014285Y016208D01*
X016149Y016208D01*
X016215Y016143D01*
X016320Y016099D01*
X016434Y016099D01*
X016540Y016143D01*
X016620Y016223D01*
X016664Y016328D01*
X016664Y016352D01*
X016700Y016315D01*
X016700Y014970D01*
X016631Y014999D01*
X016517Y014999D01*
X016452Y014972D01*
X016285Y015055D01*
X016254Y015086D01*
X016222Y015086D01*
X016194Y015100D01*
X016152Y015086D01*
X014040Y015086D01*
X013953Y014999D01*
X013860Y014999D01*
X013754Y014955D01*
X013674Y014875D01*
X013630Y014769D01*
X013630Y014655D01*
X013674Y014550D01*
X013690Y014533D01*
X013690Y014299D01*
X013690Y014351D02*
X010747Y014351D01*
X010747Y014274D02*
X012736Y014274D01*
X012659Y014197D02*
X010747Y014197D01*
X010747Y014120D02*
X012657Y014120D01*
X012657Y014042D02*
X012583Y014042D01*
X012192Y014042D02*
X012083Y014042D01*
X011692Y014042D02*
X010747Y014042D01*
X010747Y013965D02*
X011631Y013965D01*
X011631Y013888D02*
X010747Y013888D01*
X010747Y013811D02*
X011631Y013811D01*
X011631Y013733D02*
X010747Y013733D01*
X010747Y013656D02*
X011631Y013656D01*
X011631Y013579D02*
X010747Y013579D01*
X010747Y013502D02*
X011631Y013502D01*
X011631Y013424D02*
X010747Y013424D01*
X010747Y013347D02*
X011631Y013347D01*
X011631Y013270D02*
X010747Y013270D01*
X010747Y013193D02*
X011631Y013193D01*
X011577Y013115D02*
X010747Y013115D01*
X010747Y013038D02*
X011500Y013038D01*
X011423Y012961D02*
X010747Y012961D01*
X010747Y012884D02*
X011191Y012884D01*
X011114Y012807D02*
X010747Y012807D01*
X010747Y012729D02*
X011082Y012729D01*
X011071Y012652D02*
X010747Y012652D01*
X010793Y012575D02*
X011077Y012575D01*
X011109Y012498D02*
X010870Y012498D01*
X010947Y012420D02*
X011177Y012420D01*
X011025Y012343D02*
X011574Y012343D01*
X011574Y012266D02*
X011102Y012266D01*
X011179Y012189D02*
X011574Y012189D01*
X011574Y012111D02*
X011256Y012111D01*
X011333Y012034D02*
X011574Y012034D01*
X011574Y011957D02*
X011411Y011957D01*
X011488Y011880D02*
X011574Y011880D01*
X011574Y011802D02*
X011534Y011802D01*
X011357Y011760D02*
X010669Y012448D01*
X010570Y012448D01*
X010570Y017271D01*
X012850Y017271D01*
X013622Y018043D01*
X013425Y017595D02*
X014240Y017595D01*
X014240Y017518D02*
X013348Y017518D01*
X013270Y017441D02*
X014240Y017441D01*
X014240Y017364D02*
X013193Y017364D01*
X013116Y017286D02*
X014240Y017286D01*
X014240Y017209D02*
X013039Y017209D01*
X012961Y017132D02*
X014240Y017132D01*
X014240Y017055D02*
X010747Y017055D01*
X010747Y016977D02*
X014240Y016977D01*
X014240Y016900D02*
X010747Y016900D01*
X010747Y016823D02*
X014240Y016823D01*
X014240Y016746D02*
X010747Y016746D01*
X010747Y016669D02*
X014280Y016669D01*
X014090Y016514D02*
X010747Y016514D01*
X010747Y016437D02*
X014013Y016437D01*
X013936Y016360D02*
X010747Y016360D01*
X010747Y016282D02*
X013858Y016282D01*
X013838Y016205D02*
X010747Y016205D01*
X010747Y016128D02*
X013838Y016128D01*
X013838Y016051D02*
X013621Y016051D01*
X013617Y016058D02*
X013591Y016084D01*
X013559Y016102D01*
X013524Y016111D01*
X013407Y016111D01*
X013407Y015559D01*
X013368Y015559D01*
X013368Y016111D01*
X013251Y016111D01*
X013215Y016102D01*
X013184Y016084D01*
X013158Y016058D01*
X013139Y016026D01*
X013137Y016018D01*
X013135Y016026D01*
X013117Y016058D01*
X013091Y016084D01*
X013059Y016102D01*
X013024Y016111D01*
X012907Y016111D01*
X012907Y015559D01*
X012868Y015559D01*
X012868Y016111D01*
X012751Y016111D01*
X012715Y016102D01*
X012684Y016084D01*
X012658Y016058D01*
X012639Y016026D01*
X012637Y016018D01*
X012635Y016026D01*
X012617Y016058D01*
X012591Y016084D01*
X012559Y016102D01*
X012524Y016111D01*
X012407Y016111D01*
X012407Y015559D01*
X012368Y015559D01*
X012368Y016111D01*
X012251Y016111D01*
X012215Y016102D01*
X012184Y016084D01*
X012158Y016058D01*
X012139Y016026D01*
X012137Y016018D01*
X012135Y016026D01*
X012117Y016058D01*
X012091Y016084D01*
X012059Y016102D01*
X012024Y016111D01*
X011907Y016111D01*
X011907Y015559D01*
X011868Y015559D01*
X011868Y016111D01*
X011751Y016111D01*
X011715Y016102D01*
X011684Y016084D01*
X011658Y016058D01*
X011639Y016026D01*
X011630Y015990D01*
X011630Y015559D01*
X011868Y015559D01*
X011868Y015519D01*
X011907Y015519D01*
X011907Y014967D01*
X012024Y014967D01*
X012059Y014976D01*
X012091Y014994D01*
X012117Y015020D01*
X012135Y015052D01*
X012137Y015060D01*
X012139Y015052D01*
X012158Y015020D01*
X012184Y014994D01*
X012215Y014976D01*
X012251Y014967D01*
X012368Y014967D01*
X012368Y015519D01*
X012407Y015519D01*
X012407Y014967D01*
X012524Y014967D01*
X012559Y014976D01*
X012591Y014994D01*
X012617Y015020D01*
X012635Y015052D01*
X012637Y015060D01*
X012639Y015052D01*
X012658Y015020D01*
X012684Y014994D01*
X012715Y014976D01*
X012751Y014967D01*
X012868Y014967D01*
X012868Y015519D01*
X012907Y015519D01*
X012907Y014967D01*
X013024Y014967D01*
X013059Y014976D01*
X013091Y014994D01*
X013117Y015020D01*
X013135Y015052D01*
X013137Y015060D01*
X013139Y015052D01*
X013158Y015020D01*
X013184Y014994D01*
X013215Y014976D01*
X013251Y014967D01*
X013368Y014967D01*
X013368Y015519D01*
X013407Y015519D01*
X013407Y014967D01*
X013524Y014967D01*
X013559Y014976D01*
X013591Y014994D01*
X013617Y015020D01*
X013635Y015052D01*
X013645Y015088D01*
X013645Y015519D01*
X013407Y015519D01*
X013407Y015559D01*
X013645Y015559D01*
X013645Y015990D01*
X013635Y016026D01*
X013617Y016058D01*
X013645Y015973D02*
X013838Y015973D01*
X013838Y015896D02*
X013645Y015896D01*
X013645Y015819D02*
X013838Y015819D01*
X013838Y015742D02*
X013645Y015742D01*
X013645Y015664D02*
X013838Y015664D01*
X013838Y015587D02*
X013645Y015587D01*
X013645Y015510D02*
X013827Y015510D01*
X013831Y015433D02*
X013645Y015433D01*
X013645Y015355D02*
X013863Y015355D01*
X013930Y015278D02*
X013645Y015278D01*
X013645Y015201D02*
X016700Y015201D01*
X016700Y015278D02*
X014297Y015278D01*
X014364Y015355D02*
X016700Y015355D01*
X016700Y015433D02*
X014396Y015433D01*
X014400Y015510D02*
X016700Y015510D01*
X016700Y015587D02*
X014387Y015587D01*
X014354Y015664D02*
X016700Y015664D01*
X016700Y015742D02*
X014277Y015742D01*
X014192Y015819D02*
X016700Y015819D01*
X016700Y015896D02*
X014192Y015896D01*
X014192Y015973D02*
X016700Y015973D01*
X016700Y016051D02*
X014192Y016051D01*
X014205Y016128D02*
X016250Y016128D01*
X016152Y016205D02*
X014282Y016205D01*
X014212Y016385D02*
X014015Y016189D01*
X014015Y015598D01*
X014114Y015500D01*
X014000Y015046D02*
X013632Y015046D01*
X013645Y015124D02*
X016700Y015124D01*
X016700Y015046D02*
X016302Y015046D01*
X016504Y016128D02*
X016700Y016128D01*
X016700Y016205D02*
X016602Y016205D01*
X016645Y016282D02*
X016700Y016282D01*
X016377Y016385D02*
X014212Y016385D01*
X013407Y016051D02*
X013368Y016051D01*
X013368Y015973D02*
X013407Y015973D01*
X013407Y015896D02*
X013368Y015896D01*
X013368Y015819D02*
X013407Y015819D01*
X013407Y015742D02*
X013368Y015742D01*
X013368Y015664D02*
X013407Y015664D01*
X013407Y015587D02*
X013368Y015587D01*
X013368Y015559D02*
X013368Y015519D01*
X013130Y015519D01*
X012907Y015519D01*
X012907Y015559D01*
X013368Y015559D01*
X013368Y015510D02*
X013407Y015510D01*
X013407Y015433D02*
X013368Y015433D01*
X013368Y015355D02*
X013407Y015355D01*
X013407Y015278D02*
X013368Y015278D01*
X013368Y015201D02*
X013407Y015201D01*
X013407Y015124D02*
X013368Y015124D01*
X013368Y015046D02*
X013407Y015046D01*
X013407Y014969D02*
X013368Y014969D01*
X013241Y014969D02*
X013034Y014969D01*
X013132Y015046D02*
X013143Y015046D01*
X012907Y015046D02*
X012868Y015046D01*
X012868Y014969D02*
X012907Y014969D01*
X012907Y015124D02*
X012868Y015124D01*
X012868Y015201D02*
X012907Y015201D01*
X012907Y015278D02*
X012868Y015278D01*
X012868Y015355D02*
X012907Y015355D01*
X012907Y015433D02*
X012868Y015433D01*
X012868Y015510D02*
X012907Y015510D01*
X012868Y015519D02*
X012630Y015519D01*
X012407Y015519D01*
X012407Y015559D01*
X012868Y015559D01*
X012868Y015519D01*
X012868Y015587D02*
X012907Y015587D01*
X012907Y015664D02*
X012868Y015664D01*
X012868Y015742D02*
X012907Y015742D01*
X012907Y015819D02*
X012868Y015819D01*
X012868Y015896D02*
X012907Y015896D01*
X012907Y015973D02*
X012868Y015973D01*
X012868Y016051D02*
X012907Y016051D01*
X013121Y016051D02*
X013154Y016051D01*
X012654Y016051D02*
X012621Y016051D01*
X012407Y016051D02*
X012368Y016051D01*
X012368Y015973D02*
X012407Y015973D01*
X012407Y015896D02*
X012368Y015896D01*
X012368Y015819D02*
X012407Y015819D01*
X012407Y015742D02*
X012368Y015742D01*
X012368Y015664D02*
X012407Y015664D01*
X012407Y015587D02*
X012368Y015587D01*
X012368Y015559D02*
X012368Y015519D01*
X011907Y015519D01*
X011907Y015559D01*
X012145Y015559D01*
X012368Y015559D01*
X012368Y015510D02*
X012407Y015510D01*
X012407Y015433D02*
X012368Y015433D01*
X012368Y015355D02*
X012407Y015355D01*
X012407Y015278D02*
X012368Y015278D01*
X012368Y015201D02*
X012407Y015201D01*
X012407Y015124D02*
X012368Y015124D01*
X012368Y015046D02*
X012407Y015046D01*
X012407Y014969D02*
X012368Y014969D01*
X012241Y014969D02*
X012034Y014969D01*
X012132Y015046D02*
X012143Y015046D01*
X011907Y015046D02*
X011868Y015046D01*
X011868Y014969D02*
X011907Y014969D01*
X011868Y014967D02*
X011868Y015519D01*
X011630Y015519D01*
X011630Y015088D01*
X011639Y015052D01*
X011658Y015020D01*
X011684Y014994D01*
X011715Y014976D01*
X011751Y014967D01*
X011868Y014967D01*
X011741Y014969D02*
X010747Y014969D01*
X010747Y014892D02*
X013691Y014892D01*
X013649Y014815D02*
X010747Y014815D01*
X010747Y014738D02*
X013630Y014738D01*
X013630Y014660D02*
X010747Y014660D01*
X010747Y014583D02*
X013660Y014583D01*
X013690Y014506D02*
X010747Y014506D01*
X010747Y014429D02*
X013690Y014429D01*
X013788Y014969D02*
X013534Y014969D01*
X012741Y014969D02*
X012534Y014969D01*
X012632Y015046D02*
X012643Y015046D01*
X011907Y015124D02*
X011868Y015124D01*
X011868Y015201D02*
X011907Y015201D01*
X011907Y015278D02*
X011868Y015278D01*
X011868Y015355D02*
X011907Y015355D01*
X011907Y015433D02*
X011868Y015433D01*
X011868Y015510D02*
X011907Y015510D01*
X011907Y015587D02*
X011868Y015587D01*
X011868Y015664D02*
X011907Y015664D01*
X011907Y015742D02*
X011868Y015742D01*
X011868Y015819D02*
X011907Y015819D01*
X011907Y015896D02*
X011868Y015896D01*
X011868Y015973D02*
X011907Y015973D01*
X011907Y016051D02*
X011868Y016051D01*
X011654Y016051D02*
X010747Y016051D01*
X010747Y015973D02*
X011630Y015973D01*
X011630Y015896D02*
X010747Y015896D01*
X010747Y015819D02*
X011630Y015819D01*
X011630Y015742D02*
X010747Y015742D01*
X010747Y015664D02*
X011630Y015664D01*
X011630Y015587D02*
X010747Y015587D01*
X010747Y015510D02*
X011630Y015510D01*
X011630Y015433D02*
X010747Y015433D01*
X010747Y015355D02*
X011630Y015355D01*
X011630Y015278D02*
X010747Y015278D01*
X010747Y015201D02*
X011630Y015201D01*
X011630Y015124D02*
X010747Y015124D01*
X010747Y015046D02*
X011643Y015046D01*
X012121Y016051D02*
X012154Y016051D01*
X011668Y017468D02*
X012243Y018043D01*
X011856Y018481D02*
X011695Y018414D01*
X011572Y018291D01*
X011555Y018249D01*
X011537Y018291D01*
X011414Y018414D01*
X011253Y018481D01*
X010479Y018481D01*
X010318Y018414D01*
X010195Y018291D01*
X010128Y018130D01*
X010128Y017965D01*
X010126Y017964D01*
X010126Y018130D01*
X010060Y018291D01*
X009936Y018414D01*
X009775Y018481D01*
X009001Y018481D01*
X008840Y018414D01*
X008717Y018291D01*
X008700Y018249D01*
X008683Y018291D01*
X008559Y018414D01*
X008399Y018481D01*
X007624Y018481D01*
X007463Y018414D01*
X007340Y018291D01*
X007322Y018248D01*
X007304Y018292D01*
X007181Y018415D01*
X007020Y018482D01*
X006246Y018482D01*
X006085Y018415D01*
X005962Y018292D01*
X005944Y018248D01*
X005926Y018291D01*
X005803Y018415D01*
X005642Y018481D01*
X004868Y018481D01*
X004707Y018415D01*
X004584Y018291D01*
X004565Y018247D01*
X004548Y018290D01*
X004425Y018413D01*
X004264Y018480D01*
X003490Y018480D01*
X003329Y018413D01*
X003205Y018290D01*
X003142Y018137D01*
X003115Y018137D01*
X003011Y018034D01*
X002519Y017541D01*
X002519Y012030D01*
X002002Y012547D01*
X002088Y012634D01*
X002154Y012794D01*
X002154Y012969D01*
X002088Y013129D01*
X001965Y013253D01*
X001804Y013319D01*
X001030Y013319D01*
X000869Y013253D01*
X000819Y013203D01*
X000819Y013558D01*
X000830Y013546D01*
X000886Y013506D01*
X000948Y013474D01*
X001014Y013453D01*
X001082Y013442D01*
X001377Y013442D01*
X001377Y013842D01*
X001456Y013842D01*
X001456Y013442D01*
X001751Y013442D01*
X001820Y013453D01*
X001885Y013474D01*
X001947Y013506D01*
X002003Y013546D01*
X002052Y013595D01*
X002092Y013651D01*
X002124Y013713D01*
X002145Y013779D01*
X002155Y013842D01*
X001456Y013842D01*
X001456Y013921D01*
X001377Y013921D01*
X001377Y014321D01*
X001082Y014321D01*
X001014Y014310D01*
X000948Y014289D01*
X000886Y014257D01*
X000830Y014217D01*
X000819Y014205D01*
X000819Y015147D01*
X000832Y015129D01*
X000878Y015083D01*
X000930Y015045D01*
X000987Y015016D01*
X001049Y014996D01*
X001112Y014986D01*
X001375Y014986D01*
X001375Y015356D01*
X001454Y015356D01*
X001454Y015435D01*
X001375Y015435D01*
X001375Y015805D01*
X001112Y015805D01*
X001049Y015794D01*
X000987Y015775D01*
X000930Y015745D01*
X000878Y015707D01*
X000832Y015662D01*
X000819Y015643D01*
X000819Y016144D01*
X000914Y016049D01*
X001063Y015987D01*
X001766Y015987D01*
X001916Y016049D01*
X002030Y016164D01*
X002092Y016314D01*
X002092Y016476D01*
X002030Y016626D01*
X001916Y016741D01*
X001766Y016803D01*
X001063Y016803D01*
X000914Y016741D01*
X000819Y016646D01*
X000819Y019313D01*
X000919Y019071D01*
X001149Y018840D01*
X001451Y018716D01*
X001776Y018716D01*
X002078Y018840D01*
X002308Y019071D01*
X002433Y019372D01*
X002433Y019698D01*
X002308Y019999D01*
X002078Y020230D01*
X001835Y020330D01*
X003243Y020330D01*
X003241Y020328D01*
X003201Y020272D01*
X003169Y020211D01*
X003148Y020145D01*
X003138Y020081D01*
X003837Y020081D01*
X003837Y020003D01*
X003138Y020003D01*
X003148Y019939D01*
X003169Y019873D01*
X003201Y019812D01*
X003241Y019756D01*
X003265Y019732D01*
X003008Y019732D01*
X002713Y019437D01*
X002598Y019321D01*
X002598Y018239D01*
X002212Y017853D01*
X002147Y017853D01*
X002042Y017809D01*
X001961Y017729D01*
X001918Y017624D01*
X001918Y017510D01*
X001961Y017404D01*
X002042Y017324D01*
X002147Y017280D01*
X002261Y017280D01*
X002366Y017324D01*
X002447Y017404D01*
X002491Y017510D01*
X002491Y017575D01*
X002991Y018076D01*
X002991Y019158D01*
X003171Y019338D01*
X003254Y019338D01*
X003205Y019290D01*
X003139Y019129D01*
X003139Y018955D01*
X003205Y018794D01*
X003329Y018671D01*
X003490Y018604D01*
X004264Y018604D01*
X004384Y018654D01*
X004750Y018654D01*
X004868Y018606D01*
X005642Y018606D01*
X005763Y018656D01*
X006127Y018656D01*
X006246Y018606D01*
X007020Y018606D01*
X007141Y018656D01*
X007502Y018656D01*
X007624Y018605D01*
X008399Y018605D01*
X008519Y018655D01*
X008880Y018655D01*
X009001Y018605D01*
X009775Y018605D01*
X009896Y018655D01*
X010359Y018655D01*
X010479Y018605D01*
X011253Y018605D01*
X011373Y018655D01*
X011735Y018655D01*
X011856Y018605D01*
X012630Y018605D01*
X012751Y018655D01*
X013112Y018655D01*
X013235Y018605D01*
X014009Y018605D01*
X014170Y018672D01*
X014240Y018741D01*
X014240Y018344D01*
X014170Y018414D01*
X014009Y018480D01*
X013235Y018480D01*
X013074Y018414D01*
X012951Y018291D01*
X012933Y018248D01*
X012915Y018291D01*
X012950Y018291D01*
X012915Y018291D02*
X012791Y018414D01*
X012630Y018481D01*
X011856Y018481D01*
X011769Y018445D02*
X011340Y018445D01*
X011460Y018368D02*
X011649Y018368D01*
X011572Y018291D02*
X011537Y018291D01*
X010866Y018043D02*
X010850Y018059D01*
X010472Y018059D01*
X010177Y017763D01*
X010177Y012055D01*
X010669Y012055D01*
X010767Y011957D01*
X010767Y011356D01*
X011160Y011356D02*
X011160Y011760D01*
X010669Y012252D01*
X010373Y012252D01*
X010373Y017468D01*
X011668Y017468D01*
X010747Y016591D02*
X016178Y016591D01*
X016503Y017342D02*
X014972Y017342D01*
X014972Y018067D01*
X015056Y018067D01*
X015162Y018111D01*
X015242Y018192D01*
X015286Y018297D01*
X015286Y018381D01*
X016160Y018381D01*
X016384Y018606D01*
X016393Y018597D01*
X016755Y018597D01*
X017012Y018854D01*
X017012Y019216D01*
X016755Y019473D01*
X016393Y019473D01*
X016136Y019216D01*
X016136Y018854D01*
X016145Y018845D01*
X016020Y018720D01*
X015878Y018720D01*
X016012Y018854D01*
X016012Y019216D01*
X015863Y019366D01*
X016144Y019366D01*
X016384Y019606D01*
X016393Y019597D01*
X016755Y019597D01*
X017012Y019854D01*
X017012Y020216D01*
X016898Y020330D01*
X017248Y020330D01*
X017239Y020321D01*
X017198Y020265D01*
X017167Y020204D01*
X017146Y020138D01*
X017136Y020074D01*
X017535Y020074D01*
X017535Y019996D01*
X017136Y019996D01*
X017146Y019932D01*
X017167Y019866D01*
X017198Y019805D01*
X017239Y019749D01*
X017288Y019700D01*
X017344Y019659D01*
X017405Y019628D01*
X017471Y019606D01*
X017535Y019596D01*
X017535Y019996D01*
X017614Y019996D01*
X017614Y020074D01*
X018013Y020074D01*
X018003Y020138D01*
X017981Y020204D01*
X017950Y020265D01*
X017909Y020321D01*
X017901Y020330D01*
X019108Y020330D01*
X018866Y020230D01*
X018635Y019999D01*
X018511Y019698D01*
X018511Y019372D01*
X017856Y019372D01*
X017779Y019449D02*
X018511Y019449D01*
X018511Y019372D02*
X018635Y019071D01*
X018866Y018840D01*
X019167Y018716D01*
X019493Y018716D01*
X019794Y018840D01*
X020025Y019071D01*
X020125Y019313D01*
X020125Y018015D01*
X020012Y018128D01*
X019869Y018128D01*
X019869Y017728D01*
X019791Y017728D01*
X019791Y018128D01*
X019648Y018128D01*
X019391Y017871D01*
X019391Y017728D01*
X019791Y017728D01*
X019791Y017649D01*
X019869Y017649D01*
X019869Y017249D01*
X020012Y017249D01*
X020125Y017362D01*
X020125Y017013D01*
X020011Y017126D01*
X019649Y017126D01*
X019392Y016870D01*
X019392Y016507D01*
X019401Y016499D01*
X019260Y016358D01*
X019118Y016358D01*
X019268Y016507D01*
X019268Y016870D01*
X019011Y017126D01*
X018649Y017126D01*
X018471Y016948D01*
X017826Y016948D01*
X017826Y017496D01*
X018404Y017496D01*
X018649Y017251D01*
X019011Y017251D01*
X019268Y017507D01*
X019268Y017870D01*
X019011Y018126D01*
X018649Y018126D01*
X018392Y017870D01*
X018392Y017834D01*
X017685Y017834D01*
X017586Y017735D01*
X017488Y017637D01*
X017488Y016794D01*
X016842Y017440D01*
X016842Y018063D01*
X017384Y018606D01*
X017393Y018597D01*
X017755Y018597D01*
X018012Y018854D01*
X018012Y019216D01*
X017755Y019473D01*
X017393Y019473D01*
X017136Y019216D01*
X017136Y018854D01*
X017145Y018845D01*
X016503Y018204D01*
X016503Y017342D01*
X016503Y017364D02*
X014972Y017364D01*
X014972Y017441D02*
X016503Y017441D01*
X016503Y017518D02*
X014972Y017518D01*
X014972Y017595D02*
X016503Y017595D01*
X016503Y017673D02*
X014972Y017673D01*
X014972Y017750D02*
X016503Y017750D01*
X016503Y017827D02*
X014972Y017827D01*
X014972Y017904D02*
X016503Y017904D01*
X016503Y017982D02*
X014972Y017982D01*
X014972Y018059D02*
X016503Y018059D01*
X016503Y018136D02*
X015187Y018136D01*
X015251Y018213D02*
X016513Y018213D01*
X016590Y018291D02*
X015283Y018291D01*
X015286Y018368D02*
X016668Y018368D01*
X016745Y018445D02*
X016224Y018445D01*
X016301Y018522D02*
X016822Y018522D01*
X016758Y018600D02*
X016899Y018600D01*
X016835Y018677D02*
X016976Y018677D01*
X016912Y018754D02*
X017054Y018754D01*
X016990Y018831D02*
X017131Y018831D01*
X017136Y018909D02*
X017012Y018909D01*
X017012Y018986D02*
X017136Y018986D01*
X017136Y019063D02*
X017012Y019063D01*
X017012Y019140D02*
X017136Y019140D01*
X017137Y019217D02*
X017011Y019217D01*
X016934Y019295D02*
X017215Y019295D01*
X017292Y019372D02*
X016856Y019372D01*
X016779Y019449D02*
X017369Y019449D01*
X017489Y019604D02*
X016762Y019604D01*
X016839Y019681D02*
X017314Y019681D01*
X017232Y019758D02*
X016916Y019758D01*
X016994Y019835D02*
X017183Y019835D01*
X017152Y019913D02*
X017012Y019913D01*
X017012Y019990D02*
X017136Y019990D01*
X017012Y020067D02*
X017535Y020067D01*
X017535Y019990D02*
X017614Y019990D01*
X017614Y019996D02*
X017614Y019596D01*
X017677Y019606D01*
X017743Y019628D01*
X017804Y019659D01*
X017860Y019700D01*
X017909Y019749D01*
X017950Y019805D01*
X017981Y019866D01*
X018003Y019932D01*
X018013Y019996D01*
X017614Y019996D01*
X017614Y020067D02*
X018703Y020067D01*
X018632Y019990D02*
X018012Y019990D01*
X017996Y019913D02*
X018600Y019913D01*
X018568Y019835D02*
X017966Y019835D01*
X017916Y019758D02*
X018536Y019758D01*
X018511Y019681D02*
X017834Y019681D01*
X017659Y019604D02*
X018511Y019604D01*
X018511Y019526D02*
X016305Y019526D01*
X016369Y019449D02*
X016228Y019449D01*
X016292Y019372D02*
X016150Y019372D01*
X016215Y019295D02*
X015934Y019295D01*
X016011Y019217D02*
X016137Y019217D01*
X016136Y019140D02*
X016012Y019140D01*
X016012Y019063D02*
X016136Y019063D01*
X016136Y018986D02*
X016012Y018986D01*
X016012Y018909D02*
X016136Y018909D01*
X016131Y018831D02*
X015990Y018831D01*
X016054Y018754D02*
X015912Y018754D01*
X015574Y019035D02*
X014802Y019043D01*
X014606Y018846D01*
X014240Y018677D02*
X014175Y018677D01*
X014240Y018600D02*
X002991Y018600D01*
X002991Y018677D02*
X003323Y018677D01*
X003246Y018754D02*
X002991Y018754D01*
X002991Y018831D02*
X003190Y018831D01*
X003158Y018909D02*
X002991Y018909D01*
X002991Y018986D02*
X003139Y018986D01*
X003139Y019063D02*
X002991Y019063D01*
X002991Y019140D02*
X003143Y019140D01*
X003175Y019217D02*
X003051Y019217D01*
X003128Y019295D02*
X003210Y019295D01*
X002880Y019604D02*
X002433Y019604D01*
X002433Y019681D02*
X002957Y019681D01*
X002803Y019526D02*
X002433Y019526D01*
X002433Y019449D02*
X002726Y019449D01*
X002648Y019372D02*
X002433Y019372D01*
X002401Y019295D02*
X002598Y019295D01*
X002598Y019217D02*
X002369Y019217D01*
X002337Y019140D02*
X002598Y019140D01*
X002598Y019063D02*
X002300Y019063D01*
X002223Y018986D02*
X002598Y018986D01*
X002598Y018909D02*
X002146Y018909D01*
X002055Y018831D02*
X002598Y018831D01*
X002598Y018754D02*
X001869Y018754D01*
X001358Y018754D02*
X000819Y018754D01*
X000819Y018677D02*
X002598Y018677D01*
X002598Y018600D02*
X000819Y018600D01*
X000819Y018522D02*
X002598Y018522D01*
X002598Y018445D02*
X000819Y018445D01*
X000819Y018368D02*
X002598Y018368D01*
X002598Y018291D02*
X000819Y018291D01*
X000819Y018213D02*
X002572Y018213D01*
X002495Y018136D02*
X000819Y018136D01*
X000819Y018059D02*
X002418Y018059D01*
X002341Y017982D02*
X000819Y017982D01*
X000819Y017904D02*
X002264Y017904D01*
X002084Y017827D02*
X000819Y017827D01*
X000819Y017750D02*
X001982Y017750D01*
X001938Y017673D02*
X000819Y017673D01*
X000819Y017595D02*
X001918Y017595D01*
X001918Y017518D02*
X000819Y017518D01*
X000819Y017441D02*
X001946Y017441D01*
X002002Y017364D02*
X000819Y017364D01*
X000819Y017286D02*
X002131Y017286D01*
X002277Y017286D02*
X002519Y017286D01*
X002519Y017209D02*
X000819Y017209D01*
X000819Y017132D02*
X002519Y017132D01*
X002519Y017055D02*
X000819Y017055D01*
X000819Y016977D02*
X002519Y016977D01*
X002519Y016900D02*
X000819Y016900D01*
X000819Y016823D02*
X002519Y016823D01*
X002519Y016746D02*
X001904Y016746D01*
X001988Y016669D02*
X002519Y016669D01*
X002519Y016591D02*
X002045Y016591D01*
X002077Y016514D02*
X002519Y016514D01*
X002519Y016437D02*
X002092Y016437D01*
X002092Y016360D02*
X002519Y016360D01*
X002519Y016282D02*
X002079Y016282D01*
X002047Y016205D02*
X002519Y016205D01*
X002519Y016128D02*
X001994Y016128D01*
X001917Y016051D02*
X002519Y016051D01*
X002519Y015973D02*
X000819Y015973D01*
X000819Y015896D02*
X002519Y015896D01*
X002519Y015819D02*
X000819Y015819D01*
X000819Y015742D02*
X000925Y015742D01*
X000835Y015664D02*
X000819Y015664D01*
X000819Y016051D02*
X000912Y016051D01*
X000835Y016128D02*
X000819Y016128D01*
X000819Y016669D02*
X000841Y016669D01*
X000819Y016746D02*
X000925Y016746D01*
X001454Y015805D02*
X001454Y015435D01*
X002093Y015435D01*
X002084Y015491D01*
X002064Y015552D01*
X002035Y015610D01*
X001997Y015662D01*
X001951Y015707D01*
X001899Y015745D01*
X001842Y015775D01*
X001780Y015794D01*
X001717Y015805D01*
X001454Y015805D01*
X001454Y015742D02*
X001375Y015742D01*
X001375Y015664D02*
X001454Y015664D01*
X001454Y015587D02*
X001375Y015587D01*
X001375Y015510D02*
X001454Y015510D01*
X001454Y015433D02*
X002519Y015433D01*
X002519Y015510D02*
X002078Y015510D01*
X002046Y015587D02*
X002519Y015587D01*
X002519Y015664D02*
X001994Y015664D01*
X001904Y015742D02*
X002519Y015742D01*
X002519Y015355D02*
X002093Y015355D01*
X002093Y015356D02*
X001454Y015356D01*
X001454Y014986D01*
X001717Y014986D01*
X001780Y014996D01*
X001842Y015016D01*
X001899Y015045D01*
X001951Y015083D01*
X001997Y015129D01*
X002035Y015181D01*
X002064Y015238D01*
X002084Y015299D01*
X002093Y015356D01*
X002077Y015278D02*
X002519Y015278D01*
X002519Y015201D02*
X002045Y015201D01*
X001992Y015124D02*
X002519Y015124D01*
X002519Y015046D02*
X001901Y015046D01*
X001454Y015046D02*
X001375Y015046D01*
X001375Y015124D02*
X001454Y015124D01*
X001454Y015201D02*
X001375Y015201D01*
X001375Y015278D02*
X001454Y015278D01*
X001454Y015355D02*
X001375Y015355D01*
X000928Y015046D02*
X000819Y015046D01*
X000819Y014969D02*
X002519Y014969D01*
X002519Y014892D02*
X000819Y014892D01*
X000819Y014815D02*
X002519Y014815D01*
X002519Y014738D02*
X000819Y014738D01*
X000819Y014660D02*
X002519Y014660D01*
X002519Y014583D02*
X000819Y014583D01*
X000819Y014506D02*
X002519Y014506D01*
X002519Y014429D02*
X000819Y014429D01*
X000819Y014351D02*
X002519Y014351D01*
X002519Y014274D02*
X001914Y014274D01*
X001885Y014289D02*
X001947Y014257D01*
X002003Y014217D01*
X002052Y014168D01*
X002092Y014112D01*
X002124Y014050D01*
X002145Y013984D01*
X002155Y013921D01*
X001456Y013921D01*
X001456Y014321D01*
X001751Y014321D01*
X001820Y014310D01*
X001885Y014289D01*
X002023Y014197D02*
X002519Y014197D01*
X002519Y014120D02*
X002087Y014120D01*
X002126Y014042D02*
X002519Y014042D01*
X002519Y013965D02*
X002148Y013965D01*
X002150Y013811D02*
X002519Y013811D01*
X002519Y013888D02*
X001456Y013888D01*
X001456Y013965D02*
X001377Y013965D01*
X001377Y014042D02*
X001456Y014042D01*
X001456Y014120D02*
X001377Y014120D01*
X001377Y014197D02*
X001456Y014197D01*
X001456Y014274D02*
X001377Y014274D01*
X000919Y014274D02*
X000819Y014274D01*
X001377Y013811D02*
X001456Y013811D01*
X001456Y013733D02*
X001377Y013733D01*
X001377Y013656D02*
X001456Y013656D01*
X001456Y013579D02*
X001377Y013579D01*
X001377Y013502D02*
X001456Y013502D01*
X000894Y013502D02*
X000819Y013502D01*
X000819Y013424D02*
X002519Y013424D01*
X002519Y013347D02*
X000819Y013347D01*
X000819Y013270D02*
X000910Y013270D01*
X001417Y012881D02*
X002401Y011897D01*
X002401Y010480D01*
X002991Y009889D01*
X003877Y009889D01*
X004466Y009301D01*
X006940Y009301D01*
X006940Y009496D02*
X006940Y009498D01*
X004667Y009498D01*
X004665Y009496D01*
X004665Y009839D01*
X004714Y009888D01*
X004614Y009988D01*
X004271Y009988D01*
X003877Y009693D02*
X002893Y009693D01*
X002204Y010381D01*
X002204Y011094D01*
X001417Y011881D01*
X002051Y012498D02*
X002519Y012498D01*
X002519Y012575D02*
X002029Y012575D01*
X002095Y012652D02*
X002519Y012652D01*
X002519Y012729D02*
X002127Y012729D01*
X002154Y012807D02*
X002519Y012807D01*
X002519Y012884D02*
X002154Y012884D01*
X002154Y012961D02*
X002519Y012961D01*
X002519Y013038D02*
X002126Y013038D01*
X002094Y013115D02*
X002519Y013115D01*
X002519Y013193D02*
X002025Y013193D01*
X001923Y013270D02*
X002519Y013270D01*
X002519Y013502D02*
X001939Y013502D01*
X002035Y013579D02*
X002519Y013579D01*
X002519Y013656D02*
X002095Y013656D01*
X002131Y013733D02*
X002519Y013733D01*
X003464Y013733D02*
X009802Y013733D01*
X009802Y013656D02*
X003464Y013656D01*
X003464Y013579D02*
X009802Y013579D01*
X009802Y013502D02*
X003464Y013502D01*
X003464Y013424D02*
X009802Y013424D01*
X009802Y013347D02*
X003464Y013347D01*
X003464Y013270D02*
X009802Y013270D01*
X009802Y013193D02*
X008742Y013193D01*
X008764Y013183D02*
X008659Y013227D01*
X008545Y013227D01*
X008439Y013183D01*
X008359Y013103D01*
X008315Y012998D01*
X008315Y012884D01*
X003464Y012884D01*
X003464Y012961D02*
X008315Y012961D01*
X008315Y012884D02*
X008359Y012778D01*
X008425Y012712D01*
X008425Y012286D01*
X008396Y012314D01*
X008396Y012407D01*
X008352Y012512D01*
X008272Y012593D01*
X008167Y012637D01*
X008053Y012637D01*
X007947Y012593D01*
X007867Y012512D01*
X007848Y012468D01*
X007789Y012527D01*
X007747Y012527D01*
X007681Y012593D01*
X007576Y012637D01*
X007462Y012637D01*
X007357Y012593D01*
X007276Y012512D01*
X007232Y012407D01*
X007232Y012293D01*
X007276Y012188D01*
X007357Y012107D01*
X007462Y012063D01*
X007576Y012063D01*
X007681Y012107D01*
X007695Y012121D01*
X008031Y011784D01*
X008031Y011769D01*
X007897Y011769D01*
X007891Y011771D01*
X007814Y011771D01*
X007814Y011688D01*
X007814Y011688D01*
X007814Y011356D01*
X007814Y011356D01*
X007814Y011688D01*
X007814Y011688D01*
X007814Y011771D01*
X007736Y011771D01*
X007731Y011769D01*
X007501Y011769D01*
X007420Y011688D01*
X007420Y011533D01*
X007337Y011533D01*
X006855Y011051D01*
X003464Y011051D01*
X003464Y016897D01*
X007116Y016897D01*
X007824Y017605D01*
X008399Y017605D01*
X008559Y017672D01*
X008683Y017795D01*
X008700Y017837D01*
X008717Y017795D01*
X008840Y017672D01*
X009001Y017605D01*
X009212Y017605D01*
X009212Y017296D01*
X009316Y017193D01*
X009802Y016706D01*
X009802Y013005D01*
X009741Y013030D01*
X009627Y013030D01*
X009522Y012987D01*
X009441Y012906D01*
X009398Y012801D01*
X009398Y012697D01*
X009220Y012519D01*
X009220Y012116D01*
X009151Y012144D01*
X009097Y012144D01*
X009140Y012188D01*
X009184Y012293D01*
X009184Y012407D01*
X009140Y012512D01*
X009059Y012593D01*
X008954Y012637D01*
X008840Y012637D01*
X008814Y012626D01*
X008779Y012626D01*
X008779Y012712D01*
X008845Y012778D01*
X008888Y012884D01*
X009432Y012884D01*
X009400Y012807D02*
X008856Y012807D01*
X008888Y012884D02*
X008888Y012998D01*
X008845Y013103D01*
X008764Y013183D01*
X008832Y013115D02*
X009802Y013115D01*
X009802Y013038D02*
X008871Y013038D01*
X008888Y012961D02*
X009496Y012961D01*
X009398Y012729D02*
X008796Y012729D01*
X008779Y012652D02*
X009353Y012652D01*
X009276Y012575D02*
X009077Y012575D01*
X009146Y012498D02*
X009220Y012498D01*
X009220Y012420D02*
X009178Y012420D01*
X009184Y012343D02*
X009220Y012343D01*
X009220Y012266D02*
X009172Y012266D01*
X009140Y012189D02*
X009220Y012189D01*
X009094Y011858D02*
X008995Y011661D01*
X008995Y011356D01*
X008799Y011356D02*
X008798Y011356D01*
X008799Y011356D02*
X008799Y012448D01*
X008897Y012350D01*
X008425Y012343D02*
X008396Y012343D01*
X008391Y012420D02*
X008425Y012420D01*
X008425Y012498D02*
X008359Y012498D01*
X008425Y012575D02*
X008290Y012575D01*
X008425Y012652D02*
X003464Y012652D01*
X003464Y012575D02*
X007339Y012575D01*
X007270Y012498D02*
X003464Y012498D01*
X003464Y012420D02*
X007238Y012420D01*
X007232Y012343D02*
X003464Y012343D01*
X003464Y012266D02*
X007244Y012266D01*
X007276Y012189D02*
X003464Y012189D01*
X003464Y012111D02*
X007352Y012111D01*
X007519Y012350D02*
X007716Y012350D01*
X008208Y011858D01*
X008208Y011356D01*
X008207Y011356D01*
X008011Y011356D02*
X008011Y009496D01*
X007519Y009496D01*
X006940Y009496D01*
X006942Y009693D02*
X006940Y009694D01*
X006940Y009694D01*
X007272Y009694D01*
X007272Y009694D01*
X007272Y009694D01*
X006940Y009694D01*
X005597Y009694D01*
X005403Y009888D01*
X005442Y009871D02*
X006526Y009871D01*
X006526Y009794D02*
X005749Y009794D01*
X005749Y009849D02*
X005442Y009849D01*
X005442Y009927D01*
X005749Y009927D01*
X005749Y010108D01*
X006526Y010108D01*
X006526Y009972D01*
X006526Y009778D01*
X006525Y009772D01*
X006525Y009694D01*
X006525Y009675D01*
X005749Y009675D01*
X005749Y009849D01*
X005749Y009949D02*
X006526Y009949D01*
X006526Y010026D02*
X005749Y010026D01*
X005749Y010103D02*
X006526Y010103D01*
X006525Y009717D02*
X005749Y009717D01*
X006525Y009694D02*
X006607Y009694D01*
X006525Y009694D01*
X006607Y009694D02*
X006607Y009694D01*
X006940Y009694D01*
X006940Y009694D01*
X006607Y009694D01*
X006607Y009694D01*
X006942Y009693D02*
X007814Y009693D01*
X007617Y009889D01*
X007512Y010026D02*
X007833Y010026D01*
X007833Y010103D02*
X007596Y010103D01*
X007585Y010099D02*
X007681Y010139D01*
X007762Y010219D01*
X007806Y010325D01*
X007806Y010438D01*
X007762Y010544D01*
X007681Y010624D01*
X007576Y010668D01*
X007462Y010668D01*
X007357Y010624D01*
X007353Y010621D01*
X007353Y010795D01*
X007272Y010875D01*
X007181Y010875D01*
X007420Y011115D01*
X007420Y011023D01*
X007501Y010942D01*
X007731Y010942D01*
X007736Y010941D01*
X007814Y010941D01*
X007833Y010941D01*
X007833Y009673D01*
X007355Y009673D01*
X007355Y009694D01*
X007272Y009694D01*
X007355Y009694D01*
X007355Y009772D01*
X007353Y009778D01*
X007353Y009911D01*
X007397Y009911D01*
X007585Y010099D01*
X007723Y010180D02*
X007833Y010180D01*
X007833Y010258D02*
X007778Y010258D01*
X007806Y010335D02*
X007833Y010335D01*
X007833Y010412D02*
X007806Y010412D01*
X007785Y010489D02*
X007833Y010489D01*
X007833Y010567D02*
X007739Y010567D01*
X007833Y010644D02*
X007635Y010644D01*
X007833Y010721D02*
X007353Y010721D01*
X007353Y010644D02*
X007403Y010644D01*
X007350Y010798D02*
X007833Y010798D01*
X007833Y010876D02*
X007181Y010876D01*
X007258Y010953D02*
X007490Y010953D01*
X007420Y011030D02*
X007335Y011030D01*
X007413Y011107D02*
X007420Y011107D01*
X007411Y011356D02*
X006928Y010874D01*
X003385Y010874D01*
X003287Y010972D01*
X003287Y016976D01*
X003385Y017074D01*
X007043Y017074D01*
X008011Y018043D01*
X007814Y017595D02*
X009212Y017595D01*
X009212Y017518D02*
X007737Y017518D01*
X007660Y017441D02*
X009212Y017441D01*
X009212Y017364D02*
X007583Y017364D01*
X007505Y017286D02*
X009222Y017286D01*
X009299Y017209D02*
X007428Y017209D01*
X007351Y017132D02*
X009376Y017132D01*
X009454Y017055D02*
X007274Y017055D01*
X007196Y016977D02*
X009531Y016977D01*
X009608Y016900D02*
X007119Y016900D01*
X006633Y018044D02*
X005860Y017271D01*
X003188Y017271D01*
X003090Y017173D01*
X003090Y010874D01*
X003285Y010679D01*
X006940Y010679D01*
X006940Y010482D02*
X003186Y010482D01*
X002893Y010775D01*
X002893Y017271D01*
X003090Y017468D01*
X004960Y017468D01*
X004960Y017748D01*
X005255Y018043D01*
X005729Y018445D02*
X006157Y018445D01*
X006038Y018368D02*
X005850Y018368D01*
X005926Y018291D02*
X005961Y018291D01*
X007109Y018445D02*
X007538Y018445D01*
X007417Y018368D02*
X007228Y018368D01*
X007305Y018291D02*
X007340Y018291D01*
X008485Y018445D02*
X008915Y018445D01*
X008794Y018368D02*
X008606Y018368D01*
X008683Y018291D02*
X008717Y018291D01*
X008696Y017827D02*
X008704Y017827D01*
X008762Y017750D02*
X008637Y017750D01*
X008560Y017673D02*
X008840Y017673D01*
X009389Y017370D02*
X009389Y018042D01*
X009388Y018043D01*
X009862Y018445D02*
X010392Y018445D01*
X010271Y018368D02*
X009983Y018368D01*
X010060Y018291D02*
X010194Y018291D01*
X010162Y018213D02*
X010092Y018213D01*
X010124Y018136D02*
X010130Y018136D01*
X010126Y018059D02*
X010128Y018059D01*
X010126Y017982D02*
X010128Y017982D01*
X009389Y017370D02*
X009980Y016779D01*
X009980Y011858D01*
X010275Y011858D01*
X010373Y011760D01*
X010373Y011356D01*
X009782Y011356D02*
X009782Y010874D01*
X009783Y010775D01*
X009782Y010941D02*
X009860Y010941D01*
X009866Y010942D01*
X012164Y010942D01*
X012164Y010876D01*
X012063Y010775D01*
X010095Y010775D01*
X009980Y010660D01*
X009684Y010365D01*
X009684Y010196D01*
X009638Y010150D01*
X009595Y010045D01*
X009595Y009931D01*
X009638Y009825D01*
X009719Y009745D01*
X009824Y009701D01*
X009938Y009701D01*
X010044Y009745D01*
X010124Y009825D01*
X010168Y009931D01*
X010168Y010045D01*
X010124Y010150D01*
X010078Y010196D01*
X010078Y010202D01*
X010258Y010381D01*
X012227Y010381D01*
X012342Y010497D01*
X012342Y009676D01*
X012145Y009479D01*
X012145Y005871D01*
X012260Y005756D01*
X012423Y005756D01*
X012425Y005757D01*
X013051Y005757D01*
X013051Y005297D01*
X012894Y005454D01*
X012747Y005454D01*
X012538Y005454D01*
X012538Y005610D01*
X012457Y005690D01*
X007897Y005690D01*
X007891Y005692D01*
X007814Y005692D01*
X007814Y005610D01*
X007814Y005610D01*
X007814Y005277D01*
X007814Y004944D01*
X007814Y004862D01*
X007833Y004862D01*
X007833Y004746D01*
X006855Y003767D01*
X006470Y003767D01*
X007494Y004791D01*
X007549Y004791D01*
X007553Y004788D01*
X007622Y004791D01*
X007691Y004791D01*
X007694Y004794D01*
X007699Y004795D01*
X007746Y004846D01*
X007762Y004862D01*
X007814Y004862D01*
X007814Y004944D01*
X007814Y004944D01*
X007814Y004944D01*
X007814Y005277D01*
X007814Y005277D01*
X007814Y005277D01*
X007814Y006723D01*
X007716Y006821D01*
X007716Y007018D01*
X007696Y007038D01*
X007696Y009319D01*
X008084Y009319D01*
X008188Y009422D01*
X008188Y010942D01*
X009699Y010942D01*
X009705Y010941D01*
X009782Y010941D01*
X009782Y011023D01*
X009782Y011023D01*
X009782Y011356D01*
X009782Y011688D01*
X009782Y011688D01*
X009782Y011356D01*
X009782Y011356D01*
X009782Y011023D01*
X009782Y011023D01*
X009782Y010941D01*
X009782Y010953D02*
X009782Y010953D01*
X009782Y011030D02*
X009782Y011030D01*
X009782Y011107D02*
X009782Y011107D01*
X009782Y011184D02*
X009782Y011184D01*
X009782Y011262D02*
X009782Y011262D01*
X009782Y011339D02*
X009782Y011339D01*
X009782Y011356D02*
X009782Y011356D01*
X009782Y011416D02*
X009782Y011416D01*
X009782Y011493D02*
X009782Y011493D01*
X009782Y011571D02*
X009782Y011571D01*
X009782Y011648D02*
X009782Y011648D01*
X009782Y011688D02*
X009782Y011688D01*
X009782Y011771D01*
X009763Y011771D01*
X009763Y011777D01*
X009802Y011794D01*
X009802Y011784D01*
X009816Y011771D01*
X009782Y011771D01*
X009782Y011688D01*
X009782Y011725D02*
X009782Y011725D01*
X009684Y012055D02*
X009585Y012054D01*
X009585Y011356D01*
X009389Y011356D02*
X009389Y011356D01*
X010041Y010721D02*
X008188Y010721D01*
X008188Y010644D02*
X009964Y010644D01*
X009886Y010567D02*
X008188Y010567D01*
X008188Y010489D02*
X009809Y010489D01*
X009732Y010412D02*
X008188Y010412D01*
X008188Y010335D02*
X009684Y010335D01*
X009684Y010258D02*
X008188Y010258D01*
X008188Y010180D02*
X009669Y010180D01*
X009619Y010103D02*
X008188Y010103D01*
X008188Y010026D02*
X009595Y010026D01*
X009595Y009949D02*
X008188Y009949D01*
X008188Y009871D02*
X009619Y009871D01*
X009670Y009794D02*
X008188Y009794D01*
X008188Y009717D02*
X009786Y009717D01*
X009976Y009717D02*
X012342Y009717D01*
X012342Y009794D02*
X010093Y009794D01*
X010143Y009871D02*
X012342Y009871D01*
X012342Y009949D02*
X010168Y009949D01*
X010168Y010026D02*
X012342Y010026D01*
X012342Y010103D02*
X010144Y010103D01*
X010094Y010180D02*
X012342Y010180D01*
X012342Y010258D02*
X010134Y010258D01*
X010211Y010335D02*
X012342Y010335D01*
X012342Y010412D02*
X012257Y010412D01*
X012334Y010489D02*
X012342Y010489D01*
X012342Y010775D02*
X012440Y010775D01*
X012637Y010972D01*
X013425Y010972D01*
X013425Y012350D01*
X013621Y012547D01*
X014507Y012547D01*
X014507Y012902D01*
X014546Y012941D01*
X014546Y013532D01*
X014547Y013532D01*
X014507Y013728D01*
X014507Y014515D01*
X013877Y012941D02*
X013425Y012941D01*
X013877Y012941D02*
X013877Y012941D01*
X013695Y012370D02*
X014581Y012370D01*
X014684Y012473D01*
X014684Y012586D01*
X014800Y012586D01*
X014830Y012616D01*
X014830Y012420D01*
X014634Y012224D01*
X014437Y012224D01*
X014338Y012125D01*
X014338Y011436D01*
X014119Y011217D01*
X014119Y011378D01*
X013812Y011378D01*
X013812Y011456D01*
X013734Y011456D01*
X013734Y011769D01*
X013602Y011769D01*
X013602Y012277D01*
X013695Y012370D01*
X013668Y012343D02*
X014753Y012343D01*
X014830Y012420D02*
X014631Y012420D01*
X014684Y012498D02*
X014830Y012498D01*
X014830Y012575D02*
X014684Y012575D01*
X014676Y012266D02*
X013602Y012266D01*
X013602Y012189D02*
X014402Y012189D01*
X014338Y012111D02*
X013602Y012111D01*
X013602Y012034D02*
X014338Y012034D01*
X014338Y011957D02*
X013602Y011957D01*
X013602Y011880D02*
X014338Y011880D01*
X014338Y011802D02*
X013602Y011802D01*
X013734Y011725D02*
X013812Y011725D01*
X013812Y011769D02*
X013812Y011456D01*
X014119Y011456D01*
X014119Y011648D01*
X014338Y011648D01*
X014338Y011725D02*
X014081Y011725D01*
X014091Y011715D02*
X014065Y011741D01*
X014033Y011759D01*
X013998Y011769D01*
X013812Y011769D01*
X013812Y011648D02*
X013734Y011648D01*
X013734Y011571D02*
X013812Y011571D01*
X013812Y011493D02*
X013734Y011493D01*
X013812Y011416D02*
X014318Y011416D01*
X014338Y011493D02*
X014119Y011493D01*
X014119Y011571D02*
X014338Y011571D01*
X014119Y011648D02*
X014110Y011683D01*
X014091Y011715D01*
X014119Y011339D02*
X014241Y011339D01*
X014164Y011262D02*
X014119Y011262D01*
X013967Y011065D02*
X013750Y010848D01*
X013551Y010848D01*
X013602Y010899D01*
X013602Y011065D01*
X013734Y011065D01*
X013734Y011378D01*
X013812Y011378D01*
X013812Y011065D01*
X013967Y011065D01*
X013932Y011030D02*
X013602Y011030D01*
X013602Y010953D02*
X013855Y010953D01*
X013778Y010876D02*
X013579Y010876D01*
X013734Y011107D02*
X013812Y011107D01*
X013812Y011184D02*
X013734Y011184D01*
X013734Y011262D02*
X013812Y011262D01*
X013812Y011339D02*
X013734Y011339D01*
X013131Y011464D02*
X013084Y011417D01*
X013131Y011464D02*
X013131Y011759D01*
X013031Y011858D01*
X012637Y012350D01*
X012440Y012350D01*
X012144Y012054D01*
X012144Y011356D01*
X012341Y011356D02*
X012341Y010776D01*
X012342Y010775D01*
X012164Y010876D02*
X008188Y010876D01*
X008188Y010798D02*
X012087Y010798D01*
X012341Y011356D02*
X012341Y011956D01*
X012539Y011956D01*
X011574Y012420D02*
X011538Y012420D01*
X011358Y012645D02*
X011850Y013137D01*
X011850Y013454D01*
X011887Y013492D01*
X012387Y013492D01*
X011357Y011760D02*
X011357Y011356D01*
X012306Y009640D02*
X008188Y009640D01*
X008188Y009562D02*
X012229Y009562D01*
X012151Y009485D02*
X008188Y009485D01*
X008173Y009408D02*
X012145Y009408D01*
X012145Y009331D02*
X008096Y009331D01*
X007696Y009253D02*
X012145Y009253D01*
X012145Y009176D02*
X007696Y009176D01*
X007696Y009099D02*
X012145Y009099D01*
X012145Y009022D02*
X007696Y009022D01*
X007696Y008944D02*
X012145Y008944D01*
X012145Y008867D02*
X007696Y008867D01*
X007696Y008790D02*
X012145Y008790D01*
X012145Y008713D02*
X007696Y008713D01*
X007696Y008636D02*
X012145Y008636D01*
X012145Y008558D02*
X007696Y008558D01*
X007696Y008481D02*
X012145Y008481D01*
X012145Y008404D02*
X007696Y008404D01*
X007696Y008327D02*
X012145Y008327D01*
X012145Y008249D02*
X007696Y008249D01*
X007696Y008172D02*
X012145Y008172D01*
X012145Y008095D02*
X007696Y008095D01*
X007696Y008018D02*
X012145Y008018D01*
X012145Y007940D02*
X007696Y007940D01*
X007696Y007863D02*
X012145Y007863D01*
X012145Y007786D02*
X007696Y007786D01*
X007696Y007709D02*
X012145Y007709D01*
X012145Y007631D02*
X007696Y007631D01*
X007696Y007554D02*
X012145Y007554D01*
X012145Y007477D02*
X007696Y007477D01*
X007696Y007400D02*
X012145Y007400D01*
X012145Y007322D02*
X007696Y007322D01*
X007696Y007245D02*
X012145Y007245D01*
X012145Y007168D02*
X007696Y007168D01*
X007696Y007091D02*
X012145Y007091D01*
X012145Y007013D02*
X007716Y007013D01*
X007716Y006936D02*
X012145Y006936D01*
X012145Y006859D02*
X007716Y006859D01*
X007755Y006782D02*
X012145Y006782D01*
X012145Y006705D02*
X007814Y006705D01*
X007814Y006627D02*
X012145Y006627D01*
X012145Y006550D02*
X007814Y006550D01*
X007814Y006473D02*
X012145Y006473D01*
X012145Y006396D02*
X007814Y006396D01*
X007814Y006318D02*
X012145Y006318D01*
X012145Y006241D02*
X007814Y006241D01*
X007814Y006164D02*
X012145Y006164D01*
X012145Y006087D02*
X007814Y006087D01*
X007814Y006009D02*
X012145Y006009D01*
X012145Y005932D02*
X007814Y005932D01*
X007814Y005855D02*
X012161Y005855D01*
X012238Y005778D02*
X007814Y005778D01*
X007814Y005700D02*
X013051Y005700D01*
X013051Y005623D02*
X012525Y005623D01*
X012538Y005546D02*
X013051Y005546D01*
X013051Y005469D02*
X012538Y005469D01*
X012956Y005391D02*
X013051Y005391D01*
X013051Y005314D02*
X013034Y005314D01*
X013405Y005700D02*
X013763Y005700D01*
X013778Y005778D02*
X013405Y005778D01*
X013432Y005855D02*
X013843Y005855D01*
X013766Y005932D02*
X013432Y005932D01*
X013432Y006009D02*
X013765Y006009D01*
X013765Y006087D02*
X013433Y006087D01*
X013433Y006164D02*
X013747Y006164D01*
X013768Y006348D02*
X014115Y006197D01*
X013768Y006348D02*
X013019Y006348D01*
X012605Y006318D02*
X012539Y006318D01*
X012539Y006241D02*
X012605Y006241D01*
X012604Y006164D02*
X012539Y006164D01*
X012539Y006396D02*
X012605Y006396D01*
X012605Y006473D02*
X012539Y006473D01*
X012539Y006550D02*
X012605Y006550D01*
X012605Y006627D02*
X012539Y006627D01*
X012539Y006705D02*
X012605Y006705D01*
X012605Y006782D02*
X012539Y006782D01*
X012539Y006859D02*
X012605Y006859D01*
X012605Y006936D02*
X012539Y006936D01*
X012539Y007013D02*
X012605Y007013D01*
X012605Y007091D02*
X012539Y007091D01*
X012539Y007168D02*
X012605Y007168D01*
X012605Y007245D02*
X012539Y007245D01*
X012539Y007322D02*
X012605Y007322D01*
X012605Y007400D02*
X012539Y007400D01*
X012539Y007477D02*
X012605Y007477D01*
X012605Y007554D02*
X012539Y007554D01*
X012539Y007631D02*
X012605Y007631D01*
X013019Y008316D02*
X014411Y008316D01*
X014604Y006938D02*
X013019Y006938D01*
X014604Y006938D02*
X014901Y006937D01*
X011975Y004851D02*
X010747Y004851D01*
X010747Y004774D02*
X011975Y004774D01*
X011981Y004696D02*
X010797Y004696D01*
X010875Y004619D02*
X012058Y004619D01*
X011161Y003984D02*
X011751Y003393D01*
X011112Y003147D02*
X011259Y002901D01*
X011112Y003147D02*
X011042Y003147D01*
X010390Y002417D02*
X010097Y002710D01*
X010097Y003147D01*
X010669Y003984D02*
X011161Y003984D01*
X010669Y003984D02*
X010176Y004477D01*
X010176Y005277D01*
X008798Y005277D02*
X008798Y004279D01*
X008700Y004181D01*
X008207Y004672D02*
X006928Y003393D01*
X005452Y003393D01*
X005354Y003492D01*
X005649Y003590D02*
X005354Y003885D01*
X005354Y004378D01*
X005255Y004476D01*
X005440Y004696D02*
X006898Y004696D01*
X006821Y004619D02*
X005506Y004619D01*
X005498Y004638D02*
X005418Y004719D01*
X005410Y004722D01*
X005418Y004725D01*
X005483Y004791D01*
X006116Y004791D01*
X006220Y004895D01*
X007082Y005757D01*
X007272Y005757D01*
X007353Y005838D01*
X007353Y006627D01*
X007420Y006560D01*
X007420Y005145D01*
X007347Y005145D01*
X006166Y003964D01*
X005935Y003964D01*
X005935Y004041D01*
X005892Y004146D01*
X005811Y004227D01*
X005706Y004270D01*
X005592Y004270D01*
X005531Y004245D01*
X005531Y004393D01*
X005542Y004419D01*
X005542Y004533D01*
X005498Y004638D01*
X005538Y004542D02*
X006744Y004542D01*
X006666Y004465D02*
X005542Y004465D01*
X005531Y004387D02*
X006589Y004387D01*
X006512Y004310D02*
X005531Y004310D01*
X005797Y004233D02*
X006435Y004233D01*
X006358Y004156D02*
X005882Y004156D01*
X005920Y004078D02*
X006280Y004078D01*
X006203Y004001D02*
X005935Y004001D01*
X005846Y003787D02*
X005649Y003984D01*
X005846Y003787D02*
X006240Y003787D01*
X007421Y004968D01*
X007617Y004968D01*
X007603Y005263D01*
X007617Y005277D01*
X007814Y005314D02*
X007814Y005314D01*
X007814Y005237D02*
X007814Y005237D01*
X007814Y005160D02*
X007814Y005160D01*
X007814Y005082D02*
X007814Y005082D01*
X007814Y005005D02*
X007814Y005005D01*
X007814Y004928D02*
X007814Y004928D01*
X007814Y004870D02*
X007421Y004476D01*
X007475Y004387D02*
X007090Y004387D01*
X007013Y004310D02*
X007398Y004310D01*
X007321Y004233D02*
X006936Y004233D01*
X006859Y004156D02*
X007243Y004156D01*
X007166Y004078D02*
X006781Y004078D01*
X006704Y004001D02*
X007089Y004001D01*
X007012Y003924D02*
X006627Y003924D01*
X006550Y003847D02*
X006934Y003847D01*
X006857Y003769D02*
X006472Y003769D01*
X006928Y003590D02*
X005649Y003590D01*
X005610Y003216D02*
X007002Y003216D01*
X007842Y004056D01*
X007842Y003618D01*
X007941Y003519D01*
X008090Y003519D01*
X008090Y003455D01*
X008151Y003393D01*
X008090Y003332D01*
X008090Y003317D01*
X008050Y003317D01*
X007580Y002846D01*
X007571Y002854D01*
X007208Y002854D01*
X006952Y002598D01*
X006952Y002235D01*
X007053Y002135D01*
X006428Y002135D01*
X006162Y002401D01*
X006034Y002528D01*
X005609Y002528D01*
X005610Y002529D01*
X005610Y003216D01*
X005610Y003151D02*
X007885Y003151D01*
X007808Y003074D02*
X005610Y003074D01*
X005610Y002997D02*
X007731Y002997D01*
X007653Y002920D02*
X005610Y002920D01*
X005610Y002843D02*
X007196Y002843D01*
X007119Y002765D02*
X005610Y002765D01*
X005610Y002688D02*
X007042Y002688D01*
X006965Y002611D02*
X005610Y002611D01*
X005610Y002534D02*
X006952Y002534D01*
X006952Y002456D02*
X006107Y002456D01*
X006184Y002379D02*
X006952Y002379D01*
X006952Y002302D02*
X006261Y002302D01*
X006338Y002225D02*
X006963Y002225D01*
X007040Y002147D02*
X006416Y002147D01*
X006089Y001858D02*
X005573Y001858D01*
X005492Y001777D01*
X005492Y001024D01*
X004035Y001024D01*
X004035Y001777D01*
X003954Y001858D01*
X003368Y001858D01*
X003287Y001777D01*
X003287Y001024D01*
X001835Y001024D01*
X002078Y001124D01*
X002308Y001354D01*
X002433Y001656D01*
X002433Y001981D01*
X002308Y002283D01*
X002078Y002513D01*
X001776Y002638D01*
X001451Y002638D01*
X001149Y002513D01*
X000919Y002283D01*
X000819Y002040D01*
X000819Y004311D01*
X000911Y004219D01*
X001061Y004157D01*
X001763Y004157D01*
X001913Y004219D01*
X002028Y004333D01*
X002090Y004483D01*
X002090Y004646D01*
X002028Y004795D01*
X001913Y004910D01*
X001763Y004972D01*
X001061Y004972D01*
X000911Y004910D01*
X000819Y004817D01*
X000819Y005311D01*
X000911Y005219D01*
X001061Y005157D01*
X001763Y005157D01*
X001913Y005219D01*
X002028Y005333D01*
X002090Y005483D01*
X002090Y005646D01*
X002028Y005795D01*
X001913Y005910D01*
X001763Y005972D01*
X001061Y005972D01*
X000911Y005910D01*
X000819Y005817D01*
X000819Y006560D01*
X000869Y006510D01*
X001030Y006444D01*
X001546Y006444D01*
X002380Y005610D01*
X002380Y003106D01*
X002508Y002979D01*
X003463Y002024D01*
X003463Y002024D01*
X003590Y001896D01*
X005149Y001896D01*
X005276Y002024D01*
X005354Y002101D01*
X005362Y002093D01*
X005854Y002093D01*
X006089Y001858D01*
X006031Y001916D02*
X005168Y001916D01*
X005245Y001993D02*
X005954Y001993D01*
X005877Y002070D02*
X005323Y002070D01*
X005553Y001838D02*
X003974Y001838D01*
X004035Y001761D02*
X005492Y001761D01*
X005492Y001684D02*
X004035Y001684D01*
X004035Y001607D02*
X005492Y001607D01*
X005492Y001529D02*
X004035Y001529D01*
X004035Y001452D02*
X005492Y001452D01*
X005492Y001375D02*
X004035Y001375D01*
X004035Y001298D02*
X005492Y001298D01*
X005492Y001220D02*
X004035Y001220D01*
X004035Y001143D02*
X005492Y001143D01*
X005492Y001066D02*
X004035Y001066D01*
X003287Y001066D02*
X001938Y001066D01*
X002097Y001143D02*
X003287Y001143D01*
X003287Y001220D02*
X002174Y001220D01*
X002251Y001298D02*
X003287Y001298D01*
X003287Y001375D02*
X002317Y001375D01*
X002349Y001452D02*
X003287Y001452D01*
X003287Y001529D02*
X002381Y001529D01*
X002413Y001607D02*
X003287Y001607D01*
X003287Y001684D02*
X002433Y001684D01*
X002433Y001761D02*
X003287Y001761D01*
X003348Y001838D02*
X002433Y001838D01*
X002433Y001916D02*
X003571Y001916D01*
X003493Y001993D02*
X002428Y001993D01*
X002396Y002070D02*
X003416Y002070D01*
X003339Y002147D02*
X002364Y002147D01*
X002332Y002225D02*
X003262Y002225D01*
X003184Y002302D02*
X002289Y002302D01*
X002212Y002379D02*
X003107Y002379D01*
X003030Y002456D02*
X002134Y002456D01*
X002028Y002534D02*
X002953Y002534D01*
X002875Y002611D02*
X001842Y002611D01*
X001385Y002611D02*
X000819Y002611D01*
X000819Y002688D02*
X002798Y002688D01*
X002721Y002765D02*
X000819Y002765D01*
X000819Y002843D02*
X002644Y002843D01*
X002566Y002920D02*
X000819Y002920D01*
X000819Y002997D02*
X002489Y002997D01*
X002508Y002979D02*
X002508Y002979D01*
X002412Y003074D02*
X000819Y003074D01*
X000819Y003151D02*
X002380Y003151D01*
X002380Y003229D02*
X000819Y003229D01*
X000819Y003306D02*
X002380Y003306D01*
X002380Y003383D02*
X000819Y003383D01*
X000819Y003460D02*
X002380Y003460D01*
X002380Y003538D02*
X000819Y003538D01*
X000819Y003615D02*
X002380Y003615D01*
X002380Y003692D02*
X000819Y003692D01*
X000819Y003769D02*
X002380Y003769D01*
X002380Y003847D02*
X000819Y003847D01*
X000819Y003924D02*
X002380Y003924D01*
X002380Y004001D02*
X000819Y004001D01*
X000819Y004078D02*
X002380Y004078D01*
X002380Y004156D02*
X000819Y004156D01*
X000819Y004233D02*
X000897Y004233D01*
X000820Y004310D02*
X000819Y004310D01*
X000819Y004851D02*
X000852Y004851D01*
X000819Y004928D02*
X000954Y004928D01*
X000819Y005005D02*
X002380Y005005D01*
X002380Y004928D02*
X001870Y004928D01*
X001973Y004851D02*
X002380Y004851D01*
X002380Y004774D02*
X002037Y004774D01*
X002069Y004696D02*
X002380Y004696D01*
X002380Y004619D02*
X002090Y004619D01*
X002090Y004542D02*
X002380Y004542D01*
X002380Y004465D02*
X002082Y004465D01*
X002050Y004387D02*
X002380Y004387D01*
X002380Y004310D02*
X002005Y004310D01*
X001927Y004233D02*
X002380Y004233D01*
X002816Y004233D02*
X004389Y004233D01*
X004389Y004310D02*
X002816Y004310D01*
X002816Y004387D02*
X004389Y004387D01*
X004389Y004465D02*
X002816Y004465D01*
X002816Y004542D02*
X004389Y004542D01*
X004389Y004619D02*
X002816Y004619D01*
X002816Y004696D02*
X004389Y004696D01*
X004389Y004774D02*
X002816Y004774D01*
X002816Y004851D02*
X004389Y004851D01*
X004389Y004928D02*
X002816Y004928D01*
X002816Y005005D02*
X004389Y005005D01*
X004389Y005082D02*
X002816Y005082D01*
X002816Y005160D02*
X004389Y005160D01*
X004389Y005237D02*
X002816Y005237D01*
X002816Y005314D02*
X004389Y005314D01*
X004389Y005391D02*
X002816Y005391D01*
X002816Y005469D02*
X004389Y005469D01*
X004389Y005546D02*
X002816Y005546D01*
X002816Y005623D02*
X004389Y005623D01*
X004389Y005677D02*
X004389Y003332D01*
X004369Y003312D01*
X004345Y003326D01*
X004309Y003336D01*
X004193Y003336D01*
X004193Y002911D01*
X004153Y002911D01*
X004153Y002872D01*
X003915Y002872D01*
X003915Y002568D01*
X003925Y002532D01*
X003943Y002501D01*
X003969Y002475D01*
X004001Y002456D01*
X004037Y002447D01*
X004153Y002447D01*
X004153Y002872D01*
X004193Y002872D01*
X004193Y002447D01*
X004309Y002447D01*
X004345Y002456D01*
X004369Y002470D01*
X004391Y002448D01*
X004742Y002448D01*
X004764Y002470D01*
X004785Y002448D01*
X005085Y002448D01*
X004968Y002332D01*
X003771Y002332D01*
X002816Y003287D01*
X002816Y005681D01*
X002820Y005677D01*
X004389Y005677D01*
X004566Y005657D02*
X004566Y002892D01*
X004567Y002891D01*
X004193Y002920D02*
X004153Y002920D01*
X004153Y002911D02*
X004153Y003336D01*
X004037Y003336D01*
X004001Y003326D01*
X003969Y003308D01*
X003943Y003282D01*
X003925Y003250D01*
X003915Y003215D01*
X003915Y002911D01*
X004153Y002911D01*
X004153Y002843D02*
X004193Y002843D01*
X004193Y002765D02*
X004153Y002765D01*
X004153Y002688D02*
X004193Y002688D01*
X004193Y002611D02*
X004153Y002611D01*
X004153Y002534D02*
X004193Y002534D01*
X004193Y002456D02*
X004153Y002456D01*
X004001Y002456D02*
X003646Y002456D01*
X003723Y002379D02*
X005016Y002379D01*
X004777Y002456D02*
X004750Y002456D01*
X004384Y002456D02*
X004345Y002456D01*
X003925Y002534D02*
X003569Y002534D01*
X003491Y002611D02*
X003915Y002611D01*
X003915Y002688D02*
X003414Y002688D01*
X003337Y002765D02*
X003915Y002765D01*
X003915Y002843D02*
X003260Y002843D01*
X003182Y002920D02*
X003915Y002920D01*
X003915Y002997D02*
X003105Y002997D01*
X003028Y003074D02*
X003915Y003074D01*
X003915Y003151D02*
X002951Y003151D01*
X002874Y003229D02*
X003919Y003229D01*
X003967Y003306D02*
X002816Y003306D01*
X002816Y003383D02*
X004389Y003383D01*
X004389Y003460D02*
X002816Y003460D01*
X002816Y003538D02*
X004389Y003538D01*
X004389Y003615D02*
X002816Y003615D01*
X002816Y003692D02*
X004389Y003692D01*
X004389Y003769D02*
X002816Y003769D01*
X002816Y003847D02*
X004389Y003847D01*
X004389Y003924D02*
X002816Y003924D01*
X002816Y004001D02*
X004389Y004001D01*
X004389Y004078D02*
X002816Y004078D01*
X002816Y004156D02*
X004389Y004156D01*
X004193Y003306D02*
X004153Y003306D01*
X004153Y003229D02*
X004193Y003229D01*
X004193Y003151D02*
X004153Y003151D01*
X004153Y003074D02*
X004193Y003074D01*
X004193Y002997D02*
X004153Y002997D01*
X004960Y002892D02*
X004960Y002891D01*
X004960Y002892D02*
X004960Y005756D01*
X005749Y006545D01*
X006940Y006545D01*
X006940Y006742D02*
X005651Y006742D01*
X004566Y005657D01*
X004468Y005854D02*
X002893Y005854D01*
X002204Y006543D01*
X002204Y007921D01*
X001456Y007921D01*
X001417Y007881D01*
X001417Y008881D02*
X001440Y008905D01*
X002106Y008905D01*
X002401Y008610D01*
X002401Y006641D01*
X002991Y006051D01*
X004369Y006051D01*
X005848Y007529D01*
X006940Y007529D01*
X006940Y007332D02*
X005946Y007332D01*
X004468Y005854D01*
X004296Y006228D02*
X003065Y006228D01*
X002745Y006548D01*
X004017Y006548D01*
X004098Y006629D01*
X004098Y006661D01*
X004344Y006661D01*
X004448Y006765D01*
X004738Y007055D01*
X005037Y007055D01*
X005118Y007136D01*
X005118Y007643D01*
X005037Y007724D01*
X004490Y007724D01*
X004409Y007643D01*
X004409Y007227D01*
X004198Y007015D01*
X004098Y007015D01*
X004098Y007058D01*
X004017Y007138D01*
X002578Y007138D01*
X002578Y007532D01*
X002600Y007527D01*
X003248Y007527D01*
X003248Y007784D01*
X003327Y007784D01*
X003327Y007863D01*
X003248Y007863D01*
X003248Y008120D01*
X002600Y008120D01*
X002578Y008114D01*
X002578Y008510D01*
X004010Y008510D01*
X004065Y008566D01*
X004394Y008236D01*
X004409Y008236D01*
X004409Y007805D01*
X004490Y007724D01*
X005037Y007724D01*
X005118Y007805D01*
X005118Y007906D01*
X005280Y007744D01*
X006510Y007744D01*
X006525Y007759D01*
X006525Y007726D01*
X006607Y007726D01*
X006607Y007726D01*
X006607Y007726D01*
X006940Y007726D01*
X005552Y007726D01*
X005354Y007527D01*
X005468Y007400D02*
X005118Y007400D01*
X005118Y007477D02*
X005545Y007477D01*
X005622Y007554D02*
X005118Y007554D01*
X005118Y007631D02*
X005699Y007631D01*
X005774Y007706D02*
X004296Y006228D01*
X004309Y006241D02*
X003052Y006241D01*
X002974Y006318D02*
X004386Y006318D01*
X004464Y006396D02*
X002897Y006396D01*
X002820Y006473D02*
X004541Y006473D01*
X004618Y006550D02*
X004020Y006550D01*
X004097Y006627D02*
X004695Y006627D01*
X004773Y006705D02*
X004388Y006705D01*
X004465Y006782D02*
X004850Y006782D01*
X004927Y006859D02*
X004542Y006859D01*
X004620Y006936D02*
X005004Y006936D01*
X005082Y007013D02*
X004697Y007013D01*
X005073Y007091D02*
X005159Y007091D01*
X005118Y007168D02*
X005236Y007168D01*
X005313Y007245D02*
X005118Y007245D01*
X005118Y007322D02*
X005391Y007322D01*
X005354Y007724D02*
X003387Y007724D01*
X003287Y007823D01*
X003327Y007786D02*
X004428Y007786D01*
X004409Y007863D02*
X004096Y007863D01*
X004096Y007999D01*
X004086Y008035D01*
X004068Y008066D01*
X004042Y008092D01*
X004010Y008111D01*
X003975Y008120D01*
X003327Y008120D01*
X003327Y007863D01*
X004096Y007863D01*
X004096Y007940D02*
X004409Y007940D01*
X004409Y008018D02*
X004091Y008018D01*
X004038Y008095D02*
X004409Y008095D01*
X004409Y008172D02*
X002578Y008172D01*
X002578Y008249D02*
X004381Y008249D01*
X004304Y008327D02*
X002578Y008327D01*
X002578Y008404D02*
X004226Y008404D01*
X004149Y008481D02*
X002578Y008481D01*
X003248Y008095D02*
X003327Y008095D01*
X003327Y008018D02*
X003248Y008018D01*
X003248Y007940D02*
X003327Y007940D01*
X003327Y007863D02*
X003248Y007863D01*
X003327Y007784D02*
X004096Y007784D01*
X004096Y007648D01*
X004086Y007612D01*
X004068Y007580D01*
X004042Y007554D01*
X004010Y007536D01*
X003975Y007527D01*
X003327Y007527D01*
X003327Y007784D01*
X003327Y007709D02*
X003248Y007709D01*
X003248Y007631D02*
X003327Y007631D01*
X003327Y007554D02*
X003248Y007554D01*
X002578Y007477D02*
X004409Y007477D01*
X004409Y007554D02*
X004042Y007554D01*
X004091Y007631D02*
X004409Y007631D01*
X004474Y007709D02*
X004096Y007709D01*
X004409Y007400D02*
X002578Y007400D01*
X002578Y007322D02*
X004409Y007322D01*
X004409Y007245D02*
X002578Y007245D01*
X002578Y007168D02*
X004350Y007168D01*
X004273Y007091D02*
X004065Y007091D01*
X004271Y006838D02*
X003291Y006838D01*
X003291Y006843D01*
X003296Y006838D01*
X004271Y006838D02*
X004763Y007330D01*
X004763Y007389D01*
X005052Y007709D02*
X006525Y007709D01*
X006525Y007706D02*
X005774Y007706D01*
X005354Y007724D02*
X005352Y007726D01*
X006940Y007726D01*
X006940Y007726D01*
X006607Y007726D01*
X006525Y007726D01*
X006525Y007706D01*
X006436Y007921D02*
X005354Y007921D01*
X005157Y008118D01*
X004822Y008118D01*
X004763Y008059D01*
X005099Y007786D02*
X005238Y007786D01*
X005161Y007863D02*
X005118Y007863D01*
X005452Y008118D02*
X005255Y008315D01*
X005255Y008413D01*
X004468Y008413D01*
X004074Y008807D01*
X003284Y008807D01*
X003283Y008806D01*
X003877Y009299D02*
X001999Y009299D01*
X001417Y009881D01*
X001417Y010881D02*
X002704Y009496D01*
X003877Y009496D01*
X004466Y008907D01*
X006940Y008907D01*
X006940Y009104D02*
X004466Y009104D01*
X003877Y009693D01*
X003877Y009299D02*
X004466Y008710D01*
X006940Y008710D01*
X006940Y008513D02*
X005848Y008513D01*
X005747Y008413D01*
X005452Y008118D02*
X006141Y008118D01*
X006340Y008316D01*
X006940Y008316D01*
X006940Y008120D02*
X006436Y008120D01*
X006436Y007921D01*
X006940Y007923D02*
X007519Y007923D01*
X007519Y009496D01*
X007355Y009717D02*
X007833Y009717D01*
X007814Y009693D02*
X007814Y009693D01*
X007814Y011356D01*
X007814Y011023D01*
X007814Y010941D01*
X007814Y011023D01*
X007814Y011023D01*
X007814Y011356D01*
X007814Y011356D01*
X007814Y011339D02*
X007814Y011339D01*
X007814Y011416D02*
X007814Y011416D01*
X007814Y011493D02*
X007814Y011493D01*
X007814Y011571D02*
X007814Y011571D01*
X007814Y011648D02*
X007814Y011648D01*
X007814Y011725D02*
X007814Y011725D01*
X007936Y011880D02*
X003464Y011880D01*
X003464Y011957D02*
X007858Y011957D01*
X007781Y012034D02*
X003464Y012034D01*
X003464Y011802D02*
X008013Y011802D01*
X007704Y012111D02*
X007686Y012111D01*
X007819Y012498D02*
X007861Y012498D01*
X007929Y012575D02*
X007699Y012575D01*
X008110Y012350D02*
X008405Y012055D01*
X008405Y011356D01*
X008404Y011356D01*
X008601Y011356D02*
X008602Y011356D01*
X008602Y012941D01*
X008332Y013038D02*
X003464Y013038D01*
X003464Y013115D02*
X008371Y013115D01*
X008462Y013193D02*
X003464Y013193D01*
X003464Y012807D02*
X008347Y012807D01*
X008408Y012729D02*
X003464Y012729D01*
X002519Y012420D02*
X002128Y012420D01*
X002206Y012343D02*
X002519Y012343D01*
X002519Y012266D02*
X002283Y012266D01*
X002360Y012189D02*
X002519Y012189D01*
X002519Y012111D02*
X002437Y012111D01*
X002515Y012034D02*
X002519Y012034D01*
X003464Y011725D02*
X007457Y011725D01*
X007420Y011648D02*
X003464Y011648D01*
X003464Y011571D02*
X007420Y011571D01*
X007298Y011493D02*
X003464Y011493D01*
X003464Y011416D02*
X007220Y011416D01*
X007143Y011339D02*
X003464Y011339D01*
X003464Y011262D02*
X007066Y011262D01*
X006989Y011184D02*
X003464Y011184D01*
X003464Y011107D02*
X006912Y011107D01*
X007411Y011356D02*
X007617Y011356D01*
X007814Y011262D02*
X007814Y011262D01*
X007814Y011184D02*
X007814Y011184D01*
X007814Y011107D02*
X007814Y011107D01*
X007814Y011030D02*
X007814Y011030D01*
X007814Y011023D02*
X007814Y011023D01*
X007814Y010953D02*
X007814Y010953D01*
X007519Y010381D02*
X007519Y010283D01*
X007324Y010088D01*
X006940Y010088D01*
X006940Y009891D01*
X006940Y010285D02*
X003088Y010285D01*
X002696Y010677D01*
X002696Y017468D01*
X003188Y017960D01*
X003795Y017960D01*
X003877Y018042D01*
X004348Y018445D02*
X004781Y018445D01*
X004660Y018368D02*
X004470Y018368D01*
X004547Y018291D02*
X004583Y018291D01*
X003405Y018445D02*
X002991Y018445D01*
X002991Y018368D02*
X003283Y018368D01*
X003206Y018291D02*
X002991Y018291D01*
X002991Y018213D02*
X003174Y018213D01*
X003114Y018136D02*
X002991Y018136D01*
X002975Y018059D02*
X003036Y018059D01*
X002959Y017982D02*
X002898Y017982D01*
X002882Y017904D02*
X002820Y017904D01*
X002805Y017827D02*
X002743Y017827D01*
X002727Y017750D02*
X002666Y017750D01*
X002650Y017673D02*
X002589Y017673D01*
X002573Y017595D02*
X002511Y017595D01*
X002519Y017518D02*
X002491Y017518D01*
X002519Y017441D02*
X002462Y017441D01*
X002406Y017364D02*
X002519Y017364D01*
X003464Y016823D02*
X009685Y016823D01*
X009762Y016746D02*
X003464Y016746D01*
X003464Y016669D02*
X009802Y016669D01*
X009802Y016591D02*
X003464Y016591D01*
X003464Y016514D02*
X009802Y016514D01*
X009802Y016437D02*
X003464Y016437D01*
X003464Y016360D02*
X009802Y016360D01*
X009802Y016282D02*
X003464Y016282D01*
X003464Y016205D02*
X009802Y016205D01*
X009802Y016128D02*
X003464Y016128D01*
X003464Y016051D02*
X009802Y016051D01*
X009802Y015973D02*
X003464Y015973D01*
X003464Y015896D02*
X009802Y015896D01*
X009802Y015819D02*
X003464Y015819D01*
X003464Y015742D02*
X009802Y015742D01*
X009802Y015664D02*
X003464Y015664D01*
X003464Y015587D02*
X009802Y015587D01*
X009802Y015510D02*
X003464Y015510D01*
X003464Y015433D02*
X009802Y015433D01*
X009802Y015355D02*
X003464Y015355D01*
X003464Y015278D02*
X009802Y015278D01*
X009802Y015201D02*
X003464Y015201D01*
X003464Y015124D02*
X009802Y015124D01*
X009802Y015046D02*
X003464Y015046D01*
X003464Y014969D02*
X009802Y014969D01*
X009802Y014892D02*
X003464Y014892D01*
X003464Y014815D02*
X009802Y014815D01*
X009802Y014738D02*
X003464Y014738D01*
X003464Y014660D02*
X009802Y014660D01*
X009802Y014583D02*
X003464Y014583D01*
X003464Y014506D02*
X009802Y014506D01*
X009802Y014429D02*
X003464Y014429D01*
X003464Y014351D02*
X009802Y014351D01*
X009802Y014274D02*
X003464Y014274D01*
X003464Y014197D02*
X009802Y014197D01*
X009802Y014120D02*
X003464Y014120D01*
X003464Y014042D02*
X009802Y014042D01*
X009802Y013965D02*
X003464Y013965D01*
X003464Y013888D02*
X009802Y013888D01*
X009802Y013811D02*
X003464Y013811D01*
X000837Y015124D02*
X000819Y015124D01*
X002991Y018522D02*
X014240Y018522D01*
X014240Y018445D02*
X014094Y018445D01*
X014216Y018368D02*
X014240Y018368D01*
X014240Y017673D02*
X014171Y017673D01*
X014999Y018354D02*
X014999Y018551D01*
X014524Y019732D02*
X014232Y019732D01*
X014257Y019756D01*
X014297Y019812D01*
X014329Y019874D01*
X014350Y019940D01*
X014360Y020003D01*
X013661Y020003D01*
X013661Y020082D01*
X014360Y020082D01*
X014350Y020146D01*
X014329Y020211D01*
X014297Y020273D01*
X014257Y020329D01*
X014256Y020330D01*
X015250Y020330D01*
X015152Y020232D01*
X015024Y020232D01*
X014524Y019732D01*
X014550Y019758D02*
X014258Y019758D01*
X014309Y019835D02*
X014628Y019835D01*
X014705Y019913D02*
X014341Y019913D01*
X014358Y019990D02*
X014782Y019990D01*
X014859Y020067D02*
X013661Y020067D01*
X013582Y020067D02*
X012283Y020067D01*
X012283Y020083D02*
X012883Y020083D01*
X012883Y020082D01*
X013582Y020082D01*
X013582Y020003D01*
X012982Y020003D01*
X012982Y020004D01*
X012283Y020004D01*
X012283Y020083D01*
X012204Y020083D02*
X012204Y020004D01*
X011604Y020004D01*
X010905Y020004D01*
X010905Y020083D01*
X011505Y020083D01*
X011505Y020083D01*
X012204Y020083D01*
X012204Y020067D02*
X010905Y020067D01*
X010826Y020067D02*
X009428Y020067D01*
X009428Y020082D02*
X010127Y020082D01*
X010117Y020146D01*
X010096Y020212D01*
X010064Y020273D01*
X010024Y020329D01*
X010023Y020330D01*
X010231Y020330D01*
X010231Y020330D01*
X010190Y020274D01*
X010158Y020212D01*
X010137Y020146D01*
X010127Y020083D01*
X010826Y020083D01*
X010826Y020004D01*
X010127Y020004D01*
X010137Y019940D01*
X010158Y019875D01*
X010190Y019813D01*
X010231Y019757D01*
X010256Y019732D01*
X009999Y019732D01*
X010024Y019757D01*
X010064Y019813D01*
X010096Y019874D01*
X010117Y019940D01*
X010127Y020004D01*
X009428Y020004D01*
X009428Y020082D01*
X009349Y020082D02*
X009349Y020004D01*
X008750Y020004D01*
X008051Y020004D01*
X008051Y020082D01*
X008650Y020082D01*
X009349Y020082D01*
X009349Y020067D02*
X008051Y020067D01*
X007972Y020067D02*
X006672Y020067D01*
X006672Y020083D02*
X007273Y020083D01*
X007273Y020082D01*
X007972Y020082D01*
X007972Y020004D01*
X007371Y020004D01*
X007372Y020005D01*
X006672Y020005D01*
X006672Y020083D01*
X006594Y020083D02*
X006594Y020005D01*
X005894Y020005D01*
X005894Y020004D01*
X005294Y020004D01*
X005294Y020083D01*
X005994Y020083D01*
X005993Y020083D01*
X006594Y020083D01*
X006594Y020067D02*
X005294Y020067D01*
X005216Y020067D02*
X003916Y020067D01*
X003916Y020081D02*
X004615Y020081D01*
X004615Y020083D01*
X005216Y020083D01*
X005216Y020004D01*
X004516Y020004D01*
X004517Y020003D01*
X003916Y020003D01*
X003916Y020081D01*
X003837Y020067D02*
X002240Y020067D01*
X002312Y019990D02*
X003140Y019990D01*
X003157Y019913D02*
X002344Y019913D01*
X002376Y019835D02*
X003189Y019835D01*
X003240Y019758D02*
X002408Y019758D01*
X002163Y020144D02*
X003148Y020144D01*
X003175Y020222D02*
X002086Y020222D01*
X001910Y020299D02*
X003220Y020299D01*
X001172Y018831D02*
X000819Y018831D01*
X000819Y018909D02*
X001081Y018909D01*
X001004Y018986D02*
X000819Y018986D01*
X000819Y019063D02*
X000927Y019063D01*
X000890Y019140D02*
X000819Y019140D01*
X000819Y019217D02*
X000858Y019217D01*
X000826Y019295D02*
X000819Y019295D01*
X008650Y020082D02*
X008650Y020082D01*
X008750Y020004D02*
X008750Y020004D01*
X010024Y019758D02*
X010230Y019758D01*
X010178Y019835D02*
X010076Y019835D01*
X010108Y019913D02*
X010146Y019913D01*
X010129Y019990D02*
X010125Y019990D01*
X010117Y020144D02*
X010137Y020144D01*
X010163Y020222D02*
X010091Y020222D01*
X010046Y020299D02*
X010208Y020299D01*
X011604Y020004D02*
X011604Y020004D01*
X012717Y018445D02*
X013149Y018445D01*
X013028Y018368D02*
X012838Y018368D01*
X014350Y020144D02*
X014937Y020144D01*
X015014Y020222D02*
X014324Y020222D01*
X014279Y020299D02*
X015219Y020299D01*
X016382Y019604D02*
X016386Y019604D01*
X017012Y020144D02*
X017148Y020144D01*
X017176Y020222D02*
X017007Y020222D01*
X016929Y020299D02*
X017223Y020299D01*
X017535Y019913D02*
X017614Y019913D01*
X017614Y019835D02*
X017535Y019835D01*
X017535Y019758D02*
X017614Y019758D01*
X017614Y019681D02*
X017535Y019681D01*
X017535Y019604D02*
X017614Y019604D01*
X017934Y019295D02*
X018543Y019295D01*
X018575Y019217D02*
X018011Y019217D01*
X018012Y019140D02*
X018607Y019140D01*
X018643Y019063D02*
X018012Y019063D01*
X018012Y018986D02*
X018721Y018986D01*
X018798Y018909D02*
X018012Y018909D01*
X017990Y018831D02*
X018888Y018831D01*
X019075Y018754D02*
X017912Y018754D01*
X017835Y018677D02*
X020125Y018677D01*
X020125Y018754D02*
X019585Y018754D01*
X019772Y018831D02*
X020125Y018831D01*
X020125Y018909D02*
X019862Y018909D01*
X019939Y018986D02*
X020125Y018986D01*
X020125Y019063D02*
X020017Y019063D01*
X020053Y019140D02*
X020125Y019140D01*
X020125Y019217D02*
X020085Y019217D01*
X020117Y019295D02*
X020125Y019295D01*
X020125Y018600D02*
X017758Y018600D01*
X017391Y018600D02*
X017378Y018600D01*
X017301Y018522D02*
X020125Y018522D01*
X020125Y018445D02*
X017224Y018445D01*
X017146Y018368D02*
X020125Y018368D01*
X020125Y018291D02*
X017069Y018291D01*
X016992Y018213D02*
X020125Y018213D01*
X020125Y018136D02*
X016915Y018136D01*
X016842Y018059D02*
X018581Y018059D01*
X018504Y017982D02*
X016842Y017982D01*
X016842Y017904D02*
X018427Y017904D01*
X018459Y017441D02*
X017826Y017441D01*
X017826Y017364D02*
X018536Y017364D01*
X018613Y017286D02*
X017826Y017286D01*
X017826Y017209D02*
X020125Y017209D01*
X020125Y017132D02*
X017826Y017132D01*
X017826Y017055D02*
X018577Y017055D01*
X018500Y016977D02*
X017826Y016977D01*
X017488Y016977D02*
X017304Y016977D01*
X017381Y016900D02*
X017488Y016900D01*
X017488Y016823D02*
X017459Y016823D01*
X017488Y017055D02*
X017227Y017055D01*
X017150Y017132D02*
X017488Y017132D01*
X017488Y017209D02*
X017072Y017209D01*
X016995Y017286D02*
X017488Y017286D01*
X017488Y017364D02*
X016918Y017364D01*
X016842Y017441D02*
X017488Y017441D01*
X017488Y017518D02*
X016842Y017518D01*
X016842Y017595D02*
X017488Y017595D01*
X017524Y017673D02*
X016842Y017673D01*
X016842Y017750D02*
X017601Y017750D01*
X017678Y017827D02*
X016842Y017827D01*
X016391Y018600D02*
X016378Y018600D01*
X018001Y020144D02*
X018781Y020144D01*
X018858Y020222D02*
X017972Y020222D01*
X017926Y020299D02*
X019033Y020299D01*
X019079Y018059D02*
X019579Y018059D01*
X019502Y017982D02*
X019156Y017982D01*
X019233Y017904D02*
X019424Y017904D01*
X019391Y017827D02*
X019268Y017827D01*
X019268Y017750D02*
X019391Y017750D01*
X019391Y017649D02*
X019391Y017507D01*
X019648Y017249D01*
X019791Y017249D01*
X019791Y017649D01*
X019391Y017649D01*
X019391Y017595D02*
X019268Y017595D01*
X019268Y017518D02*
X019391Y017518D01*
X019456Y017441D02*
X019202Y017441D01*
X019124Y017364D02*
X019534Y017364D01*
X019611Y017286D02*
X019047Y017286D01*
X019083Y017055D02*
X019577Y017055D01*
X019500Y016977D02*
X019160Y016977D01*
X019238Y016900D02*
X019423Y016900D01*
X019392Y016823D02*
X019268Y016823D01*
X019268Y016746D02*
X019392Y016746D01*
X019392Y016669D02*
X019268Y016669D01*
X019268Y016591D02*
X019392Y016591D01*
X019392Y016514D02*
X019268Y016514D01*
X019197Y016437D02*
X019339Y016437D01*
X019262Y016360D02*
X019120Y016360D01*
X019791Y017286D02*
X019869Y017286D01*
X019869Y017364D02*
X019791Y017364D01*
X019791Y017441D02*
X019869Y017441D01*
X019869Y017518D02*
X019791Y017518D01*
X019791Y017595D02*
X019869Y017595D01*
X019791Y017673D02*
X019268Y017673D01*
X019791Y017750D02*
X019869Y017750D01*
X019869Y017827D02*
X019791Y017827D01*
X019791Y017904D02*
X019869Y017904D01*
X019869Y017982D02*
X019791Y017982D01*
X019791Y018059D02*
X019869Y018059D01*
X020081Y018059D02*
X020125Y018059D01*
X020125Y017286D02*
X020049Y017286D01*
X020083Y017055D02*
X020125Y017055D01*
X018806Y014712D02*
X018830Y014689D01*
X019696Y014197D02*
X020125Y014197D01*
X020125Y014274D02*
X020035Y014274D01*
X020112Y014351D02*
X020125Y014351D01*
X020125Y014120D02*
X019696Y014120D01*
X019687Y014042D02*
X020125Y014042D01*
X020125Y013965D02*
X019610Y013965D01*
X008207Y005277D02*
X008207Y004672D01*
X008011Y004672D02*
X006928Y003590D01*
X007169Y003383D02*
X008141Y003383D01*
X008090Y003460D02*
X007246Y003460D01*
X007323Y003538D02*
X007923Y003538D01*
X007845Y003615D02*
X007401Y003615D01*
X007478Y003692D02*
X007842Y003692D01*
X007842Y003769D02*
X007555Y003769D01*
X007632Y003847D02*
X007842Y003847D01*
X007842Y003924D02*
X007710Y003924D01*
X007787Y004001D02*
X007842Y004001D01*
X007552Y004465D02*
X007168Y004465D01*
X007245Y004542D02*
X007630Y004542D01*
X007707Y004619D02*
X007322Y004619D01*
X007399Y004696D02*
X007784Y004696D01*
X007833Y004774D02*
X007477Y004774D01*
X007751Y004851D02*
X007833Y004851D01*
X008011Y004672D02*
X008011Y005277D01*
X007814Y005391D02*
X007814Y005391D01*
X007814Y005469D02*
X007814Y005469D01*
X007814Y005546D02*
X007814Y005546D01*
X007814Y005623D02*
X007814Y005623D01*
X007420Y005623D02*
X006948Y005623D01*
X006871Y005546D02*
X007420Y005546D01*
X007420Y005469D02*
X006794Y005469D01*
X006717Y005391D02*
X007420Y005391D01*
X007420Y005314D02*
X006639Y005314D01*
X006562Y005237D02*
X007420Y005237D01*
X007420Y005160D02*
X006485Y005160D01*
X006408Y005082D02*
X007284Y005082D01*
X007207Y005005D02*
X006330Y005005D01*
X006253Y004928D02*
X007130Y004928D01*
X007053Y004851D02*
X006176Y004851D01*
X006043Y004968D02*
X005255Y004968D01*
X005466Y004774D02*
X006975Y004774D01*
X006293Y005469D02*
X005542Y005469D01*
X005542Y005517D02*
X005498Y005623D01*
X006447Y005623D01*
X006370Y005546D02*
X005530Y005546D01*
X005542Y005517D02*
X005542Y005403D01*
X005498Y005298D01*
X005418Y005217D01*
X005410Y005214D01*
X005418Y005211D01*
X005483Y005145D01*
X005969Y005145D01*
X006594Y005770D01*
X006526Y005838D01*
X006526Y005974D01*
X005823Y005974D01*
X005485Y005636D01*
X005498Y005623D01*
X005549Y005700D02*
X006524Y005700D01*
X006587Y005778D02*
X005626Y005778D01*
X005704Y005855D02*
X006526Y005855D01*
X006526Y005932D02*
X005781Y005932D01*
X005749Y006151D02*
X005255Y005657D01*
X005255Y005460D01*
X005437Y005237D02*
X006061Y005237D01*
X006138Y005314D02*
X005505Y005314D01*
X005537Y005391D02*
X006215Y005391D01*
X005984Y005160D02*
X005469Y005160D01*
X006043Y004968D02*
X007029Y005954D01*
X006940Y005954D01*
X006940Y006151D02*
X005749Y006151D01*
X006940Y006937D02*
X006940Y006938D01*
X006940Y006937D02*
X007519Y006937D01*
X007519Y007923D01*
X007420Y006550D02*
X007353Y006550D01*
X007353Y006473D02*
X007420Y006473D01*
X007420Y006396D02*
X007353Y006396D01*
X007353Y006318D02*
X007420Y006318D01*
X007420Y006241D02*
X007353Y006241D01*
X007353Y006164D02*
X007420Y006164D01*
X007420Y006087D02*
X007353Y006087D01*
X007353Y006009D02*
X007420Y006009D01*
X007420Y005932D02*
X007353Y005932D01*
X007353Y005855D02*
X007420Y005855D01*
X007420Y005778D02*
X007293Y005778D01*
X007420Y005700D02*
X007025Y005700D01*
X007092Y003306D02*
X008040Y003306D01*
X007962Y003229D02*
X007014Y003229D01*
X007051Y001699D02*
X006248Y001699D01*
X006240Y001707D01*
X006240Y001024D01*
X007161Y001024D01*
X006950Y001235D01*
X006950Y001377D01*
X007350Y001377D01*
X007350Y001456D01*
X006950Y001456D01*
X006950Y001599D01*
X007051Y001699D01*
X007036Y001684D02*
X006240Y001684D01*
X006240Y001607D02*
X006958Y001607D01*
X006950Y001529D02*
X006240Y001529D01*
X006240Y001452D02*
X007350Y001452D01*
X007429Y001452D02*
X007952Y001452D01*
X007952Y001375D02*
X007829Y001375D01*
X007829Y001377D02*
X007429Y001377D01*
X007429Y001456D01*
X007829Y001456D01*
X007829Y001599D01*
X007729Y001699D01*
X007823Y001699D01*
X007952Y001570D01*
X007952Y001235D01*
X008164Y001024D01*
X007618Y001024D01*
X007829Y001235D01*
X007829Y001377D01*
X007829Y001298D02*
X007952Y001298D01*
X007967Y001220D02*
X007815Y001220D01*
X007738Y001143D02*
X008044Y001143D01*
X008121Y001066D02*
X007660Y001066D01*
X007829Y001529D02*
X007952Y001529D01*
X007915Y001607D02*
X007821Y001607D01*
X007838Y001684D02*
X007744Y001684D01*
X007119Y001066D02*
X006240Y001066D01*
X006240Y001143D02*
X007042Y001143D01*
X006965Y001220D02*
X006240Y001220D01*
X006240Y001298D02*
X006950Y001298D01*
X006950Y001375D02*
X006240Y001375D01*
X002380Y005082D02*
X000819Y005082D01*
X000819Y005160D02*
X001054Y005160D01*
X000893Y005237D02*
X000819Y005237D01*
X000819Y005855D02*
X000856Y005855D01*
X000819Y005932D02*
X000964Y005932D01*
X000819Y006009D02*
X001981Y006009D01*
X002058Y005932D02*
X001860Y005932D01*
X001969Y005855D02*
X002135Y005855D01*
X002213Y005778D02*
X002035Y005778D01*
X002067Y005700D02*
X002290Y005700D01*
X002367Y005623D02*
X002090Y005623D01*
X002090Y005546D02*
X002380Y005546D01*
X002380Y005469D02*
X002084Y005469D01*
X002052Y005391D02*
X002380Y005391D01*
X002380Y005314D02*
X002009Y005314D01*
X001932Y005237D02*
X002380Y005237D01*
X002380Y005160D02*
X001771Y005160D01*
X001904Y006087D02*
X000819Y006087D01*
X000819Y006164D02*
X001826Y006164D01*
X001749Y006241D02*
X000819Y006241D01*
X000819Y006318D02*
X001672Y006318D01*
X001595Y006396D02*
X000819Y006396D01*
X000819Y006473D02*
X000959Y006473D01*
X000829Y006550D02*
X000819Y006550D01*
X004057Y008558D02*
X004072Y008558D01*
X005255Y008315D02*
X005257Y008316D01*
X007353Y009794D02*
X007833Y009794D01*
X007833Y009871D02*
X007353Y009871D01*
X007435Y009949D02*
X007833Y009949D01*
X001199Y002534D02*
X000819Y002534D01*
X000819Y002456D02*
X001093Y002456D01*
X001015Y002379D02*
X000819Y002379D01*
X000819Y002302D02*
X000938Y002302D01*
X000895Y002225D02*
X000819Y002225D01*
X000819Y002147D02*
X000863Y002147D01*
X000831Y002070D02*
X000819Y002070D01*
D28*
X001515Y003393D03*
X003090Y003295D03*
X002893Y001425D03*
X005354Y003492D03*
X005649Y003984D03*
X005255Y004476D03*
X005255Y004968D03*
X005255Y005460D03*
X006043Y005559D03*
X007027Y004968D03*
X007421Y004476D03*
X007716Y003492D03*
X008700Y004181D03*
X008306Y006346D03*
X009881Y007232D03*
X011161Y005952D03*
X012637Y004771D03*
X012834Y004181D03*
X012047Y004181D03*
X011456Y003196D03*
X012243Y003000D03*
X013917Y003689D03*
X014507Y003196D03*
X014999Y003295D03*
X014802Y004181D03*
X014606Y005165D03*
X013523Y005460D03*
X012932Y005559D03*
X014901Y006937D03*
X015491Y007429D03*
X016377Y007429D03*
X016377Y004279D03*
X017558Y003098D03*
X011948Y007822D03*
X012243Y009791D03*
X014212Y011759D03*
X013031Y012350D03*
X012539Y011956D03*
X011358Y012645D03*
X011259Y013137D03*
X009684Y012744D03*
X009192Y013039D03*
X008602Y012941D03*
X008897Y012350D03*
X009094Y011858D03*
X009684Y012055D03*
X008700Y010775D03*
X008995Y009889D03*
X009881Y009988D03*
X009389Y008610D03*
X007617Y009889D03*
X007519Y010381D03*
X006928Y011464D03*
X007519Y012350D03*
X008110Y012350D03*
X007913Y013433D03*
X009586Y013925D03*
X011259Y014909D03*
X011358Y015893D03*
X011259Y016779D03*
X009684Y016090D03*
X007125Y015893D03*
X005255Y016484D03*
X004665Y014319D03*
X004763Y013531D03*
X005846Y012350D03*
X004369Y011759D03*
X004271Y009988D03*
X005747Y008413D03*
X005354Y007527D03*
X004271Y007822D03*
X004173Y006444D03*
X003877Y005362D03*
X002302Y013433D03*
X002204Y017567D03*
X001417Y017862D03*
X013621Y016878D03*
X014114Y015500D03*
X013917Y014712D03*
X014507Y014515D03*
X016377Y016385D03*
X017263Y017271D03*
X016968Y018059D03*
X016279Y018256D03*
X015393Y018256D03*
X014999Y018354D03*
X014704Y020027D03*
X018247Y020027D03*
X018543Y018354D03*
X019822Y018452D03*
X016574Y015204D03*
X016574Y014712D03*
X016279Y011759D03*
D29*
X013621Y019043D02*
X013622Y019043D01*
X013621Y019043D02*
X012243Y019043D01*
X012243Y019043D01*
X010866Y019043D01*
X010865Y019043D01*
X009388Y019043D01*
X009388Y019043D01*
X008011Y019043D01*
X008011Y019044D01*
X006633Y019044D01*
X006632Y019043D01*
X005255Y019043D01*
X005254Y019042D01*
X003877Y019042D01*
X003877Y020042D02*
X005254Y020042D01*
X005255Y020043D01*
X006632Y020043D01*
X006633Y020044D01*
X008011Y020044D01*
X008011Y020043D01*
X009388Y020043D01*
X009388Y020043D01*
X010865Y020043D01*
X010866Y020043D01*
X012243Y020043D01*
X012243Y020043D01*
X013621Y020043D01*
X013622Y020043D01*
D30*
X014606Y019535D02*
X003090Y019535D01*
X002795Y019240D01*
X002795Y018157D01*
X002204Y017567D01*
X009881Y010283D02*
X009881Y009988D01*
X009881Y010283D02*
X010177Y010578D01*
X012145Y010578D01*
X012342Y010775D01*
X012440Y010775D02*
X012539Y010677D01*
X012539Y009594D01*
X012342Y009397D01*
X012342Y005952D01*
X012344Y005954D01*
X013019Y005954D01*
X014507Y003196D02*
X014507Y002212D01*
X008011Y005854D02*
X007814Y005657D01*
X007814Y005277D01*
X007814Y005278D01*
X007814Y005460D01*
X007814Y005278D02*
X007814Y004870D01*
X007617Y005277D02*
X007617Y006642D01*
X007519Y006740D01*
X007519Y006937D01*
X014606Y019535D02*
X015106Y020035D01*
X015574Y020035D01*
D31*
X003877Y020042D02*
X003385Y020027D01*
X002007Y015204D02*
X002035Y015181D01*
X001417Y006881D02*
X002598Y005700D01*
X002598Y003196D01*
X003680Y002114D01*
X005058Y002114D01*
X005354Y002409D01*
X005354Y002891D01*
X005354Y002409D01*
X005452Y002311D01*
X005944Y002311D01*
X006338Y001917D01*
X007913Y001917D01*
X008390Y001440D01*
X008390Y001417D01*
X005354Y002891D02*
X005354Y002891D01*
X012735Y002892D02*
X012736Y002892D01*
X012736Y002212D01*
X014507Y002212D01*
X015688Y002212D01*
X015691Y002215D01*
X015691Y002892D01*
D32*
X012637Y004771D02*
X012145Y004771D01*
X012144Y004772D01*
X012144Y005277D01*
X010669Y003787D02*
X010669Y003697D01*
X010727Y003639D01*
X010669Y003787D02*
X009782Y004673D01*
X009782Y005277D01*
X009585Y005277D02*
X009585Y004673D01*
X010373Y003885D01*
X010373Y003678D01*
X010412Y003639D01*
X010097Y003639D02*
X010078Y003658D01*
X010078Y003984D01*
X009389Y004673D01*
X009389Y005277D01*
X009192Y005277D02*
X009192Y004673D01*
X009389Y004476D01*
X009389Y003757D01*
X009271Y003640D01*
X008995Y003679D02*
X008956Y003640D01*
X008995Y003679D02*
X008995Y003885D01*
X009192Y004082D01*
X009192Y004476D01*
X008995Y004673D01*
X008995Y005277D01*
X008601Y005277D02*
X008601Y004575D01*
X008602Y004574D01*
X008306Y004279D01*
X008306Y003984D01*
X008405Y003885D01*
X008602Y003885D01*
X008602Y003679D01*
X008641Y003640D01*
X008326Y003640D02*
X008277Y003689D01*
X008011Y003689D01*
X008011Y004181D01*
X008405Y004574D01*
X008404Y004575D01*
X008404Y005277D01*
X008326Y003147D02*
X008120Y003147D01*
X007390Y002417D01*
X008390Y002417D02*
X008579Y002606D01*
X008602Y002606D01*
X008641Y002646D01*
X008641Y003147D01*
X008956Y003147D02*
X008956Y002764D01*
X008897Y002704D01*
X008897Y001909D01*
X009390Y001417D01*
X009390Y002417D02*
X009271Y002535D01*
X009271Y003147D01*
X011042Y003639D02*
X011210Y003639D01*
X011259Y003590D01*
X011259Y003393D01*
X011456Y003196D01*
X013019Y008513D02*
X014312Y008513D01*
X015590Y009791D01*
X015590Y010185D01*
X015491Y010283D01*
X016771Y011563D01*
X016771Y012645D01*
X018247Y014122D01*
X019527Y014122D01*
X019527Y014385D01*
X019830Y014689D01*
X018838Y014515D02*
X018806Y014712D01*
X018838Y014515D02*
X018444Y014515D01*
X016574Y012645D01*
X016574Y011563D01*
X015196Y010185D01*
X015393Y009988D01*
X015393Y009791D01*
X014312Y008710D01*
X013019Y008710D01*
X013019Y008907D02*
X014312Y008907D01*
X015196Y009791D01*
X015196Y009889D01*
X014999Y010086D01*
X014999Y010185D01*
X016427Y011612D01*
X016279Y011759D01*
X015885Y011759D02*
X015885Y011267D01*
X014743Y010125D01*
X014743Y009830D01*
X013820Y009891D02*
X015295Y011366D01*
X015295Y011759D01*
X015787Y012252D01*
X015787Y013630D01*
X016771Y013630D01*
X017657Y014515D01*
X017657Y017567D01*
X017755Y017665D01*
X018806Y017665D01*
X018830Y017689D01*
X018740Y016779D02*
X017854Y016779D01*
X017854Y014515D01*
X016771Y013433D01*
X015984Y013433D01*
X015984Y012252D01*
X015491Y011759D01*
X015491Y011366D01*
X013820Y009694D01*
X013019Y009694D01*
X013019Y009498D02*
X013816Y009498D01*
X013818Y009496D01*
X015688Y011366D01*
X015688Y011759D01*
X016180Y012252D01*
X016180Y013236D01*
X016771Y013236D01*
X018051Y014515D01*
X018051Y016189D01*
X019330Y016189D01*
X019830Y016689D01*
X018830Y016689D02*
X018740Y016779D01*
X018830Y015689D02*
X018247Y015696D01*
X018247Y014515D01*
X016771Y013039D01*
X016377Y013039D01*
X016377Y012252D01*
X015885Y011759D01*
X015590Y012252D02*
X015590Y013826D01*
X016673Y013826D01*
X017460Y014614D01*
X017460Y016582D01*
X016673Y017370D01*
X016673Y018133D01*
X017574Y019035D01*
X016574Y019035D02*
X016090Y018551D01*
X014999Y018551D01*
X014802Y018551D01*
X014802Y017173D01*
X016476Y017173D01*
X017263Y016385D01*
X017263Y014614D01*
X016673Y014023D01*
X015393Y014023D01*
X015393Y012350D01*
X014901Y011858D01*
X014901Y011366D01*
X013820Y010285D01*
X013019Y010285D01*
X013019Y010482D02*
X013820Y010482D01*
X014704Y011366D01*
X014704Y011858D01*
X015196Y012350D01*
X015196Y014122D01*
X015295Y014220D01*
X016673Y014220D01*
X017066Y014614D01*
X017066Y016385D01*
X016476Y016976D01*
X014606Y016976D01*
X014606Y018846D01*
X014409Y018944D02*
X014999Y019535D01*
X016074Y019535D01*
X016574Y020035D01*
X015574Y019035D02*
X015484Y018944D01*
X014409Y018944D02*
X014409Y016779D01*
X016476Y016779D01*
X016869Y016385D01*
X016869Y014614D01*
X016673Y014417D01*
X015196Y014417D01*
X014999Y014220D01*
X014999Y012350D01*
X014704Y012055D01*
X014507Y012055D01*
X014507Y011366D01*
X013820Y010679D01*
X013019Y010679D01*
X013019Y010088D02*
X013820Y010088D01*
X015098Y011366D01*
X015098Y011759D01*
X015590Y012252D01*
X013820Y009891D02*
X013019Y009891D01*
X009684Y012744D02*
X009389Y012448D01*
X009389Y011356D01*
M02*
