G75*
G70*
%OFA0B0*%
%FSLAX24Y24*%
%IPPOS*%
%LPD*%
%AMOC8*
5,1,8,0,0,1.08239X$1,22.5*
%
%ADD10C,0.1340*%
%ADD11R,0.0671X0.0356*%
%ADD12R,0.1064X0.0867*%
%ADD13R,0.1379X0.0867*%
%ADD14R,0.1300X0.0277*%
%ADD15C,0.0434*%
%ADD16R,0.0474X0.0513*%
%ADD17R,0.0513X0.0474*%
%ADD18R,0.0493X0.0505*%
%ADD19R,0.0789X0.0926*%
%ADD20R,0.0926X0.0789*%
%ADD21R,0.0395X0.0395*%
%ADD22C,0.0620*%
%ADD23R,0.0631X0.0474*%
%ADD24OC8,0.0680*%
%ADD25R,0.0505X0.0493*%
%ADD26C,0.0680*%
%ADD27R,0.0316X0.0178*%
%ADD28R,0.0178X0.0316*%
%ADD29R,0.0218X0.0474*%
%ADD30R,0.0474X0.0218*%
%ADD31R,0.0631X0.0316*%
%ADD32R,0.0277X0.0336*%
%ADD33C,0.0680*%
%ADD34R,0.0316X0.0946*%
%ADD35C,0.0377*%
D10*
X001614Y001819D03*
X001614Y019535D03*
X019330Y019535D03*
X019330Y001819D03*
D11*
X011676Y006347D03*
X011674Y006741D03*
X011672Y007134D03*
X010650Y007131D03*
X010653Y006348D03*
X010651Y009394D03*
X010648Y010177D03*
X011669Y010179D03*
X011672Y009787D03*
X011674Y009392D03*
D12*
X019657Y007952D03*
X019657Y004448D03*
D13*
X017334Y004448D03*
X017334Y007952D03*
D14*
X017295Y006830D03*
X017295Y006515D03*
X017295Y006200D03*
X017295Y005885D03*
X017295Y005570D03*
D15*
X018476Y005334D03*
X018476Y007067D03*
D16*
X016122Y006840D03*
X016123Y006247D03*
X016120Y005658D03*
X015451Y005658D03*
X015453Y006247D03*
X015453Y006840D03*
X014153Y005952D03*
X013484Y005952D03*
X013562Y008413D03*
X012893Y008413D03*
X008641Y008511D03*
X007972Y008511D03*
X006081Y013230D03*
X005412Y013230D03*
X004212Y013336D03*
X003543Y013336D03*
X003125Y016047D03*
X002456Y016047D03*
X002460Y016877D03*
X003129Y016877D03*
D17*
X011948Y011799D03*
X011948Y011130D03*
X013720Y011819D03*
X013720Y012488D03*
X017263Y015854D03*
X017263Y016523D03*
X013225Y007764D03*
X013225Y007095D03*
X015782Y004906D03*
X015782Y004237D03*
X015787Y003734D03*
X015787Y003065D03*
X009783Y006011D03*
X009783Y006681D03*
X008110Y006897D03*
X008110Y007567D03*
X006436Y003039D03*
X006436Y002370D03*
X005648Y002371D03*
X005648Y003040D03*
X002499Y005520D03*
X002499Y006189D03*
D18*
X003533Y012449D03*
X004222Y012449D03*
X003139Y014420D03*
X002450Y014420D03*
X002450Y015302D03*
X003139Y015302D03*
X008847Y016584D03*
X009536Y016584D03*
X012292Y015603D03*
X012981Y015603D03*
X009536Y013529D03*
X008847Y013529D03*
X010618Y010873D03*
X011307Y010873D03*
X011309Y007724D03*
X010620Y007724D03*
X010913Y004084D03*
X011602Y004084D03*
D19*
X014798Y009201D03*
X014798Y010363D03*
D20*
X011544Y008609D03*
X010383Y008609D03*
X010577Y004868D03*
X011738Y004868D03*
D21*
X006435Y001818D03*
X006435Y001227D03*
X005747Y001228D03*
X005157Y001228D03*
X004664Y001228D03*
X004173Y001228D03*
X003680Y001228D03*
X003680Y001819D03*
X004173Y001819D03*
X004664Y001818D03*
X005157Y001819D03*
X005747Y001819D03*
D22*
X001682Y004564D02*
X001142Y004564D01*
X001142Y005564D02*
X001682Y005564D01*
X001685Y015395D02*
X001145Y015395D01*
X001145Y016395D02*
X001685Y016395D01*
D23*
X015845Y010971D03*
X016711Y011345D03*
X016711Y010597D03*
X016713Y009772D03*
X016713Y009024D03*
X015847Y009398D03*
D24*
X017838Y009488D03*
X017838Y010488D03*
X018838Y010488D03*
X018838Y009488D03*
X019838Y010488D03*
X018838Y011555D03*
X018838Y012555D03*
X019838Y012555D03*
X017838Y012555D03*
X017838Y011555D03*
X018830Y014689D03*
X018830Y015689D03*
X018830Y016689D03*
X018830Y017689D03*
X019830Y017689D03*
X019830Y016689D03*
X019830Y015689D03*
X019830Y014689D03*
X017574Y019035D03*
X016574Y019035D03*
X015574Y019035D03*
X015574Y020035D03*
X016574Y020035D03*
X011390Y002417D03*
X010390Y002417D03*
X009390Y002417D03*
X008390Y002417D03*
X007390Y002417D03*
X007390Y001417D03*
X008390Y001417D03*
X009390Y001417D03*
X010390Y001417D03*
X011390Y001417D03*
D25*
X012343Y005508D03*
X012343Y006197D03*
X008850Y006895D03*
X008850Y007584D03*
X014509Y013383D03*
X014509Y014072D03*
X011259Y014366D03*
X011259Y013677D03*
X010767Y014860D03*
X010767Y015549D03*
X010078Y015549D03*
X010078Y014860D03*
D26*
X009688Y018043D02*
X009088Y018043D01*
X008311Y018043D02*
X007711Y018043D01*
X006933Y018044D02*
X006333Y018044D01*
X005555Y018043D02*
X004955Y018043D01*
X004177Y018042D02*
X003577Y018042D01*
X003577Y019042D02*
X004177Y019042D01*
X004955Y019043D02*
X005555Y019043D01*
X006333Y019044D02*
X006933Y019044D01*
X007711Y019043D02*
X008311Y019043D01*
X009088Y019043D02*
X009688Y019043D01*
X010566Y019043D02*
X011166Y019043D01*
X011943Y019043D02*
X012543Y019043D01*
X013322Y019043D02*
X013922Y019043D01*
X013922Y020043D02*
X013322Y020043D01*
X012543Y020043D02*
X011943Y020043D01*
X011166Y020043D02*
X010566Y020043D01*
X009688Y020043D02*
X009088Y020043D01*
X008311Y020043D02*
X007711Y020043D01*
X006933Y020044D02*
X006333Y020044D01*
X005555Y020043D02*
X004955Y020043D01*
X004177Y020042D02*
X003577Y020042D01*
X001717Y013881D02*
X001117Y013881D01*
X001117Y012881D02*
X001717Y012881D01*
X001717Y011881D02*
X001117Y011881D01*
X001117Y010881D02*
X001717Y010881D01*
X001717Y009881D02*
X001117Y009881D01*
X001117Y008881D02*
X001717Y008881D01*
X001717Y007881D02*
X001117Y007881D01*
X001117Y006881D02*
X001717Y006881D01*
X010566Y018043D02*
X011166Y018043D01*
X011943Y018043D02*
X012543Y018043D01*
X013322Y018043D02*
X013922Y018043D01*
D27*
X013170Y014378D03*
X013170Y014181D03*
X013170Y013984D03*
X013170Y013787D03*
X012107Y013787D03*
X012107Y013984D03*
X012107Y014181D03*
X012107Y014378D03*
D28*
X012362Y014614D03*
X012540Y014614D03*
X012736Y014614D03*
X012933Y014614D03*
X012933Y013551D03*
X012736Y013551D03*
X012540Y013551D03*
X012343Y013551D03*
D29*
X009094Y014260D03*
X008897Y014260D03*
X008700Y014260D03*
X008503Y014260D03*
X008306Y014260D03*
X008110Y014260D03*
X008110Y015953D03*
X008306Y015953D03*
X008503Y015953D03*
X008700Y015953D03*
X008897Y015953D03*
X009094Y015953D03*
D30*
X009448Y015599D03*
X009448Y015402D03*
X009448Y015205D03*
X009448Y015008D03*
X009448Y014811D03*
X009448Y014614D03*
X007755Y014614D03*
X007755Y014811D03*
X007755Y015008D03*
X007755Y015205D03*
X007755Y015402D03*
X007755Y015599D03*
D31*
X015393Y014176D03*
X015393Y013684D03*
X015393Y013192D03*
X015393Y012699D03*
X016377Y012699D03*
X016377Y013192D03*
X016377Y013684D03*
X016377Y014176D03*
D32*
X004940Y003049D03*
X004625Y003049D03*
X004310Y003049D03*
X003995Y003049D03*
X003995Y002557D03*
X004310Y002557D03*
X004625Y002557D03*
X004940Y002557D03*
D33*
X019838Y009488D03*
X019838Y011555D03*
X017574Y020035D03*
D34*
X016241Y017507D03*
X015741Y017507D03*
X015241Y017507D03*
X014741Y017507D03*
X014741Y015460D03*
X015241Y015460D03*
X015741Y015460D03*
X016241Y015460D03*
D35*
X016574Y015204D03*
X016574Y014712D03*
X016377Y016385D03*
X017263Y017271D03*
X016968Y018059D03*
X016279Y018256D03*
X015393Y018256D03*
X014999Y018354D03*
X013621Y016878D03*
X014114Y015500D03*
X013917Y014712D03*
X014507Y014515D03*
X014704Y012448D03*
X014212Y011759D03*
X013031Y012350D03*
X012539Y011956D03*
X011358Y012645D03*
X011259Y013137D03*
X009684Y012744D03*
X009192Y013039D03*
X008602Y012941D03*
X008897Y012350D03*
X009094Y011858D03*
X009684Y012055D03*
X008700Y010775D03*
X008995Y009889D03*
X009881Y009988D03*
X009389Y008610D03*
X009881Y007232D03*
X011161Y005952D03*
X012637Y004771D03*
X012834Y004181D03*
X012047Y004181D03*
X011456Y003196D03*
X012243Y003000D03*
X013917Y003689D03*
X014507Y003196D03*
X014999Y003295D03*
X014802Y004181D03*
X014606Y005165D03*
X013523Y005460D03*
X012932Y005559D03*
X014901Y006937D03*
X015491Y007429D03*
X016377Y007429D03*
X016377Y004279D03*
X017558Y003098D03*
X011948Y007822D03*
X012243Y009791D03*
X008306Y006346D03*
X007027Y004968D03*
X007421Y004476D03*
X007716Y003492D03*
X008700Y004181D03*
X006043Y005559D03*
X005255Y005460D03*
X005255Y004968D03*
X005255Y004476D03*
X005649Y003984D03*
X005354Y003492D03*
X003877Y005362D03*
X004173Y006444D03*
X005354Y007527D03*
X005747Y008413D03*
X004271Y007822D03*
X004271Y009988D03*
X004369Y011759D03*
X005846Y012350D03*
X006928Y011464D03*
X007519Y012350D03*
X008110Y012350D03*
X007913Y013433D03*
X009586Y013925D03*
X011259Y014909D03*
X011358Y015893D03*
X011259Y016779D03*
X009684Y016090D03*
X007125Y015893D03*
X005255Y016484D03*
X004665Y014319D03*
X004763Y013531D03*
X002302Y013433D03*
X002204Y017567D03*
X001417Y017862D03*
X007519Y010381D03*
X007617Y009889D03*
X003090Y003295D03*
X001515Y003393D03*
X002893Y001425D03*
X016279Y011759D03*
X018543Y018354D03*
X019822Y018452D03*
X018247Y020027D03*
X014704Y020027D03*
M02*
